<?xml version="1.0" encoding="UTF-8" standalone="no"?>
<!-- Created with Inkscape (http://www.inkscape.org/) -->

<svg
   xmlns:ns0="http://www.iki.fi/pav/software/textext/"
   xmlns:dc="http://purl.org/dc/elements/1.1/"
   xmlns:cc="http://creativecommons.org/ns#"
   xmlns:rdf="http://www.w3.org/1999/02/22-rdf-syntax-ns#"
   xmlns:svg="http://www.w3.org/2000/svg"
   xmlns="http://www.w3.org/2000/svg"
   xmlns:xlink="http://www.w3.org/1999/xlink"
   xmlns:sodipodi="http://sodipodi.sourceforge.net/DTD/sodipodi-0.dtd"
   xmlns:inkscape="http://www.inkscape.org/namespaces/inkscape"
   width="1052.3622"
   height="744.09448"
   id="svg2"
   version="1.1"
   inkscape:version="0.48.1 r9760"
   sodipodi:docname="3dProfileExploded2.eps">
  <sodipodi:namedview
     id="base"
     pagecolor="#ffffff"
     bordercolor="#666666"
     borderopacity="1.0"
     inkscape:pageopacity="0.0"
     inkscape:pageshadow="2"
     inkscape:zoom="0.7"
     inkscape:cx="546.73295"
     inkscape:cy="275.09288"
     inkscape:document-units="px"
     inkscape:current-layer="layer1"
     showgrid="false"
     inkscape:window-width="1280"
     inkscape:window-height="723"
     inkscape:window-x="0"
     inkscape:window-y="48"
     inkscape:window-maximized="1" />
  <defs
     id="defs4">
    <marker
       inkscape:stockid="StopL"
       orient="auto"
       refY="0.0"
       refX="0.0"
       id="StopL"
       style="overflow:visible">
      <path
         id="path4340"
         d="M 0.0,5.65 L 0.0,-5.65"
         style="fill:none;fill-opacity:0.75000000;fill-rule:evenodd;stroke:#000000;stroke-width:1.0pt"
         transform="scale(0.8)" />
    </marker>
    <marker
       inkscape:stockid="Arrow1Lend"
       orient="auto"
       refY="0.0"
       refX="0.0"
       id="Arrow1Lend"
       style="overflow:visible;">
      <path
         id="path4173"
         d="M 0.0,0.0 L 5.0,-5.0 L -12.5,0.0 L 5.0,5.0 L 0.0,0.0 z "
         style="fill-rule:evenodd;stroke:#000000;stroke-width:1.0pt;marker-start:none;"
         transform="scale(0.8) rotate(180) translate(12.5,0)" />
    </marker>
    <marker
       inkscape:stockid="Arrow1Lstart"
       orient="auto"
       refY="0.0"
       refX="0.0"
       id="Arrow1Lstart"
       style="overflow:visible">
      <path
         id="path4170"
         d="M 0.0,0.0 L 5.0,-5.0 L -12.5,0.0 L 5.0,5.0 L 0.0,0.0 z "
         style="fill-rule:evenodd;stroke:#000000;stroke-width:1.0pt;marker-start:none"
         transform="scale(0.8) translate(12.5,0)" />
    </marker>
    <marker
       inkscape:stockid="Arrow1LstartG"
       orient="auto"
       refY="0.0"
       refX="0.0"
       id="Arrow1LstartG"
       style="overflow:visible">
      <path
         id="path6051"
         d="M 0.0,0.0 L 5.0,-5.0 L -12.5,0.0 L 5.0,5.0 L 0.0,0.0 z "
         style="marker-start:none;stroke:#55ff80;stroke-width:1.0pt;fill:#55ff80;fill-rule:evenodd"
         transform="scale(0.8) translate(12.5,0)" />
    </marker>
    <marker
       inkscape:stockid="Arrow1Lendh"
       orient="auto"
       refY="0.0"
       refX="0.0"
       id="Arrow1Lendh"
       style="overflow:visible;">
      <path
         id="path6054"
         d="M 0.0,0.0 L 5.0,-5.0 L -12.5,0.0 L 5.0,5.0 L 0.0,0.0 z "
         style="marker-start:none;stroke:#55ff80;stroke-width:1.0pt;fill:#55ff80;fill-rule:evenodd"
         transform="scale(0.8) rotate(180) translate(12.5,0)" />
    </marker>
    <marker
       inkscape:stockid="Arrow1LstartGf"
       orient="auto"
       refY="0.0"
       refX="0.0"
       id="Arrow1LstartGf"
       style="overflow:visible">
      <path
         id="path6173"
         d="M 0.0,0.0 L 5.0,-5.0 L -12.5,0.0 L 5.0,5.0 L 0.0,0.0 z "
         style="fill-rule:evenodd;marker-start:none;stroke:#00ff00;stroke-width:1.0pt;fill:#00ff00"
         transform="scale(0.8) translate(12.5,0)" />
    </marker>
    <marker
       inkscape:stockid="Arrow1LendhS"
       orient="auto"
       refY="0.0"
       refX="0.0"
       id="Arrow1LendhS"
       style="overflow:visible;">
      <path
         id="path6176"
         d="M 0.0,0.0 L 5.0,-5.0 L -12.5,0.0 L 5.0,5.0 L 0.0,0.0 z "
         style="fill-rule:evenodd;marker-start:none;stroke:#00ff00;stroke-width:1.0pt;fill:#00ff00"
         transform="scale(0.8) rotate(180) translate(12.5,0)" />
    </marker>
    <marker
       inkscape:stockid="Arrow1LstartGf"
       orient="auto"
       refY="0"
       refX="0"
       id="Arrow1LstartGf-1"
       style="overflow:visible">
      <path
         id="path6173-9"
         d="M 0,0 5,-5 -12.5,0 5,5 0,0 z"
         style="fill:#00ff00;fill-rule:evenodd;stroke:#00ff00;stroke-width:1pt;marker-start:none"
         transform="matrix(0.8,0,0,0.8,10,0)"
         inkscape:connector-curvature="0" />
    </marker>
    <marker
       inkscape:stockid="Arrow1LendhS"
       orient="auto"
       refY="0"
       refX="0"
       id="Arrow1LendhS-6"
       style="overflow:visible">
      <path
         id="path6176-0"
         d="M 0,0 5,-5 -12.5,0 5,5 0,0 z"
         style="fill:#00ff00;fill-rule:evenodd;stroke:#00ff00;stroke-width:1pt;marker-start:none"
         transform="matrix(-0.8,0,0,-0.8,-10,0)"
         inkscape:connector-curvature="0" />
    </marker>
    <marker
       inkscape:stockid="Arrow1LstartGfJ"
       orient="auto"
       refY="0.0"
       refX="0.0"
       id="Arrow1LstartGfJ"
       style="overflow:visible">
      <path
         id="path7120"
         d="M 0.0,0.0 L 5.0,-5.0 L -12.5,0.0 L 5.0,5.0 L 0.0,0.0 z "
         style="marker-start:none;stroke:#ff0000;stroke-width:1.0pt;fill:#ff0000;fill-rule:evenodd"
         transform="scale(0.8) translate(12.5,0)" />
    </marker>
    <marker
       inkscape:stockid="Arrow1LendhSz"
       orient="auto"
       refY="0.0"
       refX="0.0"
       id="Arrow1LendhSz"
       style="overflow:visible;">
      <path
         id="path7123"
         d="M 0.0,0.0 L 5.0,-5.0 L -12.5,0.0 L 5.0,5.0 L 0.0,0.0 z "
         style="marker-start:none;stroke:#ff0000;stroke-width:1.0pt;fill:#ff0000;fill-rule:evenodd"
         transform="scale(0.8) rotate(180) translate(12.5,0)" />
    </marker>
    <marker
       inkscape:stockid="Arrow1LstartGf"
       orient="auto"
       refY="0"
       refX="0"
       id="Arrow1LstartGf-5"
       style="overflow:visible">
      <path
         inkscape:connector-curvature="0"
         id="path6173-7"
         d="M 0,0 5,-5 -12.5,0 5,5 0,0 z"
         style="fill:#00ff00;fill-rule:evenodd;stroke:#00ff00;stroke-width:1pt;marker-start:none"
         transform="matrix(0.8,0,0,0.8,10,0)" />
    </marker>
    <marker
       inkscape:stockid="Arrow1LendhS"
       orient="auto"
       refY="0"
       refX="0"
       id="Arrow1LendhS-68"
       style="overflow:visible">
      <path
         inkscape:connector-curvature="0"
         id="path6176-2"
         d="M 0,0 5,-5 -12.5,0 5,5 0,0 z"
         style="fill:#00ff00;fill-rule:evenodd;stroke:#00ff00;stroke-width:1pt;marker-start:none"
         transform="matrix(-0.8,0,0,-0.8,-10,0)" />
    </marker>
    <marker
       inkscape:stockid="Arrow1LstartGfO"
       orient="auto"
       refY="0.0"
       refX="0.0"
       id="Arrow1LstartGfO"
       style="overflow:visible">
      <path
         id="path7964"
         d="M 0.0,0.0 L 5.0,-5.0 L -12.5,0.0 L 5.0,5.0 L 0.0,0.0 z "
         style="marker-start:none;stroke:#0000ff;stroke-width:1.0pt;fill:#0000ff;fill-rule:evenodd"
         transform="scale(0.8) translate(12.5,0)" />
    </marker>
    <marker
       inkscape:stockid="Arrow1LendhSX"
       orient="auto"
       refY="0.0"
       refX="0.0"
       id="Arrow1LendhSX"
       style="overflow:visible;">
      <path
         id="path7967"
         d="M 0.0,0.0 L 5.0,-5.0 L -12.5,0.0 L 5.0,5.0 L 0.0,0.0 z "
         style="marker-start:none;stroke:#0000ff;stroke-width:1.0pt;fill:#0000ff;fill-rule:evenodd"
         transform="scale(0.8) rotate(180) translate(12.5,0)" />
    </marker>
    <marker
       inkscape:stockid="Arrow1LendT"
       orient="auto"
       refY="0.0"
       refX="0.0"
       id="Arrow1LendT"
       style="overflow:visible;">
      <path
         id="path11176"
         d="M 0.0,0.0 L 5.0,-5.0 L -12.5,0.0 L 5.0,5.0 L 0.0,0.0 z "
         style="marker-start:none;stroke:#646464;stroke-width:1.0pt;fill:#646464;fill-rule:evenodd"
         transform="scale(0.8) rotate(180) translate(12.5,0)" />
    </marker>
    <marker
       inkscape:stockid="Arrow1Lendm"
       orient="auto"
       refY="0.0"
       refX="0.0"
       id="Arrow1Lendm"
       style="overflow:visible;">
      <path
         id="path11791"
         d="M 0.0,0.0 L 5.0,-5.0 L -12.5,0.0 L 5.0,5.0 L 0.0,0.0 z "
         style="marker-start:none;stroke:#646464;stroke-width:1.0pt;fill:#646464;fill-rule:evenodd"
         transform="scale(0.8) rotate(180) translate(12.5,0)" />
    </marker>
    <marker
       inkscape:stockid="Arrow1LendO"
       orient="auto"
       refY="0.0"
       refX="0.0"
       id="Arrow1LendO"
       style="overflow:visible;">
      <path
         id="path12386"
         d="M 0.0,0.0 L 5.0,-5.0 L -12.5,0.0 L 5.0,5.0 L 0.0,0.0 z "
         style="marker-start:none;stroke:#646464;stroke-width:1.0pt;fill:#646464;fill-rule:evenodd"
         transform="scale(0.8) rotate(180) translate(12.5,0)" />
    </marker>
    <marker
       inkscape:stockid="Arrow1Lendl"
       orient="auto"
       refY="0.0"
       refX="0.0"
       id="Arrow1Lendl"
       style="overflow:visible;">
      <path
         id="path12989"
         d="M 0.0,0.0 L 5.0,-5.0 L -12.5,0.0 L 5.0,5.0 L 0.0,0.0 z "
         style="marker-start:none;stroke:#646464;stroke-width:1.0pt;fill:#646464;fill-rule:evenodd"
         transform="scale(0.8) rotate(180) translate(12.5,0)" />
    </marker>
    <marker
       inkscape:stockid="Arrow1LendmO"
       orient="auto"
       refY="0.0"
       refX="0.0"
       id="Arrow1LendmO"
       style="overflow:visible;">
      <path
         id="path15096"
         d="M 0.0,0.0 L 5.0,-5.0 L -12.5,0.0 L 5.0,5.0 L 0.0,0.0 z "
         style="marker-start:none;stroke:#646464;stroke-width:1.0pt;fill:#646464;fill-rule:evenodd"
         transform="scale(0.8) rotate(180) translate(12.5,0)" />
    </marker>
    <marker
       inkscape:stockid="Arrow1Lendn"
       orient="auto"
       refY="0.0"
       refX="0.0"
       id="Arrow1Lendn"
       style="overflow:visible;">
      <path
         id="path15846"
         d="M 0.0,0.0 L 5.0,-5.0 L -12.5,0.0 L 5.0,5.0 L 0.0,0.0 z "
         style="marker-start:none;stroke:#646464;stroke-width:1.0pt;fill:#646464;fill-rule:evenodd"
         transform="scale(0.8) rotate(180) translate(12.5,0)" />
    </marker>
    <marker
       inkscape:stockid="Arrow1LendU"
       orient="auto"
       refY="0.0"
       refX="0.0"
       id="Arrow1LendU"
       style="overflow:visible;">
      <path
         id="path17020"
         d="M 0.0,0.0 L 5.0,-5.0 L -12.5,0.0 L 5.0,5.0 L 0.0,0.0 z "
         style="marker-start:none;stroke:#646464;stroke-width:1.0pt;fill:#646464;fill-rule:evenodd"
         transform="scale(0.8) rotate(180) translate(12.5,0)" />
    </marker>
    <marker
       inkscape:stockid="StopL4"
       orient="auto"
       refY="0.0"
       refX="0.0"
       id="StopL4"
       style="overflow:visible">
      <path
         id="path19031"
         d="M 0.0,5.65 L 0.0,-5.65"
         style="stroke-width:1.0pt;fill-rule:evenodd;stroke:#00ff00;fill-opacity:0.75000000;fill:none"
         transform="scale(0.8)" />
    </marker>
    <marker
       inkscape:stockid="StopLL"
       orient="auto"
       refY="0.0"
       refX="0.0"
       id="StopLL"
       style="overflow:visible">
      <path
         id="path19034"
         d="M 0.0,5.65 L 0.0,-5.65"
         style="stroke-width:1.0pt;fill-rule:evenodd;stroke:#00ff00;fill-opacity:0.75000000;fill:none"
         transform="scale(0.8)" />
    </marker>
    <marker
       inkscape:stockid="StopLK"
       orient="auto"
       refY="0.0"
       refX="0.0"
       id="StopLK"
       style="overflow:visible">
      <path
         id="path20604"
         d="M 0.0,5.65 L 0.0,-5.65"
         style="stroke-width:1.0pt;fill-rule:evenodd;stroke:#00ff00;fill-opacity:0.75000000;fill:none"
         transform="scale(0.8)" />
    </marker>
    <marker
       inkscape:stockid="StopL6"
       orient="auto"
       refY="0.0"
       refX="0.0"
       id="StopL6"
       style="overflow:visible">
      <path
         id="path20607"
         d="M 0.0,5.65 L 0.0,-5.65"
         style="stroke-width:1.0pt;fill-rule:evenodd;stroke:#00ff00;fill-opacity:0.75000000;fill:none"
         transform="scale(0.8)" />
    </marker>
    <marker
       inkscape:stockid="Arrow1Lendq"
       orient="auto"
       refY="0.0"
       refX="0.0"
       id="Arrow1Lendq"
       style="overflow:visible;">
      <path
         id="path22244"
         d="M 0.0,0.0 L 5.0,-5.0 L -12.5,0.0 L 5.0,5.0 L 0.0,0.0 z "
         style="marker-start:none;stroke:#646464;stroke-width:1.0pt;fill:#646464;fill-rule:evenodd"
         transform="scale(0.8) rotate(180) translate(12.5,0)" />
    </marker>
    <marker
       inkscape:stockid="StopL4b"
       orient="auto"
       refY="0.0"
       refX="0.0"
       id="StopL4b"
       style="overflow:visible">
      <path
         id="path26696"
         d="M 0.0,5.65 L 0.0,-5.65"
         style="fill-opacity:0.75000000;stroke:#00b311;stroke-width:1.0pt;fill:none;fill-rule:evenodd"
         transform="scale(0.8)" />
    </marker>
    <marker
       inkscape:stockid="StopLLK"
       orient="auto"
       refY="0.0"
       refX="0.0"
       id="StopLLK"
       style="overflow:visible">
      <path
         id="path26699"
         d="M 0.0,5.65 L 0.0,-5.65"
         style="fill-opacity:0.75000000;stroke:#00b311;stroke-width:1.0pt;fill:none;fill-rule:evenodd"
         transform="scale(0.8)" />
    </marker>
    <marker
       inkscape:stockid="Arrow1LstartGfn"
       orient="auto"
       refY="0.0"
       refX="0.0"
       id="Arrow1LstartGfn"
       style="overflow:visible">
      <path
         id="path26702"
         d="M 0.0,0.0 L 5.0,-5.0 L -12.5,0.0 L 5.0,5.0 L 0.0,0.0 z "
         style="marker-start:none;stroke:#00b311;stroke-width:1.0pt;fill:#00b311;fill-rule:evenodd"
         transform="scale(0.8) translate(12.5,0)" />
    </marker>
    <marker
       inkscape:stockid="Arrow1LendhSE"
       orient="auto"
       refY="0.0"
       refX="0.0"
       id="Arrow1LendhSE"
       style="overflow:visible;">
      <path
         id="path26705"
         d="M 0.0,0.0 L 5.0,-5.0 L -12.5,0.0 L 5.0,5.0 L 0.0,0.0 z "
         style="marker-start:none;stroke:#00b311;stroke-width:1.0pt;fill:#00b311;fill-rule:evenodd"
         transform="scale(0.8) rotate(180) translate(12.5,0)" />
    </marker>
    <marker
       inkscape:stockid="StopLKO"
       orient="auto"
       refY="0.0"
       refX="0.0"
       id="StopLKO"
       style="overflow:visible">
      <path
         id="path26708"
         d="M 0.0,5.65 L 0.0,-5.65"
         style="fill-opacity:0.75000000;stroke:#00b311;stroke-width:1.0pt;fill:none;fill-rule:evenodd"
         transform="scale(0.8)" />
    </marker>
    <marker
       inkscape:stockid="StopL6P"
       orient="auto"
       refY="0.0"
       refX="0.0"
       id="StopL6P"
       style="overflow:visible">
      <path
         id="path26711"
         d="M 0.0,5.65 L 0.0,-5.65"
         style="fill-opacity:0.75000000;stroke:#00b311;stroke-width:1.0pt;fill:none;fill-rule:evenodd"
         transform="scale(0.8)" />
    </marker>
    <marker
       inkscape:stockid="StopL4bi"
       orient="auto"
       refY="0.0"
       refX="0.0"
       id="StopL4bi"
       style="overflow:visible">
      <path
         id="path5445"
         d="M 0.0,5.65 L 0.0,-5.65"
         style="fill-rule:evenodd;stroke:#646464;stroke-width:1.0pt;fill:none;fill-opacity:0.75000000"
         transform="scale(0.8)" />
    </marker>
    <marker
       inkscape:stockid="StopLLKC"
       orient="auto"
       refY="0.0"
       refX="0.0"
       id="StopLLKC"
       style="overflow:visible">
      <path
         id="path5448"
         d="M 0.0,5.65 L 0.0,-5.65"
         style="fill-rule:evenodd;stroke:#646464;stroke-width:1.0pt;fill:none;fill-opacity:0.75000000"
         transform="scale(0.8)" />
    </marker>
    <marker
       inkscape:stockid="Arrow1LstartGfJe"
       orient="auto"
       refY="0.0"
       refX="0.0"
       id="Arrow1LstartGfJe"
       style="overflow:visible">
      <path
         id="path5451"
         d="M 0.0,0.0 L 5.0,-5.0 L -12.5,0.0 L 5.0,5.0 L 0.0,0.0 z "
         style="fill-rule:evenodd;marker-start:none;stroke:#646464;stroke-width:1.0pt;fill:#646464"
         transform="scale(0.8) translate(12.5,0)" />
    </marker>
    <marker
       inkscape:stockid="Arrow1LendhSzR"
       orient="auto"
       refY="0.0"
       refX="0.0"
       id="Arrow1LendhSzR"
       style="overflow:visible;">
      <path
         id="path5454"
         d="M 0.0,0.0 L 5.0,-5.0 L -12.5,0.0 L 5.0,5.0 L 0.0,0.0 z "
         style="fill-rule:evenodd;marker-start:none;stroke:#646464;stroke-width:1.0pt;fill:#646464"
         transform="scale(0.8) rotate(180) translate(12.5,0)" />
    </marker>
    <marker
       inkscape:stockid="Arrow1LstartGfnF"
       orient="auto"
       refY="0.0"
       refX="0.0"
       id="Arrow1LstartGfnF"
       style="overflow:visible">
      <path
         id="path5457"
         d="M 0.0,0.0 L 5.0,-5.0 L -12.5,0.0 L 5.0,5.0 L 0.0,0.0 z "
         style="fill-rule:evenodd;marker-start:none;stroke:#646464;stroke-width:1.0pt;fill:#646464"
         transform="scale(0.8) translate(12.5,0)" />
    </marker>
    <marker
       inkscape:stockid="Arrow1LendhSEX"
       orient="auto"
       refY="0.0"
       refX="0.0"
       id="Arrow1LendhSEX"
       style="overflow:visible;">
      <path
         id="path5460"
         d="M 0.0,0.0 L 5.0,-5.0 L -12.5,0.0 L 5.0,5.0 L 0.0,0.0 z "
         style="fill-rule:evenodd;marker-start:none;stroke:#646464;stroke-width:1.0pt;fill:#646464"
         transform="scale(0.8) rotate(180) translate(12.5,0)" />
    </marker>
    <marker
       inkscape:stockid="Arrow1LstartGfOp"
       orient="auto"
       refY="0.0"
       refX="0.0"
       id="Arrow1LstartGfOp"
       style="overflow:visible">
      <path
         id="path5463"
         d="M 0.0,0.0 L 5.0,-5.0 L -12.5,0.0 L 5.0,5.0 L 0.0,0.0 z "
         style="fill-rule:evenodd;marker-start:none;stroke:#646464;stroke-width:1.0pt;fill:#646464"
         transform="scale(0.8) translate(12.5,0)" />
    </marker>
    <marker
       inkscape:stockid="Arrow1LendhSXY"
       orient="auto"
       refY="0.0"
       refX="0.0"
       id="Arrow1LendhSXY"
       style="overflow:visible;">
      <path
         id="path5466"
         d="M 0.0,0.0 L 5.0,-5.0 L -12.5,0.0 L 5.0,5.0 L 0.0,0.0 z "
         style="fill-rule:evenodd;marker-start:none;stroke:#646464;stroke-width:1.0pt;fill:#646464"
         transform="scale(0.8) rotate(180) translate(12.5,0)" />
    </marker>
    <marker
       inkscape:stockid="StopLKOT"
       orient="auto"
       refY="0.0"
       refX="0.0"
       id="StopLKOT"
       style="overflow:visible">
      <path
         id="path5469"
         d="M 0.0,5.65 L 0.0,-5.65"
         style="fill-rule:evenodd;stroke:#646464;stroke-width:1.0pt;fill:none;fill-opacity:0.75000000"
         transform="scale(0.8)" />
    </marker>
    <marker
       inkscape:stockid="StopL6PL"
       orient="auto"
       refY="0.0"
       refX="0.0"
       id="StopL6PL"
       style="overflow:visible">
      <path
         id="path5472"
         d="M 0.0,5.65 L 0.0,-5.65"
         style="fill-rule:evenodd;stroke:#646464;stroke-width:1.0pt;fill:none;fill-opacity:0.75000000"
         transform="scale(0.8)" />
    </marker>
  </defs>
  <metadata
     id="metadata7">
    <rdf:RDF>
      <cc:Work
         rdf:about="">
        <dc:format>image/svg+xml</dc:format>
        <dc:type
           rdf:resource="http://purl.org/dc/dcmitype/StillImage" />
        <dc:title></dc:title>
      </cc:Work>
    </rdf:RDF>
  </metadata>
  <g
     inkscape:label="Layer 1"
     inkscape:groupmode="layer"
     id="layer1"
     transform="translate(0,-308.2677)">
    <path
       style="fill:none;stroke:#646464;stroke-width:1.5;stroke-linecap:butt;stroke-linejoin:miter;stroke-miterlimit:4;stroke-opacity:1;stroke-dasharray:none;marker-end:url(#Arrow1LendU)"
       d="M 397.14286,582.36219 942.85714,366.6479"
       id="path16754"
       inkscape:connector-curvature="0" />
    <rect
       y="309.505"
       x="798.80389"
       height="285.71429"
       width="82.392151"
       id="rect17455-6"
       style="fill:#ffffff;fill-opacity:1;stroke:#ffffff;stroke-width:0.80550492;stroke-miterlimit:4;stroke-opacity:1;stroke-dasharray:none;stroke-dashoffset:0" />
    <rect
       y="335.21933"
       x="660.34296"
       height="285.71429"
       width="82.392151"
       id="rect17455"
       style="fill:#ffffff;fill-opacity:1;stroke:#ffffff;stroke-width:0.80550492;stroke-miterlimit:4;stroke-opacity:1;stroke-dasharray:none;stroke-dashoffset:0" />
    <path
       style="fill:none;stroke:#000000;stroke-width:4;stroke-linecap:butt;stroke-linejoin:miter;stroke-miterlimit:4;stroke-opacity:1;stroke-dasharray:none"
       d="M 837.46486,509.22149 961.03629,382.79292"
       id="path3933"
       inkscape:connector-curvature="0" />
    <path
       style="fill:none;stroke:#000000;stroke-width:4;stroke-linecap:butt;stroke-linejoin:miter;stroke-miterlimit:4;stroke-opacity:1;stroke-dasharray:none"
       d="M 717.0116,497.69139 695.58303,331.26282"
       id="path3163"
       inkscape:connector-curvature="0" />
    <path
       style="stroke-linejoin:miter;stroke-opacity:1;stroke:#000000;stroke-linecap:butt;stroke-miterlimit:4;stroke-dasharray:none;stroke-width:4;fill:none"
       d="M 171.25499,965.00303 C 569.8704,919.26033 741.95029,553.31829 741.95029,553.31829"
       id="path3004"
       inkscape:connector-curvature="0" />
    <path
       style="fill:none;stroke:#000000;stroke-width:2;stroke-linecap:butt;stroke-linejoin:miter;stroke-miterlimit:4;stroke-opacity:1;stroke-dasharray:none;marker-start:url(#Arrow1Lstart);marker-end:url(#Arrow1Lend)"
       d="m 290.17842,513.18073 0,129.29953 111.11678,0"
       id="path3397"
       inkscape:connector-curvature="0" />
    <path
       style="fill:none;stroke:#000000;stroke-width:2;stroke-linecap:butt;stroke-linejoin:miter;stroke-miterlimit:4;stroke-opacity:1;stroke-dasharray:none;marker-start:none;marker-end:url(#Arrow1Lend)"
       d="m 289.16827,642.48026 66.16499,-66.16499"
       id="path4797"
       inkscape:connector-curvature="0" />
    <g
       id="g5245"
       ns0:preamble="/home/marco/MAP/MSQS/Project_Plan/figures/preamble1.tex"
       ns0:text="$X$"
       transform="matrix(3,0,0,3,199.26469,405.31118)">
      <defs
         id="defs5247">
        <g
           id="g5249">
          <symbol
             id="textext-9bdda005-0"
             overflow="visible"
             style="overflow:visible">
            <path
               id="path5252"
               d="M 4.828125,-4.09375 4,-6.078125 c -0.03125,-0.078125 -0.046875,-0.125 -0.046875,-0.125 0,-0.0625 0.15625,-0.25 0.578125,-0.296875 0.109375,-0.015625 0.203125,-0.015625 0.203125,-0.1875 0,-0.125 -0.125,-0.125 -0.15625,-0.125 -0.40625,0 -0.828125,0.03125 -1.25,0.03125 -0.25,0 -0.859375,-0.03125 -1.109375,-0.03125 -0.0625,0 -0.1875,0 -0.1875,0.203125 C 2.03125,-6.5 2.140625,-6.5 2.265625,-6.5 c 0.59375,0 0.65625,0.09375 0.75,0.3125 l 1.171875,2.78125 -2.109375,2.265625 -0.125,0.109375 C 1.46875,-0.5 1,-0.34375 0.484375,-0.3125 c -0.125,0.015625 -0.21875,0.015625 -0.21875,0.203125 0,0.015625 0,0.109375 0.140625,0.109375 0.296875,0 0.625,-0.03125 0.921875,-0.03125 C 1.703125,-0.03125 2.09375,0 2.453125,0 2.515625,0 2.625,0 2.625,-0.203125 2.625,-0.296875 2.53125,-0.3125 2.515625,-0.3125 c -0.09375,0 -0.40625,-0.03125 -0.40625,-0.3125 0,-0.15625 0.15625,-0.3125 0.265625,-0.4375 L 3.40625,-2.140625 4.296875,-3.125 l 1,2.390625 c 0.046875,0.109375 0.0625,0.109375 0.0625,0.140625 0,0.078125 -0.203125,0.25 -0.578125,0.28125 C 4.671875,-0.296875 4.578125,-0.296875 4.578125,-0.125 4.578125,0 4.6875,0 4.71875,0 5,0 5.703125,-0.03125 5.984375,-0.03125 6.234375,-0.03125 6.84375,0 7.09375,0 c 0.0625,0 0.1875,0 0.1875,-0.1875 0,-0.125 -0.109375,-0.125 -0.1875,-0.125 -0.65625,0 -0.6875,-0.03125 -0.859375,-0.4375 C 5.859375,-1.671875 5.1875,-3.234375 4.953125,-3.828125 5.625,-4.53125 6.671875,-5.71875 7,-5.984375 7.28125,-6.234375 7.671875,-6.46875 8.265625,-6.5 c 0.125,-0.015625 0.21875,-0.015625 0.21875,-0.203125 0,0 0,-0.109375 -0.125,-0.109375 -0.296875,0 -0.640625,0.03125 -0.9375,0.03125 -0.375,0 -0.75,-0.03125 -1.109375,-0.03125 -0.0625,0 -0.1875,0 -0.1875,0.203125 0,0.0625 0.046875,0.09375 0.109375,0.109375 0.09375,0.015625 0.40625,0.03125 0.40625,0.3125 0,0.140625 -0.109375,0.265625 -0.1875,0.359375 z m 0,0"
               style="stroke:none"
               inkscape:connector-curvature="0" />
          </symbol>
        </g>
      </defs>
      <g
         id="textext-9bdda005-1">
        <g
           id="g5255"
           style="fill:#000000;fill-opacity:1">
          <use
             id="use5257"
             y="81.962997"
             x="72"
             xlink:href="#textext-9bdda005-0"
             width="1052.3622"
             height="744.09448" />
        </g>
      </g>
    </g>
    <g
       ns0:text="$Z$"
       ns0:preamble="/home/marco/MAP/MSQS/Project_Plan/figures/preamble1.tex"
       transform="matrix(3,0,0,3,31.758987,273.46988)"
       id="g5377">
      <defs
         id="defs5379">
        <g
           id="g5381">
          <symbol
             style="overflow:visible"
             overflow="visible"
             id="textext-a08afdf8-0">
            <path
               inkscape:connector-curvature="0"
               style="stroke:none"
               d="m 7.171875,-6.5625 c 0.015625,-0.046875 0.03125,-0.09375 0.03125,-0.15625 0,-0.09375 -0.046875,-0.09375 -0.25,-0.09375 l -4.203125,0 c -0.234375,0 -0.25,0.015625 -0.3125,0.203125 L 1.890625,-4.8125 c -0.015625,0.046875 -0.03125,0.125 -0.03125,0.140625 0,0 0,0.109375 0.125,0.109375 0.09375,0 0.109375,-0.078125 0.125,-0.109375 C 2.5,-5.84375 3.015625,-6.5 4.5625,-6.5 l 1.625,0 -5.5625,6.234375 c 0,0 -0.046875,0.140625 -0.046875,0.171875 C 0.578125,0 0.640625,0 0.828125,0 L 5.15625,0 c 0.25,0 0.25,-0.015625 0.3125,-0.203125 L 6.1875,-2.40625 c 0,-0.03125 0.03125,-0.109375 0.03125,-0.140625 0,-0.0625 -0.03125,-0.109375 -0.125,-0.109375 -0.09375,0 -0.109375,0.03125 -0.171875,0.25 C 5.484375,-1.0625 5,-0.34375 3.3125,-0.34375 l -1.703125,0 z m 0,0"
               id="path5384" />
          </symbol>
        </g>
      </defs>
      <g
         id="textext-a08afdf8-1">
        <g
           style="fill:#000000;fill-opacity:1"
           id="g5387">
          <use
             height="744.09448"
             width="1052.3622"
             xlink:href="#textext-a08afdf8-0"
             x="72"
             y="81.962997"
             id="use5389" />
        </g>
      </g>
    </g>
    <g
       id="g5465"
       transform="matrix(3,0,0,3,140.85547,319.9369)"
       ns0:preamble="/home/marco/MAP/MSQS/Project_Plan/figures/preamble1.tex"
       ns0:text="$Y$">
      <defs
         id="defs5467">
        <g
           id="g5469">
          <symbol
             style="overflow:visible"
             id="textext-c54f52aa-0"
             overflow="visible">
            <path
               inkscape:connector-curvature="0"
               id="path5504"
               d="M 5.953125,-5.671875 6.09375,-5.8125 C 6.390625,-6.109375 6.71875,-6.453125 7.390625,-6.5 7.5,-6.515625 7.59375,-6.515625 7.59375,-6.6875 c 0,-0.078125 -0.046875,-0.125 -0.125,-0.125 -0.265625,0 -0.546875,0.03125 -0.8125,0.03125 -0.34375,0 -0.6875,-0.03125 -1,-0.03125 -0.0625,0 -0.1875,0 -0.1875,0.1875 0,0.109375 0.09375,0.125 0.140625,0.125 0.078125,0 0.359375,0.015625 0.359375,0.234375 0,0.171875 -0.234375,0.421875 -0.265625,0.46875 L 3.390625,-3.125 2.296875,-6.09375 C 2.234375,-6.234375 2.234375,-6.25 2.234375,-6.265625 2.234375,-6.5 2.71875,-6.5 2.828125,-6.5 c 0.125,0 0.234375,0 0.234375,-0.203125 0,-0.109375 -0.125,-0.109375 -0.15625,-0.109375 -0.28125,0 -0.96875,0.03125 -1.25,0.03125 -0.25,0 -0.875,-0.03125 -1.125,-0.03125 -0.046875,0 -0.1875,0 -0.1875,0.203125 C 0.34375,-6.5 0.453125,-6.5 0.578125,-6.5 c 0.59375,0 0.640625,0.09375 0.734375,0.34375 L 2.53125,-2.875 c 0.015625,0.03125 0.046875,0.140625 0.046875,0.15625 0,0.03125 -0.40625,1.640625 -0.453125,1.828125 C 2,-0.34375 1.984375,-0.3125 1.1875,-0.3125 c -0.1875,0 -0.265625,0 -0.265625,0.203125 C 0.921875,0 1.03125,0 1.0625,0 c 0.265625,0 0.96875,-0.03125 1.25,-0.03125 0.28125,0 1,0.03125 1.28125,0.03125 0.0625,0 0.1875,0 0.1875,-0.203125 C 3.78125,-0.3125 3.6875,-0.3125 3.5,-0.3125 c -0.015625,0 -0.203125,0 -0.375,-0.015625 C 2.90625,-0.34375 2.84375,-0.375 2.84375,-0.484375 c 0,-0.078125 0.09375,-0.421875 0.140625,-0.625 l 0.359375,-1.40625 c 0.046875,-0.203125 0.0625,-0.21875 0.140625,-0.3125 z m 0,0"
               style="stroke:none" />
          </symbol>
        </g>
      </defs>
      <g
         id="textext-c54f52aa-1">
        <g
           id="g5475"
           style="fill:#000000;fill-opacity:1">
          <use
             height="744.09448"
             width="1052.3622"
             id="use5477"
             y="81.962997"
             x="72"
             xlink:href="#textext-c54f52aa-0" />
        </g>
      </g>
    </g>
    <g
       ns0:text="$\\mathcal{F}_{0}$"
       ns0:preamble="/home/marco/MAP/MSQS/Project_Plan/figures/preamble1.tex"
       transform="matrix(3,0,0,3,28.161357,395.69834)"
       id="g5600">
      <defs
         id="defs5602">
        <g
           id="g5604">
          <symbol
             style="overflow:visible"
             overflow="visible"
             id="textext-67cf4adb-0">
            <path
               inkscape:connector-curvature="0"
               style="stroke:none"
               d="m 8.28125,-6.4375 c 0,-0.453125 -0.78125,-0.375 -1.078125,-0.375 l -3.765625,0 c -0.5,0 -1.390625,0.28125 -1.546875,0.828125 C 1.90625,-5.9375 1.9375,-5.921875 2,-5.921875 c 0.21875,0 0.515625,-0.171875 0.65625,-0.328125 0.296875,0 0.609375,-0.015625 0.90625,-0.015625 l 0.625,0 c 0,0 -0.046875,0.171875 -0.046875,0.1875 -0.375,1.828125 -0.96875,3.359375 -1.40625,4.34375 -0.0625,0.125 -0.59375,1.375 -0.734375,1.5 -0.4375,0 -0.78125,-0.25 -0.953125,-0.640625 -0.03125,-0.046875 -0.03125,-0.09375 -0.09375,-0.09375 -0.234375,0 -0.78125,0.328125 -0.78125,0.484375 0,0.03125 0,0.046875 0.015625,0.0625 0.1875,0.46875 0.625,0.734375 1.125,0.734375 0.5,0 1.09375,-0.359375 1.40625,-0.734375 0.328125,-0.375 0.984375,-2.015625 1.25,-2.609375 l 1.921875,0 C 5.875,-3.015625 5.875,-3.015625 5.875,-3 c 0,0.046875 0.0625,0.0625 0.09375,0.0625 0.21875,0 0.796875,-0.265625 0.796875,-0.578125 0,-0.078125 -0.078125,-0.0625 -0.203125,-0.0625 l -2.390625,0 c 0.265625,-0.890625 0.609375,-1.78125 0.78125,-2.6875 l 1.3125,0 c 0.25,0 0.953125,-0.046875 1.125,0.171875 0.03125,0.046875 0,0.15625 0.03125,0.203125 C 7.4375,-5.875 7.46875,-5.859375 7.5,-5.859375 c 0.234375,0 0.78125,-0.296875 0.78125,-0.578125 z m 0,0"
               id="path5607" />
          </symbol>
          <symbol
             style="overflow:visible"
             overflow="visible"
             id="textext-67cf4adb-1">
            <path
               inkscape:connector-curvature="0"
               style="stroke:none"
               d="M 3.59375,-2.21875 C 3.59375,-2.984375 3.5,-3.546875 3.1875,-4.03125 2.96875,-4.34375 2.53125,-4.625 1.984375,-4.625 c -1.625,0 -1.625,1.90625 -1.625,2.40625 0,0.5 0,2.359375 1.625,2.359375 1.609375,0 1.609375,-1.859375 1.609375,-2.359375 z M 1.984375,-0.0625 c -0.328125,0 -0.75,-0.1875 -0.890625,-0.75 C 1,-1.21875 1,-1.796875 1,-2.3125 1,-2.828125 1,-3.359375 1.09375,-3.734375 1.25,-4.28125 1.6875,-4.4375 1.984375,-4.4375 c 0.375,0 0.734375,0.234375 0.859375,0.640625 0.109375,0.375 0.125,0.875 0.125,1.484375 0,0.515625 0,1.03125 -0.09375,1.46875 -0.140625,0.640625 -0.609375,0.78125 -0.890625,0.78125 z m 0,0"
               id="path5610" />
          </symbol>
        </g>
      </defs>
      <g
         id="textext-67cf4adb-2">
        <g
           style="fill:#000000;fill-opacity:1"
           id="g5613">
          <use
             height="744.09448"
             width="1052.3622"
             xlink:href="#textext-67cf4adb-0"
             x="72"
             y="81.962997"
             id="use5615" />
        </g>
        <g
           style="fill:#000000;fill-opacity:1"
           id="g5617">
          <use
             height="744.09448"
             width="1052.3622"
             xlink:href="#textext-67cf4adb-1"
             x="79.161003"
             y="83.457001"
             id="use5619" />
        </g>
      </g>
    </g>
    <path
       inkscape:connector-curvature="0"
       id="path5673"
       d="m 167.26691,877.07353 0,91.92393 77.78175,0"
       style="stroke-linejoin:miter;marker-end:url(#Arrow1LendhSEX);stroke-opacity:1;marker-start:url(#Arrow1LstartGfnF);stroke:#646464;stroke-linecap:butt;stroke-miterlimit:4;stroke-dasharray:none;stroke-width:1.50000000000000000;fill:none" />
    <path
       inkscape:connector-curvature="0"
       id="path5673-3"
       d="m 835.17068,420.0116 0,91.92393 77.78175,-42.38053"
       style="stroke-linejoin:miter;marker-end:url(#Arrow1LendhSzR);stroke-opacity:1;marker-start:url(#Arrow1LstartGfJe);stroke:#646464;stroke-linecap:butt;stroke-miterlimit:4;stroke-dasharray:none;stroke-width:1.50000000000000000;fill:none" />
    <path
       inkscape:connector-curvature="0"
       id="path5673-9"
       d="m 717.04373,406.55204 0,91.92393 -77.78175,-81.0758"
       style="stroke-linejoin:miter;marker-end:url(#Arrow1LendhSXY);stroke-opacity:1;marker-start:url(#Arrow1LstartGfOp);stroke:#646464;stroke-linecap:butt;stroke-miterlimit:4;stroke-dasharray:none;stroke-width:1.50000000000000000;fill:none" />
    <path
       inkscape:connector-curvature="0"
       id="path11545"
       d="M 287.14286,656.6479 185.71429,938.07647"
       style="fill:none;stroke:#646464;stroke-width:1.5;stroke-linecap:butt;stroke-linejoin:miter;stroke-miterlimit:4;stroke-opacity:1;stroke-dasharray:none;marker-end:url(#Arrow1Lendm)" />
    <g
       ns0:text="\\definecolor{grey}{RGB}{100,100,100}\\color{grey}$\\mathbf{r}_{1}$"
       ns0:preamble="/home/marco/MAP/MSQS/Project_Plan/figures/preamble1.tex"
       transform="matrix(3,0,0,3,41.895772,535.67628)"
       id="g13589">
      <defs
         id="defs13591">
        <g
           id="g13593">
          <symbol
             overflow="visible"
             id="textext-b9cb0e0b-0"
             style="overflow:visible">
            <path
               style="stroke:none"
               d="m 2.03125,-3.359375 0,-1.125 -1.65625,0.078125 0,0.46875 c 0.609375,0 0.6875,0 0.6875,0.390625 l 0,3.078125 -0.6875,0 0,0.46875 c 0.34375,-0.015625 0.796875,-0.03125 1.25,-0.03125 0.375,0 1.015625,0 1.375,0.03125 l 0,-0.46875 -0.859375,0 0,-1.75 c 0,-0.6875 0.234375,-1.90625 1.234375,-1.90625 0,0.015625 -0.1875,0.171875 -0.1875,0.453125 0,0.40625 0.328125,0.609375 0.609375,0.609375 0.296875,0 0.609375,-0.203125 0.609375,-0.609375 0,-0.53125 -0.53125,-0.8125 -1.0625,-0.8125 -0.6875,0 -1.09375,0.5 -1.3125,1.125 z m 0,0"
               id="path13596"
               inkscape:connector-curvature="0" />
          </symbol>
          <symbol
             overflow="visible"
             id="textext-b9cb0e0b-1"
             style="overflow:visible">
            <path
               style="stroke:none"
               d="m 2.328125,-4.4375 c 0,-0.1875 0,-0.1875 -0.203125,-0.1875 -0.453125,0.4375 -1.078125,0.4375 -1.359375,0.4375 l 0,0.25 c 0.15625,0 0.625,0 1,-0.1875 l 0,3.546875 c 0,0.234375 0,0.328125 -0.6875,0.328125 l -0.265625,0 0,0.25 c 0.125,0 0.984375,-0.03125 1.234375,-0.03125 0.21875,0 1.09375,0.03125 1.25,0.03125 l 0,-0.25 -0.265625,0 c -0.703125,0 -0.703125,-0.09375 -0.703125,-0.328125 z m 0,0"
               id="path13599"
               inkscape:connector-curvature="0" />
          </symbol>
        </g>
      </defs>
      <g
         id="textext-b9cb0e0b-2">
        <g
           style="fill:#636363;fill-opacity:1"
           id="g13602">
          <use
             xlink:href="#textext-b9cb0e0b-0"
             x="72"
             y="81.962997"
             id="use13604"
             width="1052.3622"
             height="744.09448" />
        </g>
        <g
           style="fill:#636363;fill-opacity:1"
           id="g13606">
          <use
             xlink:href="#textext-b9cb0e0b-1"
             x="76.718002"
             y="83.457001"
             id="use13608"
             width="1052.3622"
             height="744.09448" />
        </g>
      </g>
    </g>
    <g
       id="g14116"
       transform="matrix(3,0,0,3,431.41518,283.8159)"
       ns0:preamble="/home/marco/MAP/MSQS/Project_Plan/figures/preamble1.tex"
       ns0:text="\\definecolor{grey}{RGB}{100,100,100}\\color{grey}$\\mathbf{r}_{2}$">
      <defs
         id="defs14118">
        <g
           id="g14120">
          <symbol
             style="overflow:visible"
             id="textext-1fd846d2-0"
             overflow="visible">
            <path
               inkscape:connector-curvature="0"
               id="path14123"
               d="m 2.03125,-3.359375 0,-1.125 -1.65625,0.078125 0,0.46875 c 0.609375,0 0.6875,0 0.6875,0.390625 l 0,3.078125 -0.6875,0 0,0.46875 c 0.34375,-0.015625 0.796875,-0.03125 1.25,-0.03125 0.375,0 1.015625,0 1.375,0.03125 l 0,-0.46875 -0.859375,0 0,-1.75 c 0,-0.6875 0.234375,-1.90625 1.234375,-1.90625 0,0.015625 -0.1875,0.171875 -0.1875,0.453125 0,0.40625 0.328125,0.609375 0.609375,0.609375 0.296875,0 0.609375,-0.203125 0.609375,-0.609375 0,-0.53125 -0.53125,-0.8125 -1.0625,-0.8125 -0.6875,0 -1.09375,0.5 -1.3125,1.125 z m 0,0"
               style="stroke:none" />
          </symbol>
          <symbol
             style="overflow:visible"
             id="textext-1fd846d2-1"
             overflow="visible">
            <path
               inkscape:connector-curvature="0"
               id="path14126"
               d="m 3.515625,-1.265625 -0.234375,0 c -0.015625,0.15625 -0.09375,0.5625 -0.1875,0.625 -0.046875,0.046875 -0.578125,0.046875 -0.6875,0.046875 l -1.28125,0 c 0.734375,-0.640625 0.984375,-0.84375 1.390625,-1.171875 0.515625,-0.40625 1,-0.84375 1,-1.5 0,-0.84375 -0.734375,-1.359375 -1.625,-1.359375 -0.859375,0 -1.453125,0.609375 -1.453125,1.25 0,0.34375 0.296875,0.390625 0.375,0.390625 0.15625,0 0.359375,-0.125 0.359375,-0.375 0,-0.125 -0.046875,-0.375 -0.40625,-0.375 C 0.984375,-4.21875 1.453125,-4.375 1.78125,-4.375 c 0.703125,0 1.0625,0.546875 1.0625,1.109375 0,0.609375 -0.4375,1.078125 -0.65625,1.328125 L 0.515625,-0.265625 C 0.4375,-0.203125 0.4375,-0.1875 0.4375,0 l 2.875,0 z m 0,0"
               style="stroke:none" />
          </symbol>
        </g>
      </defs>
      <g
         id="textext-1fd846d2-2">
        <g
           id="g14129"
           style="fill:#636363;fill-opacity:1">
          <use
             height="744.09448"
             width="1052.3622"
             id="use14131"
             y="81.962997"
             x="72"
             xlink:href="#textext-1fd846d2-0" />
        </g>
        <g
           id="g14133"
           style="fill:#636363;fill-opacity:1">
          <use
             height="744.09448"
             width="1052.3622"
             id="use14135"
             y="83.457001"
             x="76.718002"
             xlink:href="#textext-1fd846d2-1" />
        </g>
      </g>
    </g>
    <path
       inkscape:connector-curvature="0"
       id="path14838"
       d="M 384.28572,569.50504 675.71429,330.93361"
       style="fill:none;stroke:#646464;stroke-width:1.5;stroke-linecap:butt;stroke-linejoin:miter;stroke-miterlimit:4;stroke-opacity:1;stroke-dasharray:none;marker-end:url(#Arrow1LendmO)" />
    <path
       style="fill:none;stroke:#646464;stroke-width:1.5;stroke-linecap:butt;stroke-linejoin:miter;stroke-miterlimit:4;stroke-opacity:1;stroke-dasharray:none;marker-end:url(#Arrow1Lendn)"
       d="M 407.14286,600.93361 734.28572,526.6479"
       id="path15584"
       inkscape:connector-curvature="0" />
    <g
       id="g16499"
       transform="matrix(3,0,0,3,331.08706,155.24446)"
       ns0:preamble="/home/marco/MAP/MSQS/Project_Plan/figures/preamble1.tex"
       ns0:text="\\definecolor{grey}{RGB}{100,100,100}\\color{grey}$\\mathbf{r}_{3}$">
      <defs
         id="defs16501">
        <g
           id="g16503">
          <symbol
             style="overflow:visible"
             id="textext-cfe3c762-0"
             overflow="visible">
            <path
               inkscape:connector-curvature="0"
               id="path16506"
               d="m 2.03125,-3.359375 0,-1.125 -1.65625,0.078125 0,0.46875 c 0.609375,0 0.6875,0 0.6875,0.390625 l 0,3.078125 -0.6875,0 0,0.46875 c 0.34375,-0.015625 0.796875,-0.03125 1.25,-0.03125 0.375,0 1.015625,0 1.375,0.03125 l 0,-0.46875 -0.859375,0 0,-1.75 c 0,-0.6875 0.234375,-1.90625 1.234375,-1.90625 0,0.015625 -0.1875,0.171875 -0.1875,0.453125 0,0.40625 0.328125,0.609375 0.609375,0.609375 0.296875,0 0.609375,-0.203125 0.609375,-0.609375 0,-0.53125 -0.53125,-0.8125 -1.0625,-0.8125 -0.6875,0 -1.09375,0.5 -1.3125,1.125 z m 0,0"
               style="stroke:none" />
          </symbol>
          <symbol
             style="overflow:visible"
             id="textext-cfe3c762-1"
             overflow="visible">
            <path
               inkscape:connector-curvature="0"
               id="path16509"
               d="m 1.90625,-2.328125 c 0.546875,0 0.9375,0.375 0.9375,1.125 0,0.859375 -0.515625,1.125 -0.90625,1.125 -0.28125,0 -0.90625,-0.078125 -1.1875,-0.5 0.328125,0 0.40625,-0.234375 0.40625,-0.390625 0,-0.21875 -0.171875,-0.375 -0.390625,-0.375 -0.1875,0 -0.390625,0.125 -0.390625,0.40625 0,0.65625 0.71875,1.078125 1.5625,1.078125 0.96875,0 1.640625,-0.65625 1.640625,-1.34375 0,-0.546875 -0.4375,-1.09375 -1.203125,-1.25 0.71875,-0.265625 0.984375,-0.78125 0.984375,-1.21875 0,-0.546875 -0.625,-0.953125 -1.40625,-0.953125 -0.765625,0 -1.359375,0.375 -1.359375,0.9375 0,0.234375 0.15625,0.359375 0.359375,0.359375 0.21875,0 0.359375,-0.15625 0.359375,-0.34375 0,-0.203125 -0.140625,-0.359375 -0.359375,-0.375 0.25,-0.296875 0.71875,-0.375 0.984375,-0.375 0.3125,0 0.75,0.15625 0.75,0.75 0,0.296875 -0.09375,0.625 -0.28125,0.828125 -0.21875,0.265625 -0.421875,0.28125 -0.765625,0.3125 -0.171875,0.015625 -0.1875,0.015625 -0.21875,0.015625 -0.015625,0 -0.078125,0.015625 -0.078125,0.09375 0,0.09375 0.0625,0.09375 0.1875,0.09375 z m 0,0"
               style="stroke:none" />
          </symbol>
        </g>
      </defs>
      <g
         id="textext-cfe3c762-2">
        <g
           id="g16512"
           style="fill:#636363;fill-opacity:1">
          <use
             height="744.09448"
             width="1052.3622"
             id="use16514"
             y="81.962997"
             x="72"
             xlink:href="#textext-cfe3c762-0" />
        </g>
        <g
           id="g16516"
           style="fill:#636363;fill-opacity:1">
          <use
             height="744.09448"
             width="1052.3622"
             id="use16518"
             y="83.457001"
             x="76.718002"
             xlink:href="#textext-cfe3c762-1" />
        </g>
      </g>
    </g>
    <g
       id="g17748"
       transform="matrix(3,0,0,3,655.37277,125.24447)"
       ns0:preamble="/home/marco/MAP/MSQS/Project_Plan/figures/preamble1.tex"
       ns0:text="\\definecolor{grey}{RGB}{100,100,100}\\color{grey}$\\mathbf{r}_{4}$">
      <defs
         id="defs17750">
        <g
           id="g17752">
          <symbol
             id="textext-c4a1830d-0"
             overflow="visible"
             style="overflow:visible">
            <path
               id="path17755"
               d="m 2.03125,-3.359375 0,-1.125 -1.65625,0.078125 0,0.46875 c 0.609375,0 0.6875,0 0.6875,0.390625 l 0,3.078125 -0.6875,0 0,0.46875 c 0.34375,-0.015625 0.796875,-0.03125 1.25,-0.03125 0.375,0 1.015625,0 1.375,0.03125 l 0,-0.46875 -0.859375,0 0,-1.75 c 0,-0.6875 0.234375,-1.90625 1.234375,-1.90625 0,0.015625 -0.1875,0.171875 -0.1875,0.453125 0,0.40625 0.328125,0.609375 0.609375,0.609375 0.296875,0 0.609375,-0.203125 0.609375,-0.609375 0,-0.53125 -0.53125,-0.8125 -1.0625,-0.8125 -0.6875,0 -1.09375,0.5 -1.3125,1.125 z m 0,0"
               style="stroke:none"
               inkscape:connector-curvature="0" />
          </symbol>
          <symbol
             id="textext-c4a1830d-1"
             overflow="visible"
             style="overflow:visible">
            <path
               id="path17758"
               d="m 3.6875,-1.140625 0,-0.25 -0.78125,0 0,-3.109375 c 0,-0.140625 0,-0.203125 -0.140625,-0.203125 -0.09375,0 -0.125,0 -0.1875,0.109375 l -2.3125,3.203125 0,0.25 2.0625,0 0,0.5625 c 0,0.25 0,0.328125 -0.578125,0.328125 l -0.1875,0 0,0.25 C 1.921875,-0.015625 2.359375,-0.03125 2.609375,-0.03125 2.875,-0.03125 3.3125,-0.015625 3.671875,0 l 0,-0.25 -0.1875,0 C 2.90625,-0.25 2.90625,-0.328125 2.90625,-0.578125 l 0,-0.5625 z M 2.375,-3.9375 l 0,2.546875 -1.84375,0 z m 0,0"
               style="stroke:none"
               inkscape:connector-curvature="0" />
          </symbol>
        </g>
      </defs>
      <g
         id="textext-c4a1830d-2">
        <g
           id="g17761"
           style="fill:#636363;fill-opacity:1">
          <use
             id="use17763"
             y="81.962997"
             x="72"
             xlink:href="#textext-c4a1830d-0"
             width="1052.3622"
             height="744.09448" />
        </g>
        <g
           id="g17765"
           style="fill:#636363;fill-opacity:1">
          <use
             id="use17767"
             y="83.457001"
             x="76.718002"
             xlink:href="#textext-c4a1830d-1"
             width="1052.3622"
             height="744.09448" />
        </g>
      </g>
    </g>
    <path
       style="stroke-linejoin:miter;marker-end:url(#StopLLKC);stroke-opacity:1;marker-start:url(#StopL4bi);stroke:#646464;stroke-linecap:butt;stroke-miterlimit:4;stroke-dasharray:none;stroke-width:2;marker-mid:none;fill:none"
       d="m 167.14286,701.23734 574.28571,0"
       id="path18075"
       inkscape:connector-curvature="0"
       transform="translate(0,308.2677)" />
    <path
       style="stroke-linejoin:miter;marker-end:url(#StopL6PL);stroke-opacity:1;marker-start:url(#StopLKOT);stroke:#646464;stroke-linecap:butt;stroke-miterlimit:4;stroke-dasharray:none;stroke-width:2;fill:none"
       d="m 815.71429,246.95163 0,407.14285"
       id="path20094"
       inkscape:connector-curvature="0"
       transform="translate(0,308.2677)" />
    <path
       style="stroke-linejoin:miter;marker-end:url(#Arrow1Lendq);stroke-opacity:1;marker-start:none;stroke:#646464;stroke-linecap:butt;stroke-miterlimit:4;stroke-dasharray:none;stroke-width:1.50000000000000000;fill:none"
       d="M 200,639.80877 724.28571,244.09448"
       id="path21722"
       inkscape:connector-curvature="0"
       transform="translate(0,308.2677)" />
    <rect
       y="710.60211"
       x="400.17841"
       height="54.908947"
       width="158.21452"
       id="rect17455-6-8"
       style="fill:#ffffff;fill-opacity:1;stroke:#ffffff;stroke-width:0.48933247;stroke-miterlimit:4;stroke-opacity:1;stroke-dasharray:none;stroke-dashoffset:0" />
    <g
       ns0:text="\\definecolor{grey}{RGB}{100,100,100}\\color{grey}$\\mathbf{q}_{1}(s=L)$"
       ns0:preamble="/home/marco/MAP/MSQS/Project_Plan/figures/preamble1.tex"
       transform="matrix(3,0,0,3,192.84374,496.67303)"
       id="g25650">
      <defs
         id="defs25652">
        <g
           id="g25654">
          <symbol
             style="overflow:visible"
             overflow="visible"
             id="textext-91e171ac-0">
            <path
               inkscape:connector-curvature="0"
               style="stroke:none"
               d="m 4.234375,-1.421875 c 0,0.1875 0,0.21875 -0.15625,0.421875 -0.40625,0.59375 -0.90625,0.703125 -1.203125,0.703125 -0.625,0 -1.21875,-0.578125 -1.21875,-1.90625 0,-1.421875 0.734375,-1.890625 1.328125,-1.890625 0.765625,0 1.25,0.796875 1.25,1.296875 z m 0.125,-2.28125 c -0.34375,-0.484375 -0.90625,-0.78125 -1.5,-0.78125 -1.453125,0 -2.484375,0.890625 -2.484375,2.265625 0,1.40625 1.015625,2.28125 2.390625,2.28125 0.5,0 0.9375,-0.140625 1.40625,-0.546875 l 0,1.953125 -0.6875,0 0,0.46875 c 0.28125,-0.015625 0.875,-0.03125 1.25,-0.03125 0.390625,0 0.984375,0.015625 1.25,0.03125 l 0,-0.46875 -0.6875,0 0,-5.953125 -0.40625,0 z m 0,0"
               id="path25657" />
          </symbol>
          <symbol
             style="overflow:visible"
             overflow="visible"
             id="textext-91e171ac-1">
            <path
               inkscape:connector-curvature="0"
               style="stroke:none"
               d="m 2.328125,-4.4375 c 0,-0.1875 0,-0.1875 -0.203125,-0.1875 -0.453125,0.4375 -1.078125,0.4375 -1.359375,0.4375 l 0,0.25 c 0.15625,0 0.625,0 1,-0.1875 l 0,3.546875 c 0,0.234375 0,0.328125 -0.6875,0.328125 l -0.265625,0 0,0.25 c 0.125,0 0.984375,-0.03125 1.234375,-0.03125 0.21875,0 1.09375,0.03125 1.25,0.03125 l 0,-0.25 -0.265625,0 c -0.703125,0 -0.703125,-0.09375 -0.703125,-0.328125 z m 0,0"
               id="path25660" />
          </symbol>
          <symbol
             style="overflow:visible"
             overflow="visible"
             id="textext-91e171ac-2">
            <path
               inkscape:connector-curvature="0"
               style="stroke:none"
               d="m 3.296875,2.390625 c 0,-0.03125 0,-0.046875 -0.171875,-0.21875 C 1.890625,0.921875 1.5625,-0.96875 1.5625,-2.5 c 0,-1.734375 0.375,-3.46875 1.609375,-4.703125 0.125,-0.125 0.125,-0.140625 0.125,-0.171875 0,-0.078125 -0.03125,-0.109375 -0.09375,-0.109375 -0.109375,0 -1,0.6875 -1.59375,1.953125 -0.5,1.09375 -0.625,2.203125 -0.625,3.03125 0,0.78125 0.109375,1.984375 0.65625,3.125 C 2.25,1.84375 3.09375,2.5 3.203125,2.5 c 0.0625,0 0.09375,-0.03125 0.09375,-0.109375 z m 0,0"
               id="path25663" />
          </symbol>
          <symbol
             style="overflow:visible"
             overflow="visible"
             id="textext-91e171ac-3">
            <path
               inkscape:connector-curvature="0"
               style="stroke:none"
               d="m 6.84375,-3.265625 c 0.15625,0 0.34375,0 0.34375,-0.1875 C 7.1875,-3.65625 7,-3.65625 6.859375,-3.65625 l -5.96875,0 c -0.140625,0 -0.328125,0 -0.328125,0.203125 0,0.1875 0.1875,0.1875 0.328125,0.1875 z m 0.015625,1.9375 c 0.140625,0 0.328125,0 0.328125,-0.203125 0,-0.1875 -0.1875,-0.1875 -0.34375,-0.1875 l -5.953125,0 c -0.140625,0 -0.328125,0 -0.328125,0.1875 0,0.203125 0.1875,0.203125 0.328125,0.203125 z m 0,0"
               id="path25666" />
          </symbol>
          <symbol
             style="overflow:visible"
             overflow="visible"
             id="textext-91e171ac-4">
            <path
               inkscape:connector-curvature="0"
               style="stroke:none"
               d="m 2.875,-2.5 c 0,-0.765625 -0.109375,-1.96875 -0.65625,-3.109375 -0.59375,-1.21875 -1.453125,-1.875 -1.546875,-1.875 -0.0625,0 -0.109375,0.046875 -0.109375,0.109375 0,0.03125 0,0.046875 0.1875,0.234375 0.984375,0.984375 1.546875,2.5625 1.546875,4.640625 0,1.71875 -0.359375,3.46875 -1.59375,4.71875 C 0.5625,2.34375 0.5625,2.359375 0.5625,2.390625 0.5625,2.453125 0.609375,2.5 0.671875,2.5 0.765625,2.5 1.671875,1.8125 2.25,0.546875 2.765625,-0.546875 2.875,-1.65625 2.875,-2.5 z m 0,0"
               id="path25669" />
          </symbol>
          <symbol
             style="overflow:visible"
             overflow="visible"
             id="textext-91e171ac-5">
            <path
               inkscape:connector-curvature="0"
               style="stroke:none"
               d="M 3.890625,-3.734375 C 3.625,-3.71875 3.421875,-3.5 3.421875,-3.28125 c 0,0.140625 0.09375,0.296875 0.3125,0.296875 0.21875,0 0.453125,-0.171875 0.453125,-0.5625 C 4.1875,-4 3.765625,-4.40625 3,-4.40625 c -1.3125,0 -1.6875,1.015625 -1.6875,1.453125 0,0.78125 0.734375,0.921875 1.03125,0.984375 0.515625,0.109375 1.03125,0.21875 1.03125,0.765625 0,0.25 -0.21875,1.09375 -1.421875,1.09375 -0.140625,0 -0.90625,0 -1.140625,-0.53125 0.390625,0.046875 0.640625,-0.25 0.640625,-0.53125 0,-0.21875 -0.171875,-0.34375 -0.375,-0.34375 -0.265625,0 -0.5625,0.203125 -0.5625,0.65625 0,0.5625 0.578125,0.96875 1.421875,0.96875 1.625,0 2.015625,-1.203125 2.015625,-1.65625 0,-0.359375 -0.1875,-0.609375 -0.3125,-0.71875 -0.265625,-0.28125 -0.5625,-0.34375 -1,-0.421875 -0.359375,-0.078125 -0.75,-0.15625 -0.75,-0.609375 C 1.890625,-3.578125 2.125,-4.1875 3,-4.1875 c 0.25,0 0.75,0.078125 0.890625,0.453125 z m 0,0"
               id="path25672" />
          </symbol>
          <symbol
             style="overflow:visible"
             overflow="visible"
             id="textext-91e171ac-6">
            <path
               inkscape:connector-curvature="0"
               style="stroke:none"
               d="M 3.734375,-6.03125 C 3.8125,-6.390625 3.84375,-6.5 4.78125,-6.5 c 0.296875,0 0.375,0 0.375,-0.1875 0,-0.125 -0.109375,-0.125 -0.15625,-0.125 -0.328125,0 -1.140625,0.03125 -1.46875,0.03125 -0.296875,0 -1.03125,-0.03125 -1.328125,-0.03125 -0.0625,0 -0.1875,0 -0.1875,0.203125 0,0.109375 0.09375,0.109375 0.28125,0.109375 0.015625,0 0.203125,0 0.375,0.015625 0.171875,0.03125 0.265625,0.03125 0.265625,0.171875 0,0.03125 0,0.0625 -0.03125,0.1875 L 1.5625,-0.78125 c -0.09375,0.390625 -0.109375,0.46875 -0.90625,0.46875 -0.171875,0 -0.265625,0 -0.265625,0.203125 C 0.390625,0 0.484375,0 0.65625,0 l 4.625,0 C 5.515625,0 5.515625,0 5.578125,-0.171875 L 6.375,-2.328125 c 0.03125,-0.109375 0.03125,-0.125 0.03125,-0.140625 0,-0.03125 -0.03125,-0.109375 -0.109375,-0.109375 -0.09375,0 -0.109375,0.0625 -0.171875,0.21875 -0.34375,0.90625 -0.78125,2.046875 -2.5,2.046875 l -0.9375,0 c -0.140625,0 -0.171875,0 -0.21875,0 -0.109375,-0.015625 -0.140625,-0.03125 -0.140625,-0.109375 0,-0.03125 0,-0.046875 0.046875,-0.21875 z m 0,0"
               id="path25675" />
          </symbol>
        </g>
      </defs>
      <g
         id="textext-91e171ac-7">
        <g
           style="fill:#636363;fill-opacity:1"
           id="g25678">
          <use
             height="744.09448"
             width="1052.3622"
             xlink:href="#textext-91e171ac-0"
             x="72"
             y="81.962997"
             id="use25680" />
        </g>
        <g
           style="fill:#636363;fill-opacity:1"
           id="g25682">
          <use
             height="744.09448"
             width="1052.3622"
             xlink:href="#textext-91e171ac-1"
             x="78.046997"
             y="83.457001"
             id="use25684" />
        </g>
        <g
           style="fill:#636363;fill-opacity:1"
           id="g25686">
          <use
             height="744.09448"
             width="1052.3622"
             xlink:href="#textext-91e171ac-2"
             x="82.515999"
             y="81.962997"
             id="use25688" />
        </g>
        <g
           style="fill:#636363;fill-opacity:1"
           id="g25690">
          <use
             height="744.09448"
             width="1052.3622"
             xlink:href="#textext-91e171ac-5"
             x="86.389999"
             y="81.962997"
             id="use25692" />
        </g>
        <g
           style="fill:#636363;fill-opacity:1"
           id="g25694">
          <use
             height="744.09448"
             width="1052.3622"
             xlink:href="#textext-91e171ac-3"
             x="93.828003"
             y="81.962997"
             id="use25696" />
        </g>
        <g
           style="fill:#636363;fill-opacity:1"
           id="g25698">
          <use
             height="744.09448"
             width="1052.3622"
             xlink:href="#textext-91e171ac-6"
             x="104.344"
             y="81.962997"
             id="use25700" />
        </g>
        <g
           style="fill:#636363;fill-opacity:1"
           id="g25702">
          <use
             height="744.09448"
             width="1052.3622"
             xlink:href="#textext-91e171ac-4"
             x="111.124"
             y="81.962997"
             id="use25704" />
        </g>
      </g>
    </g>
    <g
       id="g15095"
       transform="matrix(3,0,0,3,252.90094,753.6987)"
       ns0:preamble="/home/marco/MAP/MSQS/Project_Plan/figures/preamble1.tex"
       ns0:text="\\definecolor{green}{RGB}{100,100,100}\\color{green}$l_{1}$">
      <defs
         id="defs15097">
        <g
           id="g15099">
          <symbol
             id="textext-b7506a54-0"
             overflow="visible">
            <path
               id="path15102"
               d="M 2.578125 -6.8125 C 2.578125 -6.8125 2.578125 -6.921875 2.4375 -6.921875 C 2.21875 -6.921875 1.484375 -6.84375 1.21875 -6.8125 C 1.140625 -6.8125 1.03125 -6.796875 1.03125 -6.609375 C 1.03125 -6.5 1.140625 -6.5 1.28125 -6.5 C 1.765625 -6.5 1.78125 -6.40625 1.78125 -6.328125 L 1.75 -6.125 L 0.484375 -1.140625 C 0.453125 -1.03125 0.4375 -0.96875 0.4375 -0.8125 C 0.4375 -0.234375 0.875 0.109375 1.34375 0.109375 C 1.671875 0.109375 1.921875 -0.09375 2.09375 -0.453125 C 2.265625 -0.828125 2.390625 -1.40625 2.390625 -1.421875 C 2.390625 -1.53125 2.296875 -1.53125 2.265625 -1.53125 C 2.171875 -1.53125 2.15625 -1.484375 2.140625 -1.34375 C 1.96875 -0.703125 1.78125 -0.109375 1.375 -0.109375 C 1.078125 -0.109375 1.078125 -0.421875 1.078125 -0.5625 C 1.078125 -0.8125 1.09375 -0.859375 1.140625 -1.046875 Z M 2.578125 -6.8125 "
               style="stroke:none;" />
          </symbol>
          <symbol
             id="textext-b7506a54-1"
             overflow="visible">
            <path
               id="path15105"
               d="M 2.328125 -4.4375 C 2.328125 -4.625 2.328125 -4.625 2.125 -4.625 C 1.671875 -4.1875 1.046875 -4.1875 0.765625 -4.1875 L 0.765625 -3.9375 C 0.921875 -3.9375 1.390625 -3.9375 1.765625 -4.125 L 1.765625 -0.578125 C 1.765625 -0.34375 1.765625 -0.25 1.078125 -0.25 L 0.8125 -0.25 L 0.8125 0 C 0.9375 0 1.796875 -0.03125 2.046875 -0.03125 C 2.265625 -0.03125 3.140625 0 3.296875 0 L 3.296875 -0.25 L 3.03125 -0.25 C 2.328125 -0.25 2.328125 -0.34375 2.328125 -0.578125 Z M 2.328125 -4.4375 "
               style="stroke:none;" />
          </symbol>
        </g>
      </defs>
      <g
         id="textext-b7506a54-2">
        <g
           id="g15108"
           style="fill:rgb(39.213562%,39.213562%,39.213562%);fill-opacity:1;">
          <use
             id="use15110"
             y="81.963"
             x="72"
             xlink:href="#textext-b7506a54-0" />
        </g>
        <g
           id="g15112"
           style="fill:rgb(39.213562%,39.213562%,39.213562%);fill-opacity:1;">
          <use
             id="use15114"
             y="83.457"
             x="74.973"
             xlink:href="#textext-b7506a54-1" />
        </g>
      </g>
    </g>
    <g
       ns0:text="\\definecolor{green}{RGB}{100,100,100}\\color{green}$h_{1}$"
       ns0:preamble="/home/marco/MAP/MSQS/Project_Plan/figures/preamble1.tex"
       transform="matrix(3,0,0,3,623.76227,513.8348)"
       id="g15816">
      <defs
         id="defs15818">
        <g
           id="g15820">
          <symbol
             overflow="visible"
             id="textext-e293cc39-0">
            <path
               style="stroke:none;"
               d="M 2.859375 -6.8125 C 2.859375 -6.8125 2.859375 -6.921875 2.734375 -6.921875 C 2.5 -6.921875 1.78125 -6.84375 1.515625 -6.8125 C 1.4375 -6.8125 1.328125 -6.796875 1.328125 -6.625 C 1.328125 -6.5 1.421875 -6.5 1.5625 -6.5 C 2.046875 -6.5 2.0625 -6.4375 2.0625 -6.328125 L 2.03125 -6.125 L 0.59375 -0.390625 C 0.546875 -0.25 0.546875 -0.234375 0.546875 -0.171875 C 0.546875 0.0625 0.75 0.109375 0.84375 0.109375 C 1 0.109375 1.15625 -0.015625 1.203125 -0.15625 L 1.390625 -0.90625 L 1.609375 -1.796875 C 1.671875 -2.03125 1.734375 -2.25 1.78125 -2.46875 C 1.796875 -2.53125 1.890625 -2.859375 1.890625 -2.921875 C 1.921875 -3.015625 2.234375 -3.5625 2.578125 -3.84375 C 2.796875 -4 3.09375 -4.1875 3.53125 -4.1875 C 3.953125 -4.1875 4.0625 -3.84375 4.0625 -3.484375 C 4.0625 -2.953125 3.6875 -1.859375 3.453125 -1.25 C 3.375 -1.03125 3.3125 -0.90625 3.3125 -0.703125 C 3.3125 -0.234375 3.671875 0.109375 4.140625 0.109375 C 5.078125 0.109375 5.4375 -1.34375 5.4375 -1.421875 C 5.4375 -1.53125 5.359375 -1.53125 5.328125 -1.53125 C 5.21875 -1.53125 5.21875 -1.5 5.171875 -1.34375 C 5.03125 -0.8125 4.703125 -0.109375 4.15625 -0.109375 C 3.984375 -0.109375 3.921875 -0.203125 3.921875 -0.4375 C 3.921875 -0.6875 4 -0.921875 4.09375 -1.140625 C 4.25 -1.578125 4.703125 -2.765625 4.703125 -3.34375 C 4.703125 -3.984375 4.3125 -4.40625 3.5625 -4.40625 C 2.9375 -4.40625 2.453125 -4.09375 2.078125 -3.640625 Z M 2.859375 -6.8125 "
               id="path15823" />
          </symbol>
          <symbol
             overflow="visible"
             id="textext-e293cc39-1">
            <path
               style="stroke:none;"
               d="M 2.328125 -4.4375 C 2.328125 -4.625 2.328125 -4.625 2.125 -4.625 C 1.671875 -4.1875 1.046875 -4.1875 0.765625 -4.1875 L 0.765625 -3.9375 C 0.921875 -3.9375 1.390625 -3.9375 1.765625 -4.125 L 1.765625 -0.578125 C 1.765625 -0.34375 1.765625 -0.25 1.078125 -0.25 L 0.8125 -0.25 L 0.8125 0 C 0.9375 0 1.796875 -0.03125 2.046875 -0.03125 C 2.265625 -0.03125 3.140625 0 3.296875 0 L 3.296875 -0.25 L 3.03125 -0.25 C 2.328125 -0.25 2.328125 -0.34375 2.328125 -0.578125 Z M 2.328125 -4.4375 "
               id="path15826" />
          </symbol>
        </g>
      </defs>
      <g
         id="textext-e293cc39-2">
        <g
           style="fill:rgb(39.213562%,39.213562%,39.213562%);fill-opacity:1;"
           id="g15829">
          <use
             xlink:href="#textext-e293cc39-0"
             x="72"
             y="81.963"
             id="use15831" />
        </g>
        <g
           style="fill:rgb(39.213562%,39.213562%,39.213562%);fill-opacity:1;"
           id="g15833">
          <use
             xlink:href="#textext-e293cc39-1"
             x="77.74"
             y="83.457"
             id="use15835" />
        </g>
      </g>
    </g>
    <g
       id="g16537"
       transform="matrix(3,0,0,3,-81.360197,740.84156)"
       ns0:preamble="/home/marco/MAP/MSQS/Project_Plan/figures/preamble1.tex"
       ns0:text="\\definecolor{green}{RGB}{100,100,100}\\color{green}$\\mathcal{F}_{1}$">
      <defs
         id="defs16539">
        <g
           id="g16541">
          <symbol
             id="textext-1030c4ca-0"
             overflow="visible">
            <path
               id="path16544"
               d="M 8.28125 -6.4375 C 8.28125 -6.890625 7.5 -6.8125 7.203125 -6.8125 L 3.4375 -6.8125 C 2.9375 -6.8125 2.046875 -6.53125 1.890625 -5.984375 C 1.90625 -5.9375 1.9375 -5.921875 2 -5.921875 C 2.21875 -5.921875 2.515625 -6.09375 2.65625 -6.25 C 2.953125 -6.25 3.265625 -6.265625 3.5625 -6.265625 L 4.1875 -6.265625 C 4.1875 -6.265625 4.140625 -6.09375 4.140625 -6.078125 C 3.765625 -4.25 3.171875 -2.71875 2.734375 -1.734375 C 2.671875 -1.609375 2.140625 -0.359375 2 -0.234375 C 1.5625 -0.234375 1.21875 -0.484375 1.046875 -0.875 C 1.015625 -0.921875 1.015625 -0.96875 0.953125 -0.96875 C 0.71875 -0.96875 0.171875 -0.640625 0.171875 -0.484375 C 0.171875 -0.453125 0.171875 -0.4375 0.1875 -0.421875 C 0.375 0.046875 0.8125 0.3125 1.3125 0.3125 C 1.8125 0.3125 2.40625 -0.046875 2.71875 -0.421875 C 3.046875 -0.796875 3.703125 -2.4375 3.96875 -3.03125 L 5.890625 -3.03125 C 5.875 -3.015625 5.875 -3.015625 5.875 -3 C 5.875 -2.953125 5.9375 -2.9375 5.96875 -2.9375 C 6.1875 -2.9375 6.765625 -3.203125 6.765625 -3.515625 C 6.765625 -3.59375 6.6875 -3.578125 6.5625 -3.578125 L 4.171875 -3.578125 C 4.4375 -4.46875 4.78125 -5.359375 4.953125 -6.265625 L 6.265625 -6.265625 C 6.515625 -6.265625 7.21875 -6.3125 7.390625 -6.09375 C 7.421875 -6.046875 7.390625 -5.9375 7.421875 -5.890625 C 7.4375 -5.875 7.46875 -5.859375 7.5 -5.859375 C 7.734375 -5.859375 8.28125 -6.15625 8.28125 -6.4375 Z M 8.28125 -6.4375 "
               style="stroke:none;" />
          </symbol>
          <symbol
             id="textext-1030c4ca-1"
             overflow="visible">
            <path
               id="path16547"
               d="M 2.328125 -4.4375 C 2.328125 -4.625 2.328125 -4.625 2.125 -4.625 C 1.671875 -4.1875 1.046875 -4.1875 0.765625 -4.1875 L 0.765625 -3.9375 C 0.921875 -3.9375 1.390625 -3.9375 1.765625 -4.125 L 1.765625 -0.578125 C 1.765625 -0.34375 1.765625 -0.25 1.078125 -0.25 L 0.8125 -0.25 L 0.8125 0 C 0.9375 0 1.796875 -0.03125 2.046875 -0.03125 C 2.265625 -0.03125 3.140625 0 3.296875 0 L 3.296875 -0.25 L 3.03125 -0.25 C 2.328125 -0.25 2.328125 -0.34375 2.328125 -0.578125 Z M 2.328125 -4.4375 "
               style="stroke:none;" />
          </symbol>
        </g>
      </defs>
      <g
         id="textext-1030c4ca-2">
        <g
           id="g16550"
           style="fill:rgb(39.213562%,39.213562%,39.213562%);fill-opacity:1;">
          <use
             id="use16552"
             y="81.963"
             x="72"
             xlink:href="#textext-1030c4ca-0" />
        </g>
        <g
           id="g16554"
           style="fill:rgb(39.213562%,39.213562%,39.213562%);fill-opacity:1;">
          <use
             id="use16556"
             y="83.457"
             x="79.161"
             xlink:href="#textext-1030c4ca-1" />
        </g>
      </g>
    </g>
    <g
       ns0:text="\\definecolor{green}{RGB}{100,100,100}\\color{green}$z_{1}$"
       ns0:preamble="/home/marco/MAP/MSQS/Project_Plan/figures/preamble1.tex"
       transform="matrix(3,0,0,3,-40.946442,629.99707)"
       id="g17258">
      <defs
         id="defs17260">
        <g
           id="g17262">
          <symbol
             overflow="visible"
             id="textext-d2a7a7be-0">
            <path
               style="stroke:none;"
               d="M 1.328125 -0.828125 C 1.859375 -1.40625 2.15625 -1.65625 2.515625 -1.96875 C 2.515625 -1.96875 3.125 -2.5 3.484375 -2.859375 C 4.4375 -3.78125 4.65625 -4.265625 4.65625 -4.3125 C 4.65625 -4.40625 4.5625 -4.40625 4.546875 -4.40625 C 4.46875 -4.40625 4.453125 -4.390625 4.390625 -4.296875 C 4.09375 -3.8125 3.890625 -3.65625 3.65625 -3.65625 C 3.40625 -3.65625 3.296875 -3.8125 3.140625 -3.984375 C 2.953125 -4.203125 2.78125 -4.40625 2.453125 -4.40625 C 1.703125 -4.40625 1.25 -3.484375 1.25 -3.265625 C 1.25 -3.21875 1.28125 -3.15625 1.359375 -3.15625 C 1.453125 -3.15625 1.46875 -3.203125 1.5 -3.265625 C 1.6875 -3.734375 2.265625 -3.734375 2.34375 -3.734375 C 2.546875 -3.734375 2.734375 -3.671875 2.96875 -3.59375 C 3.375 -3.4375 3.484375 -3.4375 3.734375 -3.4375 C 3.375 -3.015625 2.546875 -2.296875 2.359375 -2.140625 L 1.453125 -1.296875 C 0.78125 -0.625 0.421875 -0.0625 0.421875 0.015625 C 0.421875 0.109375 0.53125 0.109375 0.546875 0.109375 C 0.625 0.109375 0.640625 0.09375 0.703125 -0.015625 C 0.9375 -0.375 1.234375 -0.640625 1.5625 -0.640625 C 1.78125 -0.640625 1.890625 -0.546875 2.140625 -0.265625 C 2.296875 -0.046875 2.484375 0.109375 2.765625 0.109375 C 3.765625 0.109375 4.34375 -1.15625 4.34375 -1.421875 C 4.34375 -1.46875 4.296875 -1.53125 4.21875 -1.53125 C 4.125 -1.53125 4.109375 -1.46875 4.078125 -1.390625 C 3.84375 -0.75 3.203125 -0.5625 2.875 -0.5625 C 2.6875 -0.5625 2.5 -0.625 2.296875 -0.6875 C 1.953125 -0.8125 1.796875 -0.859375 1.59375 -0.859375 C 1.578125 -0.859375 1.421875 -0.859375 1.328125 -0.828125 Z M 1.328125 -0.828125 "
               id="path17265" />
          </symbol>
          <symbol
             overflow="visible"
             id="textext-d2a7a7be-1">
            <path
               style="stroke:none;"
               d="M 2.328125 -4.4375 C 2.328125 -4.625 2.328125 -4.625 2.125 -4.625 C 1.671875 -4.1875 1.046875 -4.1875 0.765625 -4.1875 L 0.765625 -3.9375 C 0.921875 -3.9375 1.390625 -3.9375 1.765625 -4.125 L 1.765625 -0.578125 C 1.765625 -0.34375 1.765625 -0.25 1.078125 -0.25 L 0.8125 -0.25 L 0.8125 0 C 0.9375 0 1.796875 -0.03125 2.046875 -0.03125 C 2.265625 -0.03125 3.140625 0 3.296875 0 L 3.296875 -0.25 L 3.03125 -0.25 C 2.328125 -0.25 2.328125 -0.34375 2.328125 -0.578125 Z M 2.328125 -4.4375 "
               id="path17268" />
          </symbol>
        </g>
      </defs>
      <g
         id="textext-d2a7a7be-2">
        <g
           style="fill:rgb(39.213562%,39.213562%,39.213562%);fill-opacity:1;"
           id="g17271">
          <use
             xlink:href="#textext-d2a7a7be-0"
             x="72"
             y="81.963"
             id="use17273" />
        </g>
        <g
           style="fill:rgb(39.213562%,39.213562%,39.213562%);fill-opacity:1;"
           id="g17275">
          <use
             xlink:href="#textext-d2a7a7be-1"
             x="76.633"
             y="83.457"
             id="use17277" />
        </g>
      </g>
    </g>
    <g
       id="g17979"
       transform="matrix(3,0,0,3,35.714286,735.71429)"
       ns0:preamble="/home/marco/MAP/MSQS/Project_Plan/figures/preamble1.tex"
       ns0:text="\\definecolor{green}{RGB}{100,100,100}\\color{green}$x_{1}$">
      <defs
         id="defs17981">
        <g
           id="g17983">
          <symbol
             id="textext-4e44174e-0"
             overflow="visible">
            <path
               id="path17986"
               d="M 3.328125 -3.015625 C 3.390625 -3.265625 3.625 -4.1875 4.3125 -4.1875 C 4.359375 -4.1875 4.609375 -4.1875 4.8125 -4.0625 C 4.53125 -4 4.34375 -3.765625 4.34375 -3.515625 C 4.34375 -3.359375 4.453125 -3.171875 4.71875 -3.171875 C 4.9375 -3.171875 5.25 -3.34375 5.25 -3.75 C 5.25 -4.265625 4.671875 -4.40625 4.328125 -4.40625 C 3.75 -4.40625 3.40625 -3.875 3.28125 -3.65625 C 3.03125 -4.3125 2.5 -4.40625 2.203125 -4.40625 C 1.171875 -4.40625 0.59375 -3.125 0.59375 -2.875 C 0.59375 -2.765625 0.703125 -2.765625 0.71875 -2.765625 C 0.796875 -2.765625 0.828125 -2.796875 0.84375 -2.875 C 1.1875 -3.9375 1.84375 -4.1875 2.1875 -4.1875 C 2.375 -4.1875 2.71875 -4.09375 2.71875 -3.515625 C 2.71875 -3.203125 2.546875 -2.546875 2.1875 -1.140625 C 2.03125 -0.53125 1.671875 -0.109375 1.234375 -0.109375 C 1.171875 -0.109375 0.953125 -0.109375 0.734375 -0.234375 C 0.984375 -0.296875 1.203125 -0.5 1.203125 -0.78125 C 1.203125 -1.046875 0.984375 -1.125 0.84375 -1.125 C 0.53125 -1.125 0.296875 -0.875 0.296875 -0.546875 C 0.296875 -0.09375 0.78125 0.109375 1.21875 0.109375 C 1.890625 0.109375 2.25 -0.59375 2.265625 -0.640625 C 2.390625 -0.28125 2.75 0.109375 3.34375 0.109375 C 4.375 0.109375 4.9375 -1.171875 4.9375 -1.421875 C 4.9375 -1.53125 4.859375 -1.53125 4.828125 -1.53125 C 4.734375 -1.53125 4.71875 -1.484375 4.6875 -1.421875 C 4.359375 -0.34375 3.6875 -0.109375 3.375 -0.109375 C 2.984375 -0.109375 2.828125 -0.421875 2.828125 -0.765625 C 2.828125 -0.984375 2.875 -1.203125 2.984375 -1.640625 Z M 3.328125 -3.015625 "
               style="stroke:none;" />
          </symbol>
          <symbol
             id="textext-4e44174e-1"
             overflow="visible">
            <path
               id="path17989"
               d="M 2.328125 -4.4375 C 2.328125 -4.625 2.328125 -4.625 2.125 -4.625 C 1.671875 -4.1875 1.046875 -4.1875 0.765625 -4.1875 L 0.765625 -3.9375 C 0.921875 -3.9375 1.390625 -3.9375 1.765625 -4.125 L 1.765625 -0.578125 C 1.765625 -0.34375 1.765625 -0.25 1.078125 -0.25 L 0.8125 -0.25 L 0.8125 0 C 0.9375 0 1.796875 -0.03125 2.046875 -0.03125 C 2.265625 -0.03125 3.140625 0 3.296875 0 L 3.296875 -0.25 L 3.03125 -0.25 C 2.328125 -0.25 2.328125 -0.34375 2.328125 -0.578125 Z M 2.328125 -4.4375 "
               style="stroke:none;" />
          </symbol>
        </g>
      </defs>
      <g
         id="textext-4e44174e-2">
        <g
           id="g17992"
           style="fill:rgb(39.213562%,39.213562%,39.213562%);fill-opacity:1;">
          <use
             id="use17994"
             y="81.963"
             x="72"
             xlink:href="#textext-4e44174e-0" />
        </g>
        <g
           id="g17996"
           style="fill:rgb(39.213562%,39.213562%,39.213562%);fill-opacity:1;">
          <use
             id="use17998"
             y="83.457"
             x="77.694"
             xlink:href="#textext-4e44174e-1" />
        </g>
      </g>
    </g>
    <g
       ns0:text="\\definecolor{green}{RGB}{100,100,100}\\color{green}$x_{2}$"
       ns0:preamble="/home/marco/MAP/MSQS/Project_Plan/figures/preamble1.tex"
       transform="matrix(3,0,0,3,422.27422,161.79136)"
       id="g18700">
      <defs
         id="defs18702">
        <g
           id="g18704">
          <symbol
             overflow="visible"
             id="textext-d54198d6-0">
            <path
               style="stroke:none;"
               d="M 3.328125 -3.015625 C 3.390625 -3.265625 3.625 -4.1875 4.3125 -4.1875 C 4.359375 -4.1875 4.609375 -4.1875 4.8125 -4.0625 C 4.53125 -4 4.34375 -3.765625 4.34375 -3.515625 C 4.34375 -3.359375 4.453125 -3.171875 4.71875 -3.171875 C 4.9375 -3.171875 5.25 -3.34375 5.25 -3.75 C 5.25 -4.265625 4.671875 -4.40625 4.328125 -4.40625 C 3.75 -4.40625 3.40625 -3.875 3.28125 -3.65625 C 3.03125 -4.3125 2.5 -4.40625 2.203125 -4.40625 C 1.171875 -4.40625 0.59375 -3.125 0.59375 -2.875 C 0.59375 -2.765625 0.703125 -2.765625 0.71875 -2.765625 C 0.796875 -2.765625 0.828125 -2.796875 0.84375 -2.875 C 1.1875 -3.9375 1.84375 -4.1875 2.1875 -4.1875 C 2.375 -4.1875 2.71875 -4.09375 2.71875 -3.515625 C 2.71875 -3.203125 2.546875 -2.546875 2.1875 -1.140625 C 2.03125 -0.53125 1.671875 -0.109375 1.234375 -0.109375 C 1.171875 -0.109375 0.953125 -0.109375 0.734375 -0.234375 C 0.984375 -0.296875 1.203125 -0.5 1.203125 -0.78125 C 1.203125 -1.046875 0.984375 -1.125 0.84375 -1.125 C 0.53125 -1.125 0.296875 -0.875 0.296875 -0.546875 C 0.296875 -0.09375 0.78125 0.109375 1.21875 0.109375 C 1.890625 0.109375 2.25 -0.59375 2.265625 -0.640625 C 2.390625 -0.28125 2.75 0.109375 3.34375 0.109375 C 4.375 0.109375 4.9375 -1.171875 4.9375 -1.421875 C 4.9375 -1.53125 4.859375 -1.53125 4.828125 -1.53125 C 4.734375 -1.53125 4.71875 -1.484375 4.6875 -1.421875 C 4.359375 -0.34375 3.6875 -0.109375 3.375 -0.109375 C 2.984375 -0.109375 2.828125 -0.421875 2.828125 -0.765625 C 2.828125 -0.984375 2.875 -1.203125 2.984375 -1.640625 Z M 3.328125 -3.015625 "
               id="path18707" />
          </symbol>
          <symbol
             overflow="visible"
             id="textext-d54198d6-1">
            <path
               style="stroke:none;"
               d="M 3.515625 -1.265625 L 3.28125 -1.265625 C 3.265625 -1.109375 3.1875 -0.703125 3.09375 -0.640625 C 3.046875 -0.59375 2.515625 -0.59375 2.40625 -0.59375 L 1.125 -0.59375 C 1.859375 -1.234375 2.109375 -1.4375 2.515625 -1.765625 C 3.03125 -2.171875 3.515625 -2.609375 3.515625 -3.265625 C 3.515625 -4.109375 2.78125 -4.625 1.890625 -4.625 C 1.03125 -4.625 0.4375 -4.015625 0.4375 -3.375 C 0.4375 -3.03125 0.734375 -2.984375 0.8125 -2.984375 C 0.96875 -2.984375 1.171875 -3.109375 1.171875 -3.359375 C 1.171875 -3.484375 1.125 -3.734375 0.765625 -3.734375 C 0.984375 -4.21875 1.453125 -4.375 1.78125 -4.375 C 2.484375 -4.375 2.84375 -3.828125 2.84375 -3.265625 C 2.84375 -2.65625 2.40625 -2.1875 2.1875 -1.9375 L 0.515625 -0.265625 C 0.4375 -0.203125 0.4375 -0.1875 0.4375 0 L 3.3125 0 Z M 3.515625 -1.265625 "
               id="path18710" />
          </symbol>
        </g>
      </defs>
      <g
         id="textext-d54198d6-2">
        <g
           style="fill:rgb(39.213562%,39.213562%,39.213562%);fill-opacity:1;"
           id="g18713">
          <use
             xlink:href="#textext-d54198d6-0"
             x="72"
             y="81.963"
             id="use18715" />
        </g>
        <g
           style="fill:rgb(39.213562%,39.213562%,39.213562%);fill-opacity:1;"
           id="g18717">
          <use
             xlink:href="#textext-d54198d6-1"
             x="77.694"
             y="83.457"
             id="use18719" />
        </g>
      </g>
    </g>
    <g
       id="g19421"
       transform="matrix(3,0,0,3,508.76947,158.43022)"
       ns0:preamble="/home/marco/MAP/MSQS/Project_Plan/figures/preamble1.tex"
       ns0:text="\\definecolor{green}{RGB}{100,100,100}\\color{green}$z_{2}$">
      <defs
         id="defs19423">
        <g
           id="g19425">
          <symbol
             id="textext-5ba2ffa5-0"
             overflow="visible">
            <path
               id="path19428"
               d="M 1.328125 -0.828125 C 1.859375 -1.40625 2.15625 -1.65625 2.515625 -1.96875 C 2.515625 -1.96875 3.125 -2.5 3.484375 -2.859375 C 4.4375 -3.78125 4.65625 -4.265625 4.65625 -4.3125 C 4.65625 -4.40625 4.5625 -4.40625 4.546875 -4.40625 C 4.46875 -4.40625 4.453125 -4.390625 4.390625 -4.296875 C 4.09375 -3.8125 3.890625 -3.65625 3.65625 -3.65625 C 3.40625 -3.65625 3.296875 -3.8125 3.140625 -3.984375 C 2.953125 -4.203125 2.78125 -4.40625 2.453125 -4.40625 C 1.703125 -4.40625 1.25 -3.484375 1.25 -3.265625 C 1.25 -3.21875 1.28125 -3.15625 1.359375 -3.15625 C 1.453125 -3.15625 1.46875 -3.203125 1.5 -3.265625 C 1.6875 -3.734375 2.265625 -3.734375 2.34375 -3.734375 C 2.546875 -3.734375 2.734375 -3.671875 2.96875 -3.59375 C 3.375 -3.4375 3.484375 -3.4375 3.734375 -3.4375 C 3.375 -3.015625 2.546875 -2.296875 2.359375 -2.140625 L 1.453125 -1.296875 C 0.78125 -0.625 0.421875 -0.0625 0.421875 0.015625 C 0.421875 0.109375 0.53125 0.109375 0.546875 0.109375 C 0.625 0.109375 0.640625 0.09375 0.703125 -0.015625 C 0.9375 -0.375 1.234375 -0.640625 1.5625 -0.640625 C 1.78125 -0.640625 1.890625 -0.546875 2.140625 -0.265625 C 2.296875 -0.046875 2.484375 0.109375 2.765625 0.109375 C 3.765625 0.109375 4.34375 -1.15625 4.34375 -1.421875 C 4.34375 -1.46875 4.296875 -1.53125 4.21875 -1.53125 C 4.125 -1.53125 4.109375 -1.46875 4.078125 -1.390625 C 3.84375 -0.75 3.203125 -0.5625 2.875 -0.5625 C 2.6875 -0.5625 2.5 -0.625 2.296875 -0.6875 C 1.953125 -0.8125 1.796875 -0.859375 1.59375 -0.859375 C 1.578125 -0.859375 1.421875 -0.859375 1.328125 -0.828125 Z M 1.328125 -0.828125 "
               style="stroke:none;" />
          </symbol>
          <symbol
             id="textext-5ba2ffa5-1"
             overflow="visible">
            <path
               id="path19431"
               d="M 3.515625 -1.265625 L 3.28125 -1.265625 C 3.265625 -1.109375 3.1875 -0.703125 3.09375 -0.640625 C 3.046875 -0.59375 2.515625 -0.59375 2.40625 -0.59375 L 1.125 -0.59375 C 1.859375 -1.234375 2.109375 -1.4375 2.515625 -1.765625 C 3.03125 -2.171875 3.515625 -2.609375 3.515625 -3.265625 C 3.515625 -4.109375 2.78125 -4.625 1.890625 -4.625 C 1.03125 -4.625 0.4375 -4.015625 0.4375 -3.375 C 0.4375 -3.03125 0.734375 -2.984375 0.8125 -2.984375 C 0.96875 -2.984375 1.171875 -3.109375 1.171875 -3.359375 C 1.171875 -3.484375 1.125 -3.734375 0.765625 -3.734375 C 0.984375 -4.21875 1.453125 -4.375 1.78125 -4.375 C 2.484375 -4.375 2.84375 -3.828125 2.84375 -3.265625 C 2.84375 -2.65625 2.40625 -2.1875 2.1875 -1.9375 L 0.515625 -0.265625 C 0.4375 -0.203125 0.4375 -0.1875 0.4375 0 L 3.3125 0 Z M 3.515625 -1.265625 "
               style="stroke:none;" />
          </symbol>
        </g>
      </defs>
      <g
         id="textext-5ba2ffa5-2">
        <g
           id="g19434"
           style="fill:rgb(39.213562%,39.213562%,39.213562%);fill-opacity:1;">
          <use
             id="use19436"
             y="81.963"
             x="72"
             xlink:href="#textext-5ba2ffa5-0" />
        </g>
        <g
           id="g19438"
           style="fill:rgb(39.213562%,39.213562%,39.213562%);fill-opacity:1;">
          <use
             id="use19440"
             y="83.457"
             x="76.633"
             xlink:href="#textext-5ba2ffa5-1" />
        </g>
      </g>
    </g>
    <g
       ns0:text="\\definecolor{green}{RGB}{100,100,100}\\color{green}$\\mathcal{F}_{2}$"
       ns0:preamble="/home/marco/MAP/MSQS/Project_Plan/figures/preamble1.tex"
       transform="matrix(3,0,0,3,509.74025,247.98442)"
       id="g20142">
      <defs
         id="defs20144">
        <g
           id="g20146">
          <symbol
             overflow="visible"
             id="textext-31bea57d-0">
            <path
               style="stroke:none;"
               d="M 8.28125 -6.4375 C 8.28125 -6.890625 7.5 -6.8125 7.203125 -6.8125 L 3.4375 -6.8125 C 2.9375 -6.8125 2.046875 -6.53125 1.890625 -5.984375 C 1.90625 -5.9375 1.9375 -5.921875 2 -5.921875 C 2.21875 -5.921875 2.515625 -6.09375 2.65625 -6.25 C 2.953125 -6.25 3.265625 -6.265625 3.5625 -6.265625 L 4.1875 -6.265625 C 4.1875 -6.265625 4.140625 -6.09375 4.140625 -6.078125 C 3.765625 -4.25 3.171875 -2.71875 2.734375 -1.734375 C 2.671875 -1.609375 2.140625 -0.359375 2 -0.234375 C 1.5625 -0.234375 1.21875 -0.484375 1.046875 -0.875 C 1.015625 -0.921875 1.015625 -0.96875 0.953125 -0.96875 C 0.71875 -0.96875 0.171875 -0.640625 0.171875 -0.484375 C 0.171875 -0.453125 0.171875 -0.4375 0.1875 -0.421875 C 0.375 0.046875 0.8125 0.3125 1.3125 0.3125 C 1.8125 0.3125 2.40625 -0.046875 2.71875 -0.421875 C 3.046875 -0.796875 3.703125 -2.4375 3.96875 -3.03125 L 5.890625 -3.03125 C 5.875 -3.015625 5.875 -3.015625 5.875 -3 C 5.875 -2.953125 5.9375 -2.9375 5.96875 -2.9375 C 6.1875 -2.9375 6.765625 -3.203125 6.765625 -3.515625 C 6.765625 -3.59375 6.6875 -3.578125 6.5625 -3.578125 L 4.171875 -3.578125 C 4.4375 -4.46875 4.78125 -5.359375 4.953125 -6.265625 L 6.265625 -6.265625 C 6.515625 -6.265625 7.21875 -6.3125 7.390625 -6.09375 C 7.421875 -6.046875 7.390625 -5.9375 7.421875 -5.890625 C 7.4375 -5.875 7.46875 -5.859375 7.5 -5.859375 C 7.734375 -5.859375 8.28125 -6.15625 8.28125 -6.4375 Z M 8.28125 -6.4375 "
               id="path20149" />
          </symbol>
          <symbol
             overflow="visible"
             id="textext-31bea57d-1">
            <path
               style="stroke:none;"
               d="M 3.515625 -1.265625 L 3.28125 -1.265625 C 3.265625 -1.109375 3.1875 -0.703125 3.09375 -0.640625 C 3.046875 -0.59375 2.515625 -0.59375 2.40625 -0.59375 L 1.125 -0.59375 C 1.859375 -1.234375 2.109375 -1.4375 2.515625 -1.765625 C 3.03125 -2.171875 3.515625 -2.609375 3.515625 -3.265625 C 3.515625 -4.109375 2.78125 -4.625 1.890625 -4.625 C 1.03125 -4.625 0.4375 -4.015625 0.4375 -3.375 C 0.4375 -3.03125 0.734375 -2.984375 0.8125 -2.984375 C 0.96875 -2.984375 1.171875 -3.109375 1.171875 -3.359375 C 1.171875 -3.484375 1.125 -3.734375 0.765625 -3.734375 C 0.984375 -4.21875 1.453125 -4.375 1.78125 -4.375 C 2.484375 -4.375 2.84375 -3.828125 2.84375 -3.265625 C 2.84375 -2.65625 2.40625 -2.1875 2.1875 -1.9375 L 0.515625 -0.265625 C 0.4375 -0.203125 0.4375 -0.1875 0.4375 0 L 3.3125 0 Z M 3.515625 -1.265625 "
               id="path20152" />
          </symbol>
        </g>
      </defs>
      <g
         id="textext-31bea57d-2">
        <g
           style="fill:rgb(39.213562%,39.213562%,39.213562%);fill-opacity:1;"
           id="g20155">
          <use
             xlink:href="#textext-31bea57d-0"
             x="72"
             y="81.963"
             id="use20157" />
        </g>
        <g
           style="fill:rgb(39.213562%,39.213562%,39.213562%);fill-opacity:1;"
           id="g20159">
          <use
             xlink:href="#textext-31bea57d-1"
             x="79.161"
             y="83.457"
             id="use20161" />
        </g>
      </g>
    </g>
    <g
       id="g20863"
       transform="matrix(3,0,0,3,714.72973,228.7921)"
       ns0:preamble="/home/marco/MAP/MSQS/Project_Plan/figures/preamble1.tex"
       ns0:text="\\definecolor{green}{RGB}{100,100,100}\\color{green}$x_{3}$">
      <defs
         id="defs20865">
        <g
           id="g20867">
          <symbol
             id="textext-8247d745-0"
             overflow="visible">
            <path
               id="path20870"
               d="M 3.328125 -3.015625 C 3.390625 -3.265625 3.625 -4.1875 4.3125 -4.1875 C 4.359375 -4.1875 4.609375 -4.1875 4.8125 -4.0625 C 4.53125 -4 4.34375 -3.765625 4.34375 -3.515625 C 4.34375 -3.359375 4.453125 -3.171875 4.71875 -3.171875 C 4.9375 -3.171875 5.25 -3.34375 5.25 -3.75 C 5.25 -4.265625 4.671875 -4.40625 4.328125 -4.40625 C 3.75 -4.40625 3.40625 -3.875 3.28125 -3.65625 C 3.03125 -4.3125 2.5 -4.40625 2.203125 -4.40625 C 1.171875 -4.40625 0.59375 -3.125 0.59375 -2.875 C 0.59375 -2.765625 0.703125 -2.765625 0.71875 -2.765625 C 0.796875 -2.765625 0.828125 -2.796875 0.84375 -2.875 C 1.1875 -3.9375 1.84375 -4.1875 2.1875 -4.1875 C 2.375 -4.1875 2.71875 -4.09375 2.71875 -3.515625 C 2.71875 -3.203125 2.546875 -2.546875 2.1875 -1.140625 C 2.03125 -0.53125 1.671875 -0.109375 1.234375 -0.109375 C 1.171875 -0.109375 0.953125 -0.109375 0.734375 -0.234375 C 0.984375 -0.296875 1.203125 -0.5 1.203125 -0.78125 C 1.203125 -1.046875 0.984375 -1.125 0.84375 -1.125 C 0.53125 -1.125 0.296875 -0.875 0.296875 -0.546875 C 0.296875 -0.09375 0.78125 0.109375 1.21875 0.109375 C 1.890625 0.109375 2.25 -0.59375 2.265625 -0.640625 C 2.390625 -0.28125 2.75 0.109375 3.34375 0.109375 C 4.375 0.109375 4.9375 -1.171875 4.9375 -1.421875 C 4.9375 -1.53125 4.859375 -1.53125 4.828125 -1.53125 C 4.734375 -1.53125 4.71875 -1.484375 4.6875 -1.421875 C 4.359375 -0.34375 3.6875 -0.109375 3.375 -0.109375 C 2.984375 -0.109375 2.828125 -0.421875 2.828125 -0.765625 C 2.828125 -0.984375 2.875 -1.203125 2.984375 -1.640625 Z M 3.328125 -3.015625 "
               style="stroke:none;" />
          </symbol>
          <symbol
             id="textext-8247d745-1"
             overflow="visible">
            <path
               id="path20873"
               d="M 1.90625 -2.328125 C 2.453125 -2.328125 2.84375 -1.953125 2.84375 -1.203125 C 2.84375 -0.34375 2.328125 -0.078125 1.9375 -0.078125 C 1.65625 -0.078125 1.03125 -0.15625 0.75 -0.578125 C 1.078125 -0.578125 1.15625 -0.8125 1.15625 -0.96875 C 1.15625 -1.1875 0.984375 -1.34375 0.765625 -1.34375 C 0.578125 -1.34375 0.375 -1.21875 0.375 -0.9375 C 0.375 -0.28125 1.09375 0.140625 1.9375 0.140625 C 2.90625 0.140625 3.578125 -0.515625 3.578125 -1.203125 C 3.578125 -1.75 3.140625 -2.296875 2.375 -2.453125 C 3.09375 -2.71875 3.359375 -3.234375 3.359375 -3.671875 C 3.359375 -4.21875 2.734375 -4.625 1.953125 -4.625 C 1.1875 -4.625 0.59375 -4.25 0.59375 -3.6875 C 0.59375 -3.453125 0.75 -3.328125 0.953125 -3.328125 C 1.171875 -3.328125 1.3125 -3.484375 1.3125 -3.671875 C 1.3125 -3.875 1.171875 -4.03125 0.953125 -4.046875 C 1.203125 -4.34375 1.671875 -4.421875 1.9375 -4.421875 C 2.25 -4.421875 2.6875 -4.265625 2.6875 -3.671875 C 2.6875 -3.375 2.59375 -3.046875 2.40625 -2.84375 C 2.1875 -2.578125 1.984375 -2.5625 1.640625 -2.53125 C 1.46875 -2.515625 1.453125 -2.515625 1.421875 -2.515625 C 1.40625 -2.515625 1.34375 -2.5 1.34375 -2.421875 C 1.34375 -2.328125 1.40625 -2.328125 1.53125 -2.328125 Z M 1.90625 -2.328125 "
               style="stroke:none;" />
          </symbol>
        </g>
      </defs>
      <g
         id="textext-8247d745-2">
        <g
           id="g20876"
           style="fill:rgb(39.213562%,39.213562%,39.213562%);fill-opacity:1;">
          <use
             id="use20878"
             y="81.963"
             x="72"
             xlink:href="#textext-8247d745-0" />
        </g>
        <g
           id="g20880"
           style="fill:rgb(39.213562%,39.213562%,39.213562%);fill-opacity:1;">
          <use
             id="use20882"
             y="83.457"
             x="77.694"
             xlink:href="#textext-8247d745-1" />
        </g>
      </g>
    </g>
    <g
       ns0:text="\\definecolor{green}{RGB}{100,100,100}\\color{green}$\\mathcal{F}_{3}$"
       ns0:preamble="/home/marco/MAP/MSQS/Project_Plan/figures/preamble1.tex"
       transform="matrix(3,0,0,3,626.78936,283.48777)"
       id="g21584">
      <defs
         id="defs21586">
        <g
           id="g21588">
          <symbol
             overflow="visible"
             id="textext-7c95cb8f-0">
            <path
               style="stroke:none;"
               d="M 8.28125 -6.4375 C 8.28125 -6.890625 7.5 -6.8125 7.203125 -6.8125 L 3.4375 -6.8125 C 2.9375 -6.8125 2.046875 -6.53125 1.890625 -5.984375 C 1.90625 -5.9375 1.9375 -5.921875 2 -5.921875 C 2.21875 -5.921875 2.515625 -6.09375 2.65625 -6.25 C 2.953125 -6.25 3.265625 -6.265625 3.5625 -6.265625 L 4.1875 -6.265625 C 4.1875 -6.265625 4.140625 -6.09375 4.140625 -6.078125 C 3.765625 -4.25 3.171875 -2.71875 2.734375 -1.734375 C 2.671875 -1.609375 2.140625 -0.359375 2 -0.234375 C 1.5625 -0.234375 1.21875 -0.484375 1.046875 -0.875 C 1.015625 -0.921875 1.015625 -0.96875 0.953125 -0.96875 C 0.71875 -0.96875 0.171875 -0.640625 0.171875 -0.484375 C 0.171875 -0.453125 0.171875 -0.4375 0.1875 -0.421875 C 0.375 0.046875 0.8125 0.3125 1.3125 0.3125 C 1.8125 0.3125 2.40625 -0.046875 2.71875 -0.421875 C 3.046875 -0.796875 3.703125 -2.4375 3.96875 -3.03125 L 5.890625 -3.03125 C 5.875 -3.015625 5.875 -3.015625 5.875 -3 C 5.875 -2.953125 5.9375 -2.9375 5.96875 -2.9375 C 6.1875 -2.9375 6.765625 -3.203125 6.765625 -3.515625 C 6.765625 -3.59375 6.6875 -3.578125 6.5625 -3.578125 L 4.171875 -3.578125 C 4.4375 -4.46875 4.78125 -5.359375 4.953125 -6.265625 L 6.265625 -6.265625 C 6.515625 -6.265625 7.21875 -6.3125 7.390625 -6.09375 C 7.421875 -6.046875 7.390625 -5.9375 7.421875 -5.890625 C 7.4375 -5.875 7.46875 -5.859375 7.5 -5.859375 C 7.734375 -5.859375 8.28125 -6.15625 8.28125 -6.4375 Z M 8.28125 -6.4375 "
               id="path21591" />
          </symbol>
          <symbol
             overflow="visible"
             id="textext-7c95cb8f-1">
            <path
               style="stroke:none;"
               d="M 1.90625 -2.328125 C 2.453125 -2.328125 2.84375 -1.953125 2.84375 -1.203125 C 2.84375 -0.34375 2.328125 -0.078125 1.9375 -0.078125 C 1.65625 -0.078125 1.03125 -0.15625 0.75 -0.578125 C 1.078125 -0.578125 1.15625 -0.8125 1.15625 -0.96875 C 1.15625 -1.1875 0.984375 -1.34375 0.765625 -1.34375 C 0.578125 -1.34375 0.375 -1.21875 0.375 -0.9375 C 0.375 -0.28125 1.09375 0.140625 1.9375 0.140625 C 2.90625 0.140625 3.578125 -0.515625 3.578125 -1.203125 C 3.578125 -1.75 3.140625 -2.296875 2.375 -2.453125 C 3.09375 -2.71875 3.359375 -3.234375 3.359375 -3.671875 C 3.359375 -4.21875 2.734375 -4.625 1.953125 -4.625 C 1.1875 -4.625 0.59375 -4.25 0.59375 -3.6875 C 0.59375 -3.453125 0.75 -3.328125 0.953125 -3.328125 C 1.171875 -3.328125 1.3125 -3.484375 1.3125 -3.671875 C 1.3125 -3.875 1.171875 -4.03125 0.953125 -4.046875 C 1.203125 -4.34375 1.671875 -4.421875 1.9375 -4.421875 C 2.25 -4.421875 2.6875 -4.265625 2.6875 -3.671875 C 2.6875 -3.375 2.59375 -3.046875 2.40625 -2.84375 C 2.1875 -2.578125 1.984375 -2.5625 1.640625 -2.53125 C 1.46875 -2.515625 1.453125 -2.515625 1.421875 -2.515625 C 1.40625 -2.515625 1.34375 -2.5 1.34375 -2.421875 C 1.34375 -2.328125 1.40625 -2.328125 1.53125 -2.328125 Z M 1.90625 -2.328125 "
               id="path21594" />
          </symbol>
        </g>
      </defs>
      <g
         id="textext-7c95cb8f-2">
        <g
           style="fill:rgb(39.213562%,39.213562%,39.213562%);fill-opacity:1;"
           id="g21597">
          <use
             xlink:href="#textext-7c95cb8f-0"
             x="72"
             y="81.963"
             id="use21599" />
        </g>
        <g
           style="fill:rgb(39.213562%,39.213562%,39.213562%);fill-opacity:1;"
           id="g21601">
          <use
             xlink:href="#textext-7c95cb8f-1"
             x="79.161"
             y="83.457"
             id="use21603" />
        </g>
      </g>
    </g>
    <g
       id="g22305"
       transform="matrix(3,0,0,3,622.91671,174.59266)"
       ns0:preamble="/home/marco/MAP/MSQS/Project_Plan/figures/preamble1.tex"
       ns0:text="\\definecolor{green}{RGB}{100,100,100}\\color{green}$z_{3}$">
      <defs
         id="defs22307">
        <g
           id="g22309">
          <symbol
             id="textext-e7ce0aa3-0"
             overflow="visible">
            <path
               id="path22312"
               d="M 1.328125 -0.828125 C 1.859375 -1.40625 2.15625 -1.65625 2.515625 -1.96875 C 2.515625 -1.96875 3.125 -2.5 3.484375 -2.859375 C 4.4375 -3.78125 4.65625 -4.265625 4.65625 -4.3125 C 4.65625 -4.40625 4.5625 -4.40625 4.546875 -4.40625 C 4.46875 -4.40625 4.453125 -4.390625 4.390625 -4.296875 C 4.09375 -3.8125 3.890625 -3.65625 3.65625 -3.65625 C 3.40625 -3.65625 3.296875 -3.8125 3.140625 -3.984375 C 2.953125 -4.203125 2.78125 -4.40625 2.453125 -4.40625 C 1.703125 -4.40625 1.25 -3.484375 1.25 -3.265625 C 1.25 -3.21875 1.28125 -3.15625 1.359375 -3.15625 C 1.453125 -3.15625 1.46875 -3.203125 1.5 -3.265625 C 1.6875 -3.734375 2.265625 -3.734375 2.34375 -3.734375 C 2.546875 -3.734375 2.734375 -3.671875 2.96875 -3.59375 C 3.375 -3.4375 3.484375 -3.4375 3.734375 -3.4375 C 3.375 -3.015625 2.546875 -2.296875 2.359375 -2.140625 L 1.453125 -1.296875 C 0.78125 -0.625 0.421875 -0.0625 0.421875 0.015625 C 0.421875 0.109375 0.53125 0.109375 0.546875 0.109375 C 0.625 0.109375 0.640625 0.09375 0.703125 -0.015625 C 0.9375 -0.375 1.234375 -0.640625 1.5625 -0.640625 C 1.78125 -0.640625 1.890625 -0.546875 2.140625 -0.265625 C 2.296875 -0.046875 2.484375 0.109375 2.765625 0.109375 C 3.765625 0.109375 4.34375 -1.15625 4.34375 -1.421875 C 4.34375 -1.46875 4.296875 -1.53125 4.21875 -1.53125 C 4.125 -1.53125 4.109375 -1.46875 4.078125 -1.390625 C 3.84375 -0.75 3.203125 -0.5625 2.875 -0.5625 C 2.6875 -0.5625 2.5 -0.625 2.296875 -0.6875 C 1.953125 -0.8125 1.796875 -0.859375 1.59375 -0.859375 C 1.578125 -0.859375 1.421875 -0.859375 1.328125 -0.828125 Z M 1.328125 -0.828125 "
               style="stroke:none;" />
          </symbol>
          <symbol
             id="textext-e7ce0aa3-1"
             overflow="visible">
            <path
               id="path22315"
               d="M 1.90625 -2.328125 C 2.453125 -2.328125 2.84375 -1.953125 2.84375 -1.203125 C 2.84375 -0.34375 2.328125 -0.078125 1.9375 -0.078125 C 1.65625 -0.078125 1.03125 -0.15625 0.75 -0.578125 C 1.078125 -0.578125 1.15625 -0.8125 1.15625 -0.96875 C 1.15625 -1.1875 0.984375 -1.34375 0.765625 -1.34375 C 0.578125 -1.34375 0.375 -1.21875 0.375 -0.9375 C 0.375 -0.28125 1.09375 0.140625 1.9375 0.140625 C 2.90625 0.140625 3.578125 -0.515625 3.578125 -1.203125 C 3.578125 -1.75 3.140625 -2.296875 2.375 -2.453125 C 3.09375 -2.71875 3.359375 -3.234375 3.359375 -3.671875 C 3.359375 -4.21875 2.734375 -4.625 1.953125 -4.625 C 1.1875 -4.625 0.59375 -4.25 0.59375 -3.6875 C 0.59375 -3.453125 0.75 -3.328125 0.953125 -3.328125 C 1.171875 -3.328125 1.3125 -3.484375 1.3125 -3.671875 C 1.3125 -3.875 1.171875 -4.03125 0.953125 -4.046875 C 1.203125 -4.34375 1.671875 -4.421875 1.9375 -4.421875 C 2.25 -4.421875 2.6875 -4.265625 2.6875 -3.671875 C 2.6875 -3.375 2.59375 -3.046875 2.40625 -2.84375 C 2.1875 -2.578125 1.984375 -2.5625 1.640625 -2.53125 C 1.46875 -2.515625 1.453125 -2.515625 1.421875 -2.515625 C 1.40625 -2.515625 1.34375 -2.5 1.34375 -2.421875 C 1.34375 -2.328125 1.40625 -2.328125 1.53125 -2.328125 Z M 1.90625 -2.328125 "
               style="stroke:none;" />
          </symbol>
        </g>
      </defs>
      <g
         id="textext-e7ce0aa3-2">
        <g
           id="g22318"
           style="fill:rgb(39.213562%,39.213562%,39.213562%);fill-opacity:1;">
          <use
             id="use22320"
             y="81.963"
             x="72"
             xlink:href="#textext-e7ce0aa3-0" />
        </g>
        <g
           id="g22322"
           style="fill:rgb(39.213562%,39.213562%,39.213562%);fill-opacity:1;">
          <use
             id="use22324"
             y="83.457"
             x="76.633"
             xlink:href="#textext-e7ce0aa3-1" />
        </g>
      </g>
    </g>
  </g>
</svg>
