<?xml version="1.0" encoding="UTF-8" standalone="no"?>
<!-- Created with Inkscape (http://www.inkscape.org/) -->

<svg
   xmlns:ns0="http://www.iki.fi/pav/software/textext/"
   xmlns:dc="http://purl.org/dc/elements/1.1/"
   xmlns:cc="http://creativecommons.org/ns#"
   xmlns:rdf="http://www.w3.org/1999/02/22-rdf-syntax-ns#"
   xmlns:svg="http://www.w3.org/2000/svg"
   xmlns="http://www.w3.org/2000/svg"
   xmlns:xlink="http://www.w3.org/1999/xlink"
   xmlns:sodipodi="http://sodipodi.sourceforge.net/DTD/sodipodi-0.dtd"
   xmlns:inkscape="http://www.inkscape.org/namespaces/inkscape"
   id="svg4174"
   version="1.1"
   inkscape:version="0.48.1 r9760"
   width="720"
   height="540"
   xml:space="preserve"
   sodipodi:docname="bridle2.eps"><sodipodi:namedview
     pagecolor="#ffffff"
     bordercolor="#666666"
     borderopacity="1"
     objecttolerance="10"
     gridtolerance="10"
     guidetolerance="10"
     inkscape:pageopacity="0"
     inkscape:pageshadow="2"
     inkscape:window-width="1280"
     inkscape:window-height="723"
     id="namedview4176"
     showgrid="false"
     inkscape:zoom="0.65734742"
     inkscape:cx="-52.257487"
     inkscape:cy="191.46946"
     inkscape:window-x="0"
     inkscape:window-y="48"
     inkscape:window-maximized="1"
     inkscape:current-layer="g4182" /><metadata
     id="metadata4180"><rdf:RDF><cc:Work
         rdf:about=""><dc:format>image/svg+xml</dc:format><dc:type
           rdf:resource="http://purl.org/dc/dcmitype/StillImage" /><dc:title></dc:title></cc:Work></rdf:RDF></metadata><defs
     id="defs4178"><marker
       inkscape:stockid="Arrow1Mstart"
       orient="auto"
       refY="0.0"
       refX="0.0"
       id="Arrow1Mstart"
       style="overflow:visible"><path
         id="path17130"
         d="M 0.0,0.0 L 5.0,-5.0 L -12.5,0.0 L 5.0,5.0 L 0.0,0.0 z "
         style="fill-rule:evenodd;stroke:#000000;stroke-width:1.0pt;marker-start:none"
         transform="scale(0.4) translate(10,0)" /></marker><marker
       inkscape:stockid="Arrow1Mend"
       orient="auto"
       refY="0.0"
       refX="0.0"
       id="Arrow1Mend"
       style="overflow:visible;"><path
         id="path17133"
         d="M 0.0,0.0 L 5.0,-5.0 L -12.5,0.0 L 5.0,5.0 L 0.0,0.0 z "
         style="fill-rule:evenodd;stroke:#000000;stroke-width:1.0pt;marker-start:none;"
         transform="scale(0.4) rotate(180) translate(10,0)" /></marker><marker
       inkscape:stockid="Arrow1Lend"
       orient="auto"
       refY="0.0"
       refX="0.0"
       id="Arrow1Lend"
       style="overflow:visible;"><path
         id="path17127"
         d="M 0.0,0.0 L 5.0,-5.0 L -12.5,0.0 L 5.0,5.0 L 0.0,0.0 z "
         style="fill-rule:evenodd;stroke:#000000;stroke-width:1.0pt;marker-start:none;"
         transform="scale(0.8) rotate(180) translate(12.5,0)" /></marker><clipPath
       id="clipPath4276"
       clipPathUnits="userSpaceOnUse"><path
         id="path4278"
         d="m -1021,-416 2702,0 0,1583 -2702,0 0,-1583 z" /></clipPath><clipPath
       id="clipPath4296"
       clipPathUnits="userSpaceOnUse"><path
         id="path4298"
         d="m -1021,-416 2702,0 0,1583 -2702,0 0,-1583 z" /></clipPath><clipPath
       id="clipPath4316"
       clipPathUnits="userSpaceOnUse"><path
         id="path4318"
         d="m -1021,-416 2702,0 0,1583 -2702,0 0,-1583 z" /></clipPath><clipPath
       id="clipPath4378"
       clipPathUnits="userSpaceOnUse"><path
         id="path4380"
         d="m -1021,-416 2702,0 0,1583 -2702,0 0,-1583 z" /></clipPath><clipPath
       id="clipPath4398"
       clipPathUnits="userSpaceOnUse"><path
         id="path4400"
         d="m -1021,-416 2702,0 0,1583 -2702,0 0,-1583 z" /></clipPath><clipPath
       id="clipPath4418"
       clipPathUnits="userSpaceOnUse"><path
         id="path4420"
         d="m -1021,-416 2702,0 0,1583 -2702,0 0,-1583 z" /></clipPath><clipPath
       id="clipPath4438"
       clipPathUnits="userSpaceOnUse"><path
         id="path4440"
         d="m -1021,-416 2702,0 0,1583 -2702,0 0,-1583 z" /></clipPath><clipPath
       id="clipPath4458"
       clipPathUnits="userSpaceOnUse"><path
         id="path4460"
         d="m -1021,-416 2702,0 0,1583 -2702,0 0,-1583 z" /></clipPath><clipPath
       id="clipPath4478"
       clipPathUnits="userSpaceOnUse"><path
         id="path4480"
         d="m -1021,-416 2702,0 0,1583 -2702,0 0,-1583 z" /></clipPath><clipPath
       id="clipPath4488"
       clipPathUnits="userSpaceOnUse"><path
         id="path4490"
         d="M 0,0 576,0 576,432 0,432 0,0 z" /></clipPath><clipPath
       id="clipPath4498"
       clipPathUnits="userSpaceOnUse"><path
         id="path4500"
         d="M 0,0 576,0 576,432 0,432 0,0 z" /></clipPath><clipPath
       id="clipPath4508"
       clipPathUnits="userSpaceOnUse"><path
         id="path4510"
         d="m -3.25,-3.25 6.5,0 0,6.5 -6.5,0 0,-6.5 z" /></clipPath><clipPath
       id="clipPath4520"
       clipPathUnits="userSpaceOnUse"><path
         id="path4522"
         d="m -3.25,-3.25 6.5,0 0,6.5 -6.5,0 0,-6.5 z" /></clipPath><clipPath
       id="clipPath4530"
       clipPathUnits="userSpaceOnUse"><path
         id="path4532"
         d="M 0,0 576,0 576,432 0,432 0,0 z" /></clipPath><clipPath
       id="clipPath4540"
       clipPathUnits="userSpaceOnUse"><path
         id="path4542"
         d="M 0,0 576,0 576,432 0,432 0,0 z" /></clipPath><clipPath
       id="clipPath4550"
       clipPathUnits="userSpaceOnUse"><path
         id="path4552"
         d="m -3.25,-3.25 6.5,0 0,6.5 -6.5,0 0,-6.5 z" /></clipPath><clipPath
       id="clipPath4562"
       clipPathUnits="userSpaceOnUse"><path
         id="path4564"
         d="m -3.25,-3.25 6.5,0 0,6.5 -6.5,0 0,-6.5 z" /></clipPath><clipPath
       id="clipPath4572"
       clipPathUnits="userSpaceOnUse"><path
         id="path4574"
         d="M 0,0 576,0 576,432 0,432 0,0 z" /></clipPath><clipPath
       id="clipPath4582"
       clipPathUnits="userSpaceOnUse"><path
         id="path4584"
         d="M 0,0 576,0 576,432 0,432 0,0 z" /></clipPath><clipPath
       id="clipPath4592"
       clipPathUnits="userSpaceOnUse"><path
         id="path4594"
         d="m -3.25,-3.25 6.5,0 0,6.5 -6.5,0 0,-6.5 z" /></clipPath><clipPath
       id="clipPath4604"
       clipPathUnits="userSpaceOnUse"><path
         id="path4606"
         d="m -3.25,-3.25 6.5,0 0,6.5 -6.5,0 0,-6.5 z" /></clipPath><clipPath
       id="clipPath4614"
       clipPathUnits="userSpaceOnUse"><path
         id="path4616"
         d="M 0,0 576,0 576,432 0,432 0,0 z" /></clipPath><clipPath
       id="clipPath4624"
       clipPathUnits="userSpaceOnUse"><path
         id="path4626"
         d="M 0,0 576,0 576,432 0,432 0,0 z" /></clipPath><clipPath
       id="clipPath4634"
       clipPathUnits="userSpaceOnUse"><path
         id="path4636"
         d="m -3.25,-3.25 6.5,0 0,6.5 -6.5,0 0,-6.5 z" /></clipPath><clipPath
       id="clipPath4646"
       clipPathUnits="userSpaceOnUse"><path
         id="path4648"
         d="m -3.25,-3.25 6.5,0 0,6.5 -6.5,0 0,-6.5 z" /></clipPath></defs><g
     transform="matrix(1.25,0,0,-1.25,0,540)"
     inkscape:label="bridle2"
     inkscape:groupmode="layer"
     id="g4182"><path
       id="path4184"
       style="fill:#ffffff;fill-opacity:0;fill-rule:nonzero;stroke:none"
       d="M 0,0 576,0 576,432 0,432 0,0" /><path
       id="path4186"
       style="fill:#ffffff;fill-opacity:0;fill-rule:nonzero;stroke:none"
       d="M 0,0 576,0 576,432 0,432 0,0" /><g
       id="g4484"
       style="opacity:1;stroke:#ffa7a7;stroke-opacity:1"><g
         clip-path="url(#clipPath4488)"
         id="g4486"
         style="stroke:#ffa7a7;stroke-opacity:1"><path
           id="path4492"
           style="fill:none;stroke:#ffa7a7;stroke-opacity:1;stroke-width:3;stroke-linecap:square;stroke-linejoin:round;stroke-miterlimit:10;stroke-dasharray:none"
           d="m 430.15282,91.969308 -1.34989,0.313646 -1.34933,0.313513 -1.34875,0.31338 -1.34817,0.313247 -1.34761,0.313114 -1.34704,0.312981 -1.34646,0.312849 -1.34589,0.312716 -1.34533,0.312583 -1.34475,0.312452 -1.34418,0.312318 -1.34362,0.312187 -1.34305,0.312055 -1.34247,0.311922 -1.34191,0.31179 -1.34135,0.311659 -1.34077,0.311527 -1.34021,0.311394 -1.33964,0.311264 -1.33907,0.311132 -1.33851,0.311 -1.33795,0.310869 -1.33738,0.310738 -1.33682,0.310607 -1.33625,0.310476 -1.33569,0.310343 -1.33512,0.31022 -1.33456,0.31008 -1.334,0.30995 -1.33344,0.30982 -1.33288,0.3097 -1.33231,0.30956 -1.33176,0.30943 -1.33119,0.3093 -1.33063,0.30917 -1.33007,0.30904 -1.32952,0.30891 -1.32895,0.30878 -1.32839,0.30865 -1.32784,0.30852 -1.32728,0.30839 -1.32672,0.30826 -1.32616,0.30813 -1.3256,0.308 -1.32505,0.30788 -1.32449,0.30774 -1.32394,0.30761 -1.32338,0.30749 -1.32282,0.30735 -1.32227,0.30723 -1.32171,0.3071 -1.32116,0.30697 -1.31977,0.31392 -1.31856,0.33819 -1.31562,0.36271 -1.3116,0.38681 -1.3065,0.41044 -1.30037,0.43356 -1.29324,0.45609 -1.28517,0.47802 -1.2762,0.49931 -1.26641,0.51993 -1.25583,0.53985 -1.24453,0.55905 -1.2326,0.57754 -1.22008,0.59528 -1.20703,0.6123 -1.19355,0.62858 -1.17965,0.64414 -1.16543,0.65899 -1.15094,0.67313 -1.13623,0.68658 -1.12134,0.69938 -1.10633,0.71152 -1.09126,0.72304 -1.07613,0.73395 -1.06102,0.7443 -1.04594,0.75408 -1.03092,0.76334 -1.01601,0.77209 -1.0012,0.78034 -0.98654,0.78816 -0.97203,0.79552 -0.95771,0.80249 -0.94357,0.80904 -0.92962,0.81524 -0.9159,0.82108 -0.90239,0.8266 -0.88911,0.83179 -0.87605,0.8367 -0.86323,0.84132 -0.85065,0.84569 -0.83831,0.84981 -0.82621,0.85369 -0.81434,0.85736 -0.80272,0.86081 -0.79133,0.86409 -0.78018,0.86717 -0.76926,0.87008 -0.75857,0.87284" /></g></g><g
       id="g4494"
       style="opacity:0.15"><g
         clip-path="url(#clipPath4498)"
         id="g4496"><g
           transform="translate(430.15282,91.969308)"
           id="g4502"><g
             id="g4504"><g
               clip-path="url(#clipPath4508)"
               id="g4506"><path
                 id="path4512"
                 style="fill:#000000;fill-opacity:1;fill-rule:nonzero;stroke:#000000;stroke-opacity:1;stroke-width:0.50000000000000000;stroke-linecap:butt;stroke-linejoin:round;stroke-miterlimit:10;stroke-dasharray:none"
                 d="m 0,-3 c 0.7956093,0 1.5587396,0.3160989 2.1213203,0.8786797 C 2.6839011,-1.5587396 3,-0.7956093 3,0 3,0.7956093 2.6839011,1.5587396 2.1213203,2.1213203 1.5587396,2.6839011 0.7956093,3 0,3 -0.7956093,3 -1.5587396,2.6839011 -2.1213203,2.1213203 -2.6839011,1.5587396 -3,0.7956093 -3,0 -3,-0.7956093 -2.6839011,-1.5587396 -2.1213203,-2.1213203 -1.5587396,-2.6839011 -0.7956093,-3 0,-3 z" /></g></g><g
             transform="translate(-120.44051,49.100978)"
             id="g4514"><g
               id="g4516"><g
                 clip-path="url(#clipPath4520)"
                 id="g4518"><path
                   id="path4524"
                   style="fill:#000000;fill-opacity:1;fill-rule:nonzero;stroke:#000000;stroke-opacity:1;stroke-width:0.50000000000000000;stroke-linecap:butt;stroke-linejoin:round;stroke-miterlimit:10;stroke-dasharray:none"
                   d="m 0,-3 c 0.7956093,0 1.5587396,0.3160989 2.1213203,0.8786797 C 2.6839011,-1.5587396 3,-0.7956093 3,0 3,0.7956093 2.6839011,1.5587396 2.1213203,2.1213203 1.5587396,2.6839011 0.7956093,3 0,3 -0.7956093,3 -1.5587396,2.6839011 -2.1213203,2.1213203 -2.6839011,1.5587396 -3,0.7956093 -3,0 -3,-0.7956093 -2.6839011,-1.5587396 -2.1213203,-2.1213203 -1.5587396,-2.6839011 -0.7956093,-3 0,-3 z" /></g></g></g></g></g></g><g
       id="g4526"><g
         clip-path="url(#clipPath4530)"
         id="g4528"><path
           id="path4534"
           style="fill:none;stroke:#0066cc;stroke-opacity:1;stroke-width:3;stroke-linecap:square;stroke-linejoin:round;stroke-miterlimit:10;stroke-dasharray:none"
           d="m 174.21794,323.54574 1.21147,-1.87185 1.21369,-1.87069 1.21594,-1.86952 1.2182,-1.86835 1.22047,-1.86718 1.22274,-1.86602 1.22504,-1.86485 1.22735,-1.86368 1.22967,-1.86252 1.23199,-1.86135 1.23435,-1.86018 1.2367,-1.85901 1.23907,-1.85784 1.24145,-1.85667 1.24386,-1.85551 1.24626,-1.85433 1.24869,-1.85316 1.25113,-1.85199 1.25357,-1.85082 1.25604,-1.84965 1.25852,-1.84848 1.26102,-1.8473 1.26352,-1.84613 1.26604,-1.84496 1.26857,-1.84378 1.27112,-1.8426 1.27368,-1.84143 1.27626,-1.84025 1.27886,-1.83907 1.28145,-1.8379 1.28408,-1.83671 1.28671,-1.83553 1.28937,-1.83435 1.29202,-1.83316 1.29471,-1.83199 1.2974,-1.83079 1.3001,-1.82961 1.30284,-1.82842 1.30557,-1.82723 1.30833,-1.82604 1.31109,-1.82485 1.31389,-1.82365 1.31668,-1.82246 1.3195,-1.82126 1.32234,-1.82007 1.32518,-1.81886 1.32805,-1.81766 1.33093,-1.81646 1.33382,-1.81526 1.33674,-1.81404 1.33967,-1.81284 1.34261,-1.81163 1.34558,-1.81042 1.34856,-1.8092 1.35155,-1.80798 1.35456,-1.80676 1.35759,-1.80555 1.36064,-1.80432 1.36371,-1.80309 1.36678,-1.80187 1.36988,-1.80063 1.373,-1.7994 1.37613,-1.79817 1.37929,-1.79693 1.38245,-1.79568 1.38563,-1.79444 1.38884,-1.7932 1.39206,-1.79194 1.39531,-1.7907 1.39856,-1.78943 1.40183,-1.78818 1.40514,-1.78692 1.40844,-1.78565 1.41178,-1.78438 1.41513,-1.78311 1.4185,-1.78184 1.42189,-1.78055 1.42529,-1.77927 1.42873,-1.77799 1.43217,-1.7767 1.43563,-1.7754 1.43912,-1.7741 1.44262,-1.77281 1.44615,-1.77149 1.44969,-1.77019 1.45326,-1.76887 1.45684,-1.76755 1.46044,-1.76623 1.46407,-1.7649 1.46771,-1.76357 1.47138,-1.76223 1.47506,-1.76089 1.47877,-1.75954 1.4825,-1.75819 1.48624,-1.75683 1.49001,-1.75547 1.49381,-1.7541 1.49761,-1.75273 1.50144,-1.75135 1.5053,-1.74997" /></g></g><g
       id="g4536"><g
         clip-path="url(#clipPath4540)"
         id="g4538"><g
           transform="translate(174.21794,323.54574)"
           id="g4544"><g
             id="g4546"><g
               clip-path="url(#clipPath4550)"
               id="g4548"><path
                 id="path4554"
                 style="fill:#000000;fill-opacity:1;fill-rule:nonzero;stroke:#000000;stroke-opacity:1;stroke-width:0.5;stroke-linecap:butt;stroke-linejoin:round;stroke-miterlimit:10;stroke-dasharray:none"
                 d="m 0,-3 c 0.7956093,0 1.5587396,0.3160989 2.1213203,0.8786797 C 2.6839011,-1.5587396 3,-0.7956093 3,0 3,0.7956093 2.6839011,1.5587396 2.1213203,2.1213203 1.5587396,2.6839011 0.7956093,3 0,3 -0.7956093,3 -1.5587396,2.6839011 -2.1213203,2.1213203 -2.6839011,1.5587396 -3,0.7956093 -3,0 -3,-0.7956093 -2.6839011,-1.5587396 -2.1213203,-2.1213203 -1.5587396,-2.6839011 -0.7956093,-3 0,-3 z" /></g></g><g
             transform="translate(134.50502,-181.26065)"
             id="g4556"><g
               id="g4558"><g
                 clip-path="url(#clipPath4562)"
                 id="g4560"><path
                   id="path4566"
                   style="fill:#000000;fill-opacity:1;fill-rule:nonzero;stroke:#000000;stroke-opacity:1;stroke-width:0.5;stroke-linecap:butt;stroke-linejoin:round;stroke-miterlimit:10;stroke-dasharray:none"
                   d="m 0,-3 c 0.7956093,0 1.5587396,0.3160989 2.1213203,0.8786797 C 2.6839011,-1.5587396 3,-0.7956093 3,0 3,0.7956093 2.6839011,1.5587396 2.1213203,2.1213203 1.5587396,2.6839011 0.7956093,3 0,3 -0.7956093,3 -1.5587396,2.6839011 -2.1213203,2.1213203 -2.6839011,1.5587396 -3,0.7956093 -3,0 -3,-0.7956093 -2.6839011,-1.5587396 -2.1213203,-2.1213203 -1.5587396,-2.6839011 -0.7956093,-3 0,-3 z" /></g></g></g></g></g></g><g
       id="g4568"
       style="fill:#008080;opacity:1;stroke:#ffa7a7;stroke-opacity:1"><g
         clip-path="url(#clipPath4572)"
         id="g4570"
         style="fill:#008080;stroke:#ffa7a7;stroke-opacity:1"><path
           id="path4576"
           style="fill:#008080;stroke:#ffa7a7;stroke-opacity:1;stroke-width:3;stroke-linecap:square;stroke-linejoin:round;stroke-miterlimit:10;stroke-dasharray:none"
           d="m 240.68422,396.72596 -0.5024,-0.62799 -0.50478,-0.62957 -0.50718,-0.63115 -0.5096,-0.63276 -0.51205,-0.63437 -0.51451,-0.63599 -0.517,-0.63763 -0.5195,-0.63928 -0.52203,-0.64094 -0.52458,-0.64263 -0.52716,-0.64431 -0.52975,-0.64602 -0.53237,-0.64774 -0.53501,-0.64947 -0.53768,-0.65121 -0.54036,-0.65298 -0.54308,-0.65475 -0.54581,-0.65654 -0.54857,-0.65835 -0.55135,-0.66016 -0.55417,-0.662 -0.557,-0.66384 -0.55986,-0.66571 -0.56274,-0.66759 -0.56566,-0.66948 -0.56859,-0.67139 -0.57157,-0.67332 -0.57455,-0.67526 -0.57757,-0.67722 -0.58062,-0.6792 -0.5837,-0.68118 -0.5868,-0.68319 -0.58993,-0.68522 -0.59309,-0.68726 -0.59628,-0.68931 -0.5995,-0.69139 -0.60275,-0.69348 -0.60603,-0.6956 -0.60934,-0.69772 -0.61268,-0.69986 -0.61605,-0.70203 -0.61946,-0.70422 -0.6229,-0.70641 -0.62636,-0.70863 -0.62987,-0.71087 -0.6334,-0.71313 -0.63697,-0.7154 -0.64057,-0.7177 -0.64421,-0.72001 -0.64788,-0.72235 -0.65159,-0.7247 -0.65533,-0.72707 -0.6591,-0.72947 -0.66293,-0.73188 -0.66677,-0.73432 -0.67066,-0.73677 -0.67459,-0.73925 -0.67855,-0.74175 -0.68256,-0.74426 -0.6866,-0.74681 -0.69067,-0.74936 -0.6948,-0.75195 -0.69896,-0.75455 -0.70316,-0.75718 -0.7074,-0.75983 -0.71168,-0.7625 -0.71601,-0.76519 -0.72038,-0.76791 -0.72479,-0.77064 -0.72924,-0.77341 -0.73374,-0.7762 -0.73828,-0.779 -0.74287,-0.78183 -0.7475,-0.78469 -0.75217,-0.78756 -0.7569,-0.79047 -0.76167,-0.7934 -0.76648,-0.79634 -0.77134,-0.79932 -0.77626,-0.80232 -0.78122,-0.80534 -0.78622,-0.80838 -0.79128,-0.81146 -0.79638,-0.81456 -0.80155,-0.81767 -0.80674,-0.82082 -0.81201,-0.82399 -0.81731,-0.82719 -0.82268,-0.83041 -0.82808,-0.83365 -0.83355,-0.83692 -0.83907,-0.84021 -0.84464,-0.84354 -0.85026,-0.84687 -0.85594,-0.85025 -0.86167,-0.85364 -0.86746,-0.85706 -0.8733,-0.8605 -0.87919,-0.86397 -0.88515,-0.86747" /></g></g><g
       id="g4578"
       style="opacity:0.15"><g
         clip-path="url(#clipPath4582)"
         id="g4580"><g
           transform="translate(240.68422,396.72596)"
           id="g4586"><g
             id="g4588"><g
               clip-path="url(#clipPath4592)"
               id="g4590"><path
                 id="path4596"
                 style="fill:#000000;fill-opacity:1;fill-rule:nonzero;stroke:#000000;stroke-opacity:1;stroke-width:0.50000000000000000;stroke-linecap:butt;stroke-linejoin:round;stroke-miterlimit:10;stroke-dasharray:none"
                 d="m 0,-3 c 0.7956093,0 1.5587396,0.3160989 2.1213203,0.8786797 C 2.6839011,-1.5587396 3,-0.7956093 3,0 3,0.7956093 2.6839011,1.5587396 2.1213203,2.1213203 1.5587396,2.6839011 0.7956093,3 0,3 -0.7956093,3 -1.5587396,2.6839011 -2.1213203,2.1213203 -2.6839011,1.5587396 -3,0.7956093 -3,0 -3,-0.7956093 -2.6839011,-1.5587396 -2.1213203,-2.1213203 -1.5587396,-2.6839011 -0.7956093,-3 0,-3 z" /></g></g><g
             transform="translate(-66.461551,-73.177639)"
             id="g4598"><g
               id="g4600"><g
                 clip-path="url(#clipPath4604)"
                 id="g4602"><path
                   id="path4608"
                   style="fill:#000000;fill-opacity:1;fill-rule:nonzero;stroke:#000000;stroke-opacity:1;stroke-width:0.50000000000000000;stroke-linecap:butt;stroke-linejoin:round;stroke-miterlimit:10;stroke-dasharray:none"
                   d="m 0,-3 c 0.7956093,0 1.5587396,0.3160989 2.1213203,0.8786797 C 2.6839011,-1.5587396 3,-0.7956093 3,0 3,0.7956093 2.6839011,1.5587396 2.1213203,2.1213203 1.5587396,2.6839011 0.7956093,3 0,3 -0.7956093,3 -1.5587396,2.6839011 -2.1213203,2.1213203 -2.6839011,1.5587396 -3,0.7956093 -3,0 -3,-0.7956093 -2.6839011,-1.5587396 -2.1213203,-2.1213203 -1.5587396,-2.6839011 -0.7956093,-3 0,-3 z" /></g></g></g></g></g></g><g
       id="g4610"
       style="opacity:1;stroke:#ffa7a7;stroke-opacity:1"><g
         clip-path="url(#clipPath4614)"
         id="g4612"
         style="stroke:#ffa7a7;stroke-opacity:1"><path
           id="path4618"
           style="fill:none;stroke:#ffa7a7;stroke-opacity:1;stroke-width:3;stroke-linecap:square;stroke-linejoin:round;stroke-miterlimit:10;stroke-dasharray:none"
           d="m 74.069988,304.98051 0.821435,0.0737 0.824241,0.0754 0.827068,0.0772 0.829914,0.0789 0.832781,0.0806 0.83567,0.0824 0.838578,0.0842 0.841509,0.086 0.844461,0.0878 0.847434,0.0896 0.85043,0.0914 0.853446,0.0933 0.856486,0.0951 0.859547,0.097 0.862632,0.0989 0.865739,0.1008 0.868869,0.10273 0.872023,0.10465 0.8752,0.1066 0.8784,0.10857 0.881625,0.11054 0.884873,0.11254 0.888147,0.11454 0.891444,0.11657 0.894766,0.11861 0.898113,0.12067 0.901486,0.12274 0.904884,0.12483 0.908307,0.12694 0.911754,0.12906 0.91524,0.1312 0.91873,0.13336 0.92226,0.13554 0.92582,0.13773 0.9294,0.13994 0.93301,0.14216 0.93665,0.14442 0.94032,0.14668 0.944,0.14897 0.94773,0.15127 0.95148,0.15359 0.95526,0.15593 0.95906,0.1583 0.9629,0.16067 0.96677,0.16308 0.97066,0.16549 0.97459,0.16794 0.97855,0.1704 0.98253,0.17288 0.98655,0.17539 0.99059,0.17791 0.99468,0.18045 0.99879,0.18302 1.00292,0.18562 1.00711,0.18822 1.01131,0.19086 1.01554,0.19352 1.01982,0.19619 1.02412,0.1989 1.02846,0.20162 1.03283,0.20438 1.03723,0.20714 1.04167,0.20995 1.04614,0.21276 1.05064,0.21561 1.05518,0.21848 1.05976,0.22138 1.06436,0.2243 1.06901,0.22725 1.07368,0.23022 1.0784,0.23322 1.08315,0.23624 1.08793,0.23929 1.09275,0.24238 1.09761,0.24547 1.1025,0.24861 1.10743,0.25177 1.11239,0.25496 1.11739,0.25818 1.12243,0.26141 1.1275,0.26469 1.13261,0.268 1.13776,0.27132 1.14294,0.27468 1.14817,0.27807 1.15342,0.28149 1.15872,0.28494 1.16404,0.28842 1.16942,0.29193 1.17482,0.29546 1.18026,0.29904 1.18575,0.30264 1.19125,0.30627 1.19681,0.30994 1.2024,0.31363 1.20802,0.31736 1.21368,0.32112 1.21938,0.32492 1.22511,0.32873 1.23088,0.3326" /></g></g><g
       id="g4620"
       style="opacity:0.15"><g
         clip-path="url(#clipPath4624)"
         id="g4622"><g
           transform="translate(74.069988,304.98051)"
           id="g4628"><g
             id="g4630"><g
               clip-path="url(#clipPath4634)"
               id="g4632"><path
                 id="path4638"
                 style="fill:#000000;fill-opacity:1;fill-rule:nonzero;stroke:#000000;stroke-opacity:1;stroke-width:0.50000000000000000;stroke-linecap:butt;stroke-linejoin:round;stroke-miterlimit:10;stroke-dasharray:none"
                 d="m 0,-3 c 0.7956093,0 1.5587396,0.3160989 2.1213203,0.8786797 C 2.6839011,-1.5587396 3,-0.7956093 3,0 3,0.7956093 2.6839011,1.5587396 2.1213203,2.1213203 1.5587396,2.6839011 0.7956093,3 0,3 -0.7956093,3 -1.5587396,2.6839011 -2.1213203,2.1213203 -2.6839011,1.5587396 -3,0.7956093 -3,0 -3,-0.7956093 -2.6839011,-1.5587396 -2.1213203,-2.1213203 -1.5587396,-2.6839011 -0.7956093,-3 0,-3 z" /></g></g><g
             transform="translate(100.14153,18.561487)"
             id="g4640"><g
               id="g4642"><g
                 clip-path="url(#clipPath4646)"
                 id="g4644"><path
                   id="path4650"
                   style="fill:#000000;fill-opacity:1;fill-rule:nonzero;stroke:#000000;stroke-opacity:1;stroke-width:0.50000000000000000;stroke-linecap:butt;stroke-linejoin:round;stroke-miterlimit:10;stroke-dasharray:none"
                   d="m 0,-3 c 0.7956093,0 1.5587396,0.3160989 2.1213203,0.8786797 C 2.6839011,-1.5587396 3,-0.7956093 3,0 3,0.7956093 2.6839011,1.5587396 2.1213203,2.1213203 1.5587396,2.6839011 0.7956093,3 0,3 -0.7956093,3 -1.5587396,2.6839011 -2.1213203,2.1213203 -2.6839011,1.5587396 -3,0.7956093 -3,0 -3,-0.7956093 -2.6839011,-1.5587396 -2.1213203,-2.1213203 -1.5587396,-2.6839011 -0.7956093,-3 0,-3 z" /></g></g></g></g></g></g><path
       style="fill:none;stroke:#000000;stroke-width:0.8;stroke-linecap:butt;stroke-linejoin:miter;stroke-miterlimit:4;stroke-opacity:1;stroke-dasharray:4.8,4.8;stroke-dashoffset:0"
       d="M 301.24975,115.53898 35.034407,175.11743"
       id="path17115"
       inkscape:connector-curvature="0" /><path
       style="fill:none;stroke:#000000;stroke-width:1.2;stroke-linecap:butt;stroke-linejoin:miter;stroke-opacity:1;marker-start:url(#Arrow1Mstart);marker-end:url(#Arrow1Mend);stroke-miterlimit:4;stroke-dasharray:none"
       d="m 129.15975,215.25806 0,-61.3349 -62.111294,-15.52783"
       id="path17117"
       inkscape:connector-curvature="0" /><path
       style="fill:none;stroke:#000000;stroke-width:1.5;stroke-linecap:butt;stroke-linejoin:miter;stroke-opacity:1;marker-end:url(#Arrow1Mend);stroke-miterlimit:4;stroke-dasharray:none"
       d="M 160.83567,347.06442 105.54316,300.67921"
       id="path17119"
       inkscape:connector-curvature="0"
       transform="matrix(0.8,0,0,-0.8,0,432)" /><path
       style="fill:none;stroke:#000000;stroke-width:1;stroke-linecap:butt;stroke-linejoin:miter;stroke-opacity:1;stroke-miterlimit:4;stroke-dasharray:6,6;stroke-dashoffset:0"
       d="m 217.29084,151.67331 0,196.85259"
       id="path18162"
       inkscape:connector-curvature="0"
       transform="matrix(0.8,0,0,-0.8,0,432)" /><path
       style="fill:none;stroke:#000000;stroke-width:1px;stroke-linecap:butt;stroke-linejoin:miter;stroke-opacity:1"
       d="m 103.26693,335.61753 c 0,0 -6.992032,3.49602 -6.723108,11.56374 0.268925,8.06773 6.723108,11.0259 6.723108,11.0259"
       id="path18164"
       inkscape:connector-curvature="0"
       transform="matrix(0.8,0,0,-0.8,0,432)"
       sodipodi:nodetypes="czc" /><g
       id="g18878"
       ns0:preamble="/home/marco/MAP/MSQS/Project_Plan/figures/preamble1.tex"
       ns0:text="$X$"
       transform="matrix(1.5,0,0,-1.5,-53.354582,245.99693)"><defs
   id="defs18880">
<g
   id="g18882">
<symbol
   id="textext-4ce9d4c5-0"
   overflow="visible"
   style="overflow:visible">
<path
   id="path18885"
   d="M 4.828125,-4.09375 4,-6.078125 c -0.03125,-0.078125 -0.046875,-0.125 -0.046875,-0.125 0,-0.0625 0.15625,-0.25 0.578125,-0.296875 0.109375,-0.015625 0.203125,-0.015625 0.203125,-0.1875 0,-0.125 -0.125,-0.125 -0.15625,-0.125 -0.40625,0 -0.828125,0.03125 -1.25,0.03125 -0.25,0 -0.859375,-0.03125 -1.109375,-0.03125 -0.0625,0 -0.1875,0 -0.1875,0.203125 C 2.03125,-6.5 2.140625,-6.5 2.265625,-6.5 c 0.59375,0 0.65625,0.09375 0.75,0.3125 l 1.171875,2.78125 -2.109375,2.265625 -0.125,0.109375 C 1.46875,-0.5 1,-0.34375 0.484375,-0.3125 c -0.125,0.015625 -0.21875,0.015625 -0.21875,0.203125 0,0.015625 0,0.109375 0.140625,0.109375 0.296875,0 0.625,-0.03125 0.921875,-0.03125 C 1.703125,-0.03125 2.09375,0 2.453125,0 2.515625,0 2.625,0 2.625,-0.203125 2.625,-0.296875 2.53125,-0.3125 2.515625,-0.3125 c -0.09375,0 -0.40625,-0.03125 -0.40625,-0.3125 0,-0.15625 0.15625,-0.3125 0.265625,-0.4375 L 3.40625,-2.140625 4.296875,-3.125 l 1,2.390625 c 0.046875,0.109375 0.0625,0.109375 0.0625,0.140625 0,0.078125 -0.203125,0.25 -0.578125,0.28125 C 4.671875,-0.296875 4.578125,-0.296875 4.578125,-0.125 4.578125,0 4.6875,0 4.71875,0 5,0 5.703125,-0.03125 5.984375,-0.03125 6.234375,-0.03125 6.84375,0 7.09375,0 c 0.0625,0 0.1875,0 0.1875,-0.1875 0,-0.125 -0.109375,-0.125 -0.1875,-0.125 -0.65625,0 -0.6875,-0.03125 -0.859375,-0.4375 C 5.859375,-1.671875 5.1875,-3.234375 4.953125,-3.828125 5.625,-4.53125 6.671875,-5.71875 7,-5.984375 7.28125,-6.234375 7.671875,-6.46875 8.265625,-6.5 c 0.125,-0.015625 0.21875,-0.015625 0.21875,-0.203125 0,0 0,-0.109375 -0.125,-0.109375 -0.296875,0 -0.640625,0.03125 -0.9375,0.03125 -0.375,0 -0.75,-0.03125 -1.109375,-0.03125 -0.0625,0 -0.1875,0 -0.1875,0.203125 0,0.0625 0.046875,0.09375 0.109375,0.109375 0.09375,0.015625 0.40625,0.03125 0.40625,0.3125 0,0.140625 -0.109375,0.265625 -0.1875,0.359375 z m 0,0"
   style="stroke:none"
   inkscape:connector-curvature="0" />
</symbol>
</g>
</defs>
<g
   id="textext-4ce9d4c5-1">
<g
   id="g18888"
   style="fill:#000000;fill-opacity:1">
  <use
   id="use18890"
   y="81.962997"
   x="72"
   xlink:href="#textext-4ce9d4c5-0"
   width="720"
   height="540" />
</g>
</g>
</g><g
       ns0:text="$Z$"
       ns0:preamble="/home/marco/MAP/MSQS/Project_Plan/figures/preamble1.tex"
       transform="matrix(1.5,0,0,-1.5,27.429532,337.27735)"
       id="g19446"><defs
   id="defs19448">
<g
   id="g19450">
<symbol
   overflow="visible"
   id="textext-a08afdf8-0">
<path
   style="stroke:none;"
   d="M 7.171875 -6.5625 C 7.1875 -6.609375 7.203125 -6.65625 7.203125 -6.71875 C 7.203125 -6.8125 7.15625 -6.8125 6.953125 -6.8125 L 2.75 -6.8125 C 2.515625 -6.8125 2.5 -6.796875 2.4375 -6.609375 L 1.890625 -4.8125 C 1.875 -4.765625 1.859375 -4.6875 1.859375 -4.671875 C 1.859375 -4.671875 1.859375 -4.5625 1.984375 -4.5625 C 2.078125 -4.5625 2.09375 -4.640625 2.109375 -4.671875 C 2.5 -5.84375 3.015625 -6.5 4.5625 -6.5 L 6.1875 -6.5 L 0.625 -0.265625 C 0.625 -0.265625 0.578125 -0.125 0.578125 -0.09375 C 0.578125 0 0.640625 0 0.828125 0 L 5.15625 0 C 5.40625 0 5.40625 -0.015625 5.46875 -0.203125 L 6.1875 -2.40625 C 6.1875 -2.4375 6.21875 -2.515625 6.21875 -2.546875 C 6.21875 -2.609375 6.1875 -2.65625 6.09375 -2.65625 C 6 -2.65625 5.984375 -2.625 5.921875 -2.40625 C 5.484375 -1.0625 5 -0.34375 3.3125 -0.34375 L 1.609375 -0.34375 Z M 7.171875 -6.5625 "
   id="path19453" />
</symbol>
</g>
</defs>
<g
   id="textext-a08afdf8-1">
<g
   style="fill:rgb(0%,0%,0%);fill-opacity:1;"
   id="g19456">
  <use
   xlink:href="#textext-a08afdf8-0"
   x="72"
   y="81.963"
   id="use19458" />
</g>
</g>
</g><g
       id="g19970"
       transform="matrix(1.5,0,0,-1.5,-25.064492,320.06619)"
       ns0:preamble="/home/marco/MAP/MSQS/Project_Plan/figures/preamble1.tex"
       ns0:text="$Y$"><defs
   id="defs19972">
<g
   id="g19974">
<symbol
   id="textext-c54f52aa-0"
   overflow="visible">
<path
   id="path19977"
   d="M 5.953125 -5.671875 L 6.09375 -5.8125 C 6.390625 -6.109375 6.71875 -6.453125 7.390625 -6.5 C 7.5 -6.515625 7.59375 -6.515625 7.59375 -6.6875 C 7.59375 -6.765625 7.546875 -6.8125 7.46875 -6.8125 C 7.203125 -6.8125 6.921875 -6.78125 6.65625 -6.78125 C 6.3125 -6.78125 5.96875 -6.8125 5.65625 -6.8125 C 5.59375 -6.8125 5.46875 -6.8125 5.46875 -6.625 C 5.46875 -6.515625 5.5625 -6.5 5.609375 -6.5 C 5.6875 -6.5 5.96875 -6.484375 5.96875 -6.265625 C 5.96875 -6.09375 5.734375 -5.84375 5.703125 -5.796875 L 3.390625 -3.125 L 2.296875 -6.09375 C 2.234375 -6.234375 2.234375 -6.25 2.234375 -6.265625 C 2.234375 -6.5 2.71875 -6.5 2.828125 -6.5 C 2.953125 -6.5 3.0625 -6.5 3.0625 -6.703125 C 3.0625 -6.8125 2.9375 -6.8125 2.90625 -6.8125 C 2.625 -6.8125 1.9375 -6.78125 1.65625 -6.78125 C 1.40625 -6.78125 0.78125 -6.8125 0.53125 -6.8125 C 0.484375 -6.8125 0.34375 -6.8125 0.34375 -6.609375 C 0.34375 -6.5 0.453125 -6.5 0.578125 -6.5 C 1.171875 -6.5 1.21875 -6.40625 1.3125 -6.15625 L 2.53125 -2.875 C 2.546875 -2.84375 2.578125 -2.734375 2.578125 -2.71875 C 2.578125 -2.6875 2.171875 -1.078125 2.125 -0.890625 C 2 -0.34375 1.984375 -0.3125 1.1875 -0.3125 C 1 -0.3125 0.921875 -0.3125 0.921875 -0.109375 C 0.921875 0 1.03125 0 1.0625 0 C 1.328125 0 2.03125 -0.03125 2.3125 -0.03125 C 2.59375 -0.03125 3.3125 0 3.59375 0 C 3.65625 0 3.78125 0 3.78125 -0.203125 C 3.78125 -0.3125 3.6875 -0.3125 3.5 -0.3125 C 3.484375 -0.3125 3.296875 -0.3125 3.125 -0.328125 C 2.90625 -0.34375 2.84375 -0.375 2.84375 -0.484375 C 2.84375 -0.5625 2.9375 -0.90625 2.984375 -1.109375 L 3.34375 -2.515625 C 3.390625 -2.71875 3.40625 -2.734375 3.484375 -2.828125 Z M 5.953125 -5.671875 "
   style="stroke:none;" />
</symbol>
</g>
</defs>
<g
   id="textext-c54f52aa-1">
<g
   id="g19980"
   style="fill:rgb(0%,0%,0%);fill-opacity:1;">
  <use
   id="use19982"
   y="81.963"
   x="72"
   xlink:href="#textext-c54f52aa-0" />
</g>
</g>
</g><g
       ns0:text="$\\mathbf{r}_{f_i}=\\left [ x_{f_i}\\;,\\;z_{f_i} \\right ]$"
       ns0:preamble="/home/marco/MAP/MSQS/Project_Plan/figures/preamble1.tex"
       transform="matrix(1.5,0,0,-1.5,78.338026,444.38836)"
       id="g20462"><defs
   id="defs20464">
<g
   id="g20466">
<symbol
   overflow="visible"
   id="textext-72e32297-0">
<path
   style="stroke:none;"
   d="M 2.03125 -3.359375 L 2.03125 -4.484375 L 0.375 -4.40625 L 0.375 -3.9375 C 0.984375 -3.9375 1.0625 -3.9375 1.0625 -3.546875 L 1.0625 -0.46875 L 0.375 -0.46875 L 0.375 0 C 0.71875 -0.015625 1.171875 -0.03125 1.625 -0.03125 C 2 -0.03125 2.640625 -0.03125 3 0 L 3 -0.46875 L 2.140625 -0.46875 L 2.140625 -2.21875 C 2.140625 -2.90625 2.375 -4.125 3.375 -4.125 C 3.375 -4.109375 3.1875 -3.953125 3.1875 -3.671875 C 3.1875 -3.265625 3.515625 -3.0625 3.796875 -3.0625 C 4.09375 -3.0625 4.40625 -3.265625 4.40625 -3.671875 C 4.40625 -4.203125 3.875 -4.484375 3.34375 -4.484375 C 2.65625 -4.484375 2.25 -3.984375 2.03125 -3.359375 Z M 2.03125 -3.359375 "
   id="path20469" />
</symbol>
<symbol
   overflow="visible"
   id="textext-72e32297-1">
<path
   style="stroke:none;"
   d="M 2.84375 -2.75 L 3.515625 -2.75 C 3.65625 -2.75 3.75 -2.75 3.75 -2.90625 C 3.75 -3 3.65625 -3 3.53125 -3 L 2.890625 -3 C 3.046875 -3.890625 3.09375 -4.203125 3.15625 -4.40625 C 3.1875 -4.5625 3.34375 -4.703125 3.515625 -4.703125 C 3.515625 -4.703125 3.703125 -4.703125 3.84375 -4.625 C 3.546875 -4.53125 3.53125 -4.28125 3.53125 -4.25 C 3.53125 -4.09375 3.65625 -3.984375 3.8125 -3.984375 C 4 -3.984375 4.203125 -4.140625 4.203125 -4.40625 C 4.203125 -4.734375 3.875 -4.90625 3.515625 -4.90625 C 3.203125 -4.90625 2.859375 -4.734375 2.671875 -4.390625 C 2.53125 -4.125 2.484375 -3.8125 2.328125 -3 L 1.78125 -3 C 1.640625 -3 1.546875 -3 1.546875 -2.84375 C 1.546875 -2.75 1.640625 -2.75 1.765625 -2.75 L 2.28125 -2.75 C 2.28125 -2.703125 1.84375 -0.203125 1.671875 0.546875 C 1.640625 0.703125 1.515625 1.21875 1.1875 1.21875 C 1.171875 1.21875 1.015625 1.21875 0.875 1.140625 C 1.15625 1.046875 1.1875 0.796875 1.1875 0.765625 C 1.1875 0.609375 1.0625 0.5 0.90625 0.5 C 0.71875 0.5 0.515625 0.65625 0.515625 0.921875 C 0.515625 1.234375 0.84375 1.421875 1.1875 1.421875 C 1.625 1.421875 1.9375 0.96875 2.015625 0.8125 C 2.265625 0.34375 2.4375 -0.515625 2.453125 -0.59375 Z M 2.84375 -2.75 "
   id="path20472" />
</symbol>
<symbol
   overflow="visible"
   id="textext-72e32297-2">
<path
   style="stroke:none;"
   d="M 1.96875 -3.109375 C 1.96875 -3.234375 1.890625 -3.328125 1.75 -3.328125 C 1.609375 -3.328125 1.453125 -3.1875 1.453125 -3.03125 C 1.453125 -2.890625 1.5625 -2.8125 1.671875 -2.8125 C 1.828125 -2.8125 1.96875 -2.953125 1.96875 -3.109375 Z M 2.203125 -0.71875 C 2.203125 -0.78125 2.125 -0.78125 2.109375 -0.78125 C 2.015625 -0.78125 2.015625 -0.765625 1.984375 -0.671875 C 1.90625 -0.40625 1.671875 -0.109375 1.421875 -0.109375 C 1.3125 -0.109375 1.28125 -0.1875 1.28125 -0.296875 C 1.28125 -0.40625 1.296875 -0.46875 1.34375 -0.5625 C 1.375 -0.65625 1.421875 -0.75 1.453125 -0.828125 C 1.46875 -0.875 1.65625 -1.328125 1.734375 -1.515625 C 1.765625 -1.609375 1.796875 -1.6875 1.796875 -1.765625 C 1.796875 -2 1.5625 -2.203125 1.25 -2.203125 C 0.734375 -2.203125 0.453125 -1.5625 0.453125 -1.4375 C 0.453125 -1.359375 0.53125 -1.359375 0.5625 -1.359375 C 0.640625 -1.359375 0.640625 -1.390625 0.671875 -1.453125 C 0.78125 -1.8125 1.015625 -2.03125 1.234375 -2.03125 C 1.328125 -2.03125 1.390625 -1.984375 1.390625 -1.84375 C 1.390625 -1.828125 1.390625 -1.765625 1.359375 -1.671875 C 1.328125 -1.578125 1.09375 -1.046875 1.03125 -0.875 C 0.984375 -0.78125 0.984375 -0.78125 0.921875 -0.609375 C 0.890625 -0.53125 0.859375 -0.46875 0.859375 -0.390625 C 0.859375 -0.125 1.109375 0.0625 1.40625 0.0625 C 1.921875 0.0625 2.203125 -0.59375 2.203125 -0.71875 Z M 2.203125 -0.71875 "
   id="path20475" />
</symbol>
<symbol
   overflow="visible"
   id="textext-72e32297-3">
<path
   style="stroke:none;"
   d="M 6.84375 -3.265625 C 7 -3.265625 7.1875 -3.265625 7.1875 -3.453125 C 7.1875 -3.65625 7 -3.65625 6.859375 -3.65625 L 0.890625 -3.65625 C 0.75 -3.65625 0.5625 -3.65625 0.5625 -3.453125 C 0.5625 -3.265625 0.75 -3.265625 0.890625 -3.265625 Z M 6.859375 -1.328125 C 7 -1.328125 7.1875 -1.328125 7.1875 -1.53125 C 7.1875 -1.71875 7 -1.71875 6.84375 -1.71875 L 0.890625 -1.71875 C 0.75 -1.71875 0.5625 -1.71875 0.5625 -1.53125 C 0.5625 -1.328125 0.75 -1.328125 0.890625 -1.328125 Z M 6.859375 -1.328125 "
   id="path20478" />
</symbol>
<symbol
   overflow="visible"
   id="textext-72e32297-4">
<path
   style="stroke:none;"
   d="M 2.546875 2.5 L 2.546875 2.09375 L 1.578125 2.09375 L 1.578125 -7.078125 L 2.546875 -7.078125 L 2.546875 -7.484375 L 1.171875 -7.484375 L 1.171875 2.5 Z M 2.546875 2.5 "
   id="path20481" />
</symbol>
<symbol
   overflow="visible"
   id="textext-72e32297-5">
<path
   style="stroke:none;"
   d="M 1.578125 -7.484375 L 0.21875 -7.484375 L 0.21875 -7.078125 L 1.1875 -7.078125 L 1.1875 2.09375 L 0.21875 2.09375 L 0.21875 2.5 L 1.578125 2.5 Z M 1.578125 -7.484375 "
   id="path20484" />
</symbol>
<symbol
   overflow="visible"
   id="textext-72e32297-6">
<path
   style="stroke:none;"
   d="M 3.328125 -3.015625 C 3.390625 -3.265625 3.625 -4.1875 4.3125 -4.1875 C 4.359375 -4.1875 4.609375 -4.1875 4.8125 -4.0625 C 4.53125 -4 4.34375 -3.765625 4.34375 -3.515625 C 4.34375 -3.359375 4.453125 -3.171875 4.71875 -3.171875 C 4.9375 -3.171875 5.25 -3.34375 5.25 -3.75 C 5.25 -4.265625 4.671875 -4.40625 4.328125 -4.40625 C 3.75 -4.40625 3.40625 -3.875 3.28125 -3.65625 C 3.03125 -4.3125 2.5 -4.40625 2.203125 -4.40625 C 1.171875 -4.40625 0.59375 -3.125 0.59375 -2.875 C 0.59375 -2.765625 0.703125 -2.765625 0.71875 -2.765625 C 0.796875 -2.765625 0.828125 -2.796875 0.84375 -2.875 C 1.1875 -3.9375 1.84375 -4.1875 2.1875 -4.1875 C 2.375 -4.1875 2.71875 -4.09375 2.71875 -3.515625 C 2.71875 -3.203125 2.546875 -2.546875 2.1875 -1.140625 C 2.03125 -0.53125 1.671875 -0.109375 1.234375 -0.109375 C 1.171875 -0.109375 0.953125 -0.109375 0.734375 -0.234375 C 0.984375 -0.296875 1.203125 -0.5 1.203125 -0.78125 C 1.203125 -1.046875 0.984375 -1.125 0.84375 -1.125 C 0.53125 -1.125 0.296875 -0.875 0.296875 -0.546875 C 0.296875 -0.09375 0.78125 0.109375 1.21875 0.109375 C 1.890625 0.109375 2.25 -0.59375 2.265625 -0.640625 C 2.390625 -0.28125 2.75 0.109375 3.34375 0.109375 C 4.375 0.109375 4.9375 -1.171875 4.9375 -1.421875 C 4.9375 -1.53125 4.859375 -1.53125 4.828125 -1.53125 C 4.734375 -1.53125 4.71875 -1.484375 4.6875 -1.421875 C 4.359375 -0.34375 3.6875 -0.109375 3.375 -0.109375 C 2.984375 -0.109375 2.828125 -0.421875 2.828125 -0.765625 C 2.828125 -0.984375 2.875 -1.203125 2.984375 -1.640625 Z M 3.328125 -3.015625 "
   id="path20487" />
</symbol>
<symbol
   overflow="visible"
   id="textext-72e32297-7">
<path
   style="stroke:none;"
   d="M 2.03125 -0.015625 C 2.03125 -0.671875 1.78125 -1.0625 1.390625 -1.0625 C 1.0625 -1.0625 0.859375 -0.8125 0.859375 -0.53125 C 0.859375 -0.265625 1.0625 0 1.390625 0 C 1.5 0 1.640625 -0.046875 1.734375 -0.125 C 1.765625 -0.15625 1.78125 -0.15625 1.78125 -0.15625 C 1.796875 -0.15625 1.796875 -0.15625 1.796875 -0.015625 C 1.796875 0.734375 1.453125 1.328125 1.125 1.65625 C 1.015625 1.765625 1.015625 1.78125 1.015625 1.8125 C 1.015625 1.890625 1.0625 1.921875 1.109375 1.921875 C 1.21875 1.921875 2.03125 1.15625 2.03125 -0.015625 Z M 2.03125 -0.015625 "
   id="path20490" />
</symbol>
<symbol
   overflow="visible"
   id="textext-72e32297-8">
<path
   style="stroke:none;"
   d="M 1.328125 -0.828125 C 1.859375 -1.40625 2.15625 -1.65625 2.515625 -1.96875 C 2.515625 -1.96875 3.125 -2.5 3.484375 -2.859375 C 4.4375 -3.78125 4.65625 -4.265625 4.65625 -4.3125 C 4.65625 -4.40625 4.5625 -4.40625 4.546875 -4.40625 C 4.46875 -4.40625 4.453125 -4.390625 4.390625 -4.296875 C 4.09375 -3.8125 3.890625 -3.65625 3.65625 -3.65625 C 3.40625 -3.65625 3.296875 -3.8125 3.140625 -3.984375 C 2.953125 -4.203125 2.78125 -4.40625 2.453125 -4.40625 C 1.703125 -4.40625 1.25 -3.484375 1.25 -3.265625 C 1.25 -3.21875 1.28125 -3.15625 1.359375 -3.15625 C 1.453125 -3.15625 1.46875 -3.203125 1.5 -3.265625 C 1.6875 -3.734375 2.265625 -3.734375 2.34375 -3.734375 C 2.546875 -3.734375 2.734375 -3.671875 2.96875 -3.59375 C 3.375 -3.4375 3.484375 -3.4375 3.734375 -3.4375 C 3.375 -3.015625 2.546875 -2.296875 2.359375 -2.140625 L 1.453125 -1.296875 C 0.78125 -0.625 0.421875 -0.0625 0.421875 0.015625 C 0.421875 0.109375 0.53125 0.109375 0.546875 0.109375 C 0.625 0.109375 0.640625 0.09375 0.703125 -0.015625 C 0.9375 -0.375 1.234375 -0.640625 1.5625 -0.640625 C 1.78125 -0.640625 1.890625 -0.546875 2.140625 -0.265625 C 2.296875 -0.046875 2.484375 0.109375 2.765625 0.109375 C 3.765625 0.109375 4.34375 -1.15625 4.34375 -1.421875 C 4.34375 -1.46875 4.296875 -1.53125 4.21875 -1.53125 C 4.125 -1.53125 4.109375 -1.46875 4.078125 -1.390625 C 3.84375 -0.75 3.203125 -0.5625 2.875 -0.5625 C 2.6875 -0.5625 2.5 -0.625 2.296875 -0.6875 C 1.953125 -0.8125 1.796875 -0.859375 1.59375 -0.859375 C 1.578125 -0.859375 1.421875 -0.859375 1.328125 -0.828125 Z M 1.328125 -0.828125 "
   id="path20493" />
</symbol>
</g>
</defs>
<g
   id="textext-72e32297-9">
<g
   style="fill:rgb(0%,0%,0%);fill-opacity:1;"
   id="g20496">
  <use
   xlink:href="#textext-72e32297-0"
   x="72"
   y="81.963"
   id="use20498" />
</g>
<g
   style="fill:rgb(0%,0%,0%);fill-opacity:1;"
   id="g20500">
  <use
   xlink:href="#textext-72e32297-1"
   x="76.718"
   y="83.457"
   id="use20502" />
</g>
<g
   style="fill:rgb(0%,0%,0%);fill-opacity:1;"
   id="g20504">
  <use
   xlink:href="#textext-72e32297-2"
   x="80.603"
   y="84.453"
   id="use20506" />
</g>
<g
   style="fill:rgb(0%,0%,0%);fill-opacity:1;"
   id="g20508">
  <use
   xlink:href="#textext-72e32297-3"
   x="87.025"
   y="81.963"
   id="use20510" />
</g>
<g
   style="fill:rgb(0%,0%,0%);fill-opacity:1;"
   id="g20512">
  <use
   xlink:href="#textext-72e32297-4"
   x="97.543513"
   y="81.963"
   id="use20514" />
</g>
<g
   style="fill:rgb(0%,0%,0%);fill-opacity:1;"
   id="g20516">
  <use
   xlink:href="#textext-72e32297-6"
   x="100.308"
   y="81.963"
   id="use20518" />
</g>
<g
   style="fill:rgb(0%,0%,0%);fill-opacity:1;"
   id="g20520">
  <use
   xlink:href="#textext-72e32297-1"
   x="106.002"
   y="83.457"
   id="use20522" />
</g>
<g
   style="fill:rgb(0%,0%,0%);fill-opacity:1;"
   id="g20524">
  <use
   xlink:href="#textext-72e32297-2"
   x="109.887"
   y="84.453"
   id="use20526" />
</g>
<g
   style="fill:rgb(0%,0%,0%);fill-opacity:1;"
   id="g20528">
  <use
   xlink:href="#textext-72e32297-7"
   x="116.308"
   y="81.963"
   id="use20530" />
</g>
<g
   style="fill:rgb(0%,0%,0%);fill-opacity:1;"
   id="g20532">
  <use
   xlink:href="#textext-72e32297-8"
   x="123.499005"
   y="81.963"
   id="use20534" />
</g>
<g
   style="fill:rgb(0%,0%,0%);fill-opacity:1;"
   id="g20536">
  <use
   xlink:href="#textext-72e32297-1"
   x="128.137"
   y="83.457"
   id="use20538" />
</g>
<g
   style="fill:rgb(0%,0%,0%);fill-opacity:1;"
   id="g20540">
  <use
   xlink:href="#textext-72e32297-2"
   x="132.021"
   y="84.453"
   id="use20542" />
</g>
<g
   style="fill:rgb(0%,0%,0%);fill-opacity:1;"
   id="g20544">
  <use
   xlink:href="#textext-72e32297-5"
   x="135.675"
   y="81.963"
   id="use20546" />
</g>
</g>
</g><g
       id="g21042"
       transform="matrix(1.5,0,0,-1.5,216.23309,257.18009)"
       ns0:preamble="/home/marco/MAP/MSQS/Project_Plan/figures/preamble1.tex"
       ns0:text="$\\mathbf{r}_{a_i}=\\left [ x_{a_i}\\;,\\;z_{a_i} \\right ]$"><defs
   id="defs21044">
<g
   id="g21046">
<symbol
   id="textext-62e7e373-0"
   overflow="visible">
<path
   id="path21049"
   d="M 2.03125 -3.359375 L 2.03125 -4.484375 L 0.375 -4.40625 L 0.375 -3.9375 C 0.984375 -3.9375 1.0625 -3.9375 1.0625 -3.546875 L 1.0625 -0.46875 L 0.375 -0.46875 L 0.375 0 C 0.71875 -0.015625 1.171875 -0.03125 1.625 -0.03125 C 2 -0.03125 2.640625 -0.03125 3 0 L 3 -0.46875 L 2.140625 -0.46875 L 2.140625 -2.21875 C 2.140625 -2.90625 2.375 -4.125 3.375 -4.125 C 3.375 -4.109375 3.1875 -3.953125 3.1875 -3.671875 C 3.1875 -3.265625 3.515625 -3.0625 3.796875 -3.0625 C 4.09375 -3.0625 4.40625 -3.265625 4.40625 -3.671875 C 4.40625 -4.203125 3.875 -4.484375 3.34375 -4.484375 C 2.65625 -4.484375 2.25 -3.984375 2.03125 -3.359375 Z M 2.03125 -3.359375 "
   style="stroke:none;" />
</symbol>
<symbol
   id="textext-62e7e373-1"
   overflow="visible">
<path
   id="path21052"
   d="M 2.9375 -2.65625 C 2.796875 -2.890625 2.5625 -3.078125 2.21875 -3.078125 C 1.328125 -3.078125 0.421875 -2.09375 0.421875 -1.09375 C 0.421875 -0.40625 0.875 0.0625 1.484375 0.0625 C 1.859375 0.0625 2.1875 -0.140625 2.46875 -0.421875 C 2.59375 0 3 0.0625 3.1875 0.0625 C 3.4375 0.0625 3.609375 -0.078125 3.734375 -0.296875 C 3.890625 -0.578125 3.984375 -0.96875 3.984375 -1 C 3.984375 -1.09375 3.890625 -1.09375 3.875 -1.09375 C 3.765625 -1.09375 3.765625 -1.0625 3.71875 -0.875 C 3.625 -0.53125 3.5 -0.125 3.203125 -0.125 C 3.03125 -0.125 2.96875 -0.28125 2.96875 -0.46875 C 2.96875 -0.578125 3.03125 -0.84375 3.078125 -1.015625 C 3.125 -1.203125 3.203125 -1.484375 3.234375 -1.640625 L 3.375 -2.171875 C 3.421875 -2.359375 3.5 -2.6875 3.5 -2.71875 C 3.5 -2.875 3.375 -2.9375 3.265625 -2.9375 C 3.140625 -2.9375 2.984375 -2.859375 2.9375 -2.65625 Z M 2.5 -0.875 C 2.453125 -0.671875 2.296875 -0.53125 2.140625 -0.40625 C 2.078125 -0.34375 1.796875 -0.125 1.5 -0.125 C 1.234375 -0.125 0.984375 -0.3125 0.984375 -0.796875 C 0.984375 -1.171875 1.1875 -1.9375 1.359375 -2.21875 C 1.671875 -2.78125 2.03125 -2.875 2.21875 -2.875 C 2.703125 -2.875 2.84375 -2.34375 2.84375 -2.265625 C 2.84375 -2.25 2.828125 -2.1875 2.828125 -2.171875 Z M 2.5 -0.875 "
   style="stroke:none;" />
</symbol>
<symbol
   id="textext-62e7e373-2"
   overflow="visible">
<path
   id="path21055"
   d="M 1.96875 -3.109375 C 1.96875 -3.234375 1.890625 -3.328125 1.75 -3.328125 C 1.609375 -3.328125 1.453125 -3.1875 1.453125 -3.03125 C 1.453125 -2.890625 1.5625 -2.8125 1.671875 -2.8125 C 1.828125 -2.8125 1.96875 -2.953125 1.96875 -3.109375 Z M 2.203125 -0.71875 C 2.203125 -0.78125 2.125 -0.78125 2.109375 -0.78125 C 2.015625 -0.78125 2.015625 -0.765625 1.984375 -0.671875 C 1.90625 -0.40625 1.671875 -0.109375 1.421875 -0.109375 C 1.3125 -0.109375 1.28125 -0.1875 1.28125 -0.296875 C 1.28125 -0.40625 1.296875 -0.46875 1.34375 -0.5625 C 1.375 -0.65625 1.421875 -0.75 1.453125 -0.828125 C 1.46875 -0.875 1.65625 -1.328125 1.734375 -1.515625 C 1.765625 -1.609375 1.796875 -1.6875 1.796875 -1.765625 C 1.796875 -2 1.5625 -2.203125 1.25 -2.203125 C 0.734375 -2.203125 0.453125 -1.5625 0.453125 -1.4375 C 0.453125 -1.359375 0.53125 -1.359375 0.5625 -1.359375 C 0.640625 -1.359375 0.640625 -1.390625 0.671875 -1.453125 C 0.78125 -1.8125 1.015625 -2.03125 1.234375 -2.03125 C 1.328125 -2.03125 1.390625 -1.984375 1.390625 -1.84375 C 1.390625 -1.828125 1.390625 -1.765625 1.359375 -1.671875 C 1.328125 -1.578125 1.09375 -1.046875 1.03125 -0.875 C 0.984375 -0.78125 0.984375 -0.78125 0.921875 -0.609375 C 0.890625 -0.53125 0.859375 -0.46875 0.859375 -0.390625 C 0.859375 -0.125 1.109375 0.0625 1.40625 0.0625 C 1.921875 0.0625 2.203125 -0.59375 2.203125 -0.71875 Z M 2.203125 -0.71875 "
   style="stroke:none;" />
</symbol>
<symbol
   id="textext-62e7e373-3"
   overflow="visible">
<path
   id="path21058"
   d="M 6.84375 -3.265625 C 7 -3.265625 7.1875 -3.265625 7.1875 -3.453125 C 7.1875 -3.65625 7 -3.65625 6.859375 -3.65625 L 0.890625 -3.65625 C 0.75 -3.65625 0.5625 -3.65625 0.5625 -3.453125 C 0.5625 -3.265625 0.75 -3.265625 0.890625 -3.265625 Z M 6.859375 -1.328125 C 7 -1.328125 7.1875 -1.328125 7.1875 -1.53125 C 7.1875 -1.71875 7 -1.71875 6.84375 -1.71875 L 0.890625 -1.71875 C 0.75 -1.71875 0.5625 -1.71875 0.5625 -1.53125 C 0.5625 -1.328125 0.75 -1.328125 0.890625 -1.328125 Z M 6.859375 -1.328125 "
   style="stroke:none;" />
</symbol>
<symbol
   id="textext-62e7e373-4"
   overflow="visible">
<path
   id="path21061"
   d="M 2.546875 2.5 L 2.546875 2.09375 L 1.578125 2.09375 L 1.578125 -7.078125 L 2.546875 -7.078125 L 2.546875 -7.484375 L 1.171875 -7.484375 L 1.171875 2.5 Z M 2.546875 2.5 "
   style="stroke:none;" />
</symbol>
<symbol
   id="textext-62e7e373-5"
   overflow="visible">
<path
   id="path21064"
   d="M 1.578125 -7.484375 L 0.21875 -7.484375 L 0.21875 -7.078125 L 1.1875 -7.078125 L 1.1875 2.09375 L 0.21875 2.09375 L 0.21875 2.5 L 1.578125 2.5 Z M 1.578125 -7.484375 "
   style="stroke:none;" />
</symbol>
<symbol
   id="textext-62e7e373-6"
   overflow="visible">
<path
   id="path21067"
   d="M 3.328125 -3.015625 C 3.390625 -3.265625 3.625 -4.1875 4.3125 -4.1875 C 4.359375 -4.1875 4.609375 -4.1875 4.8125 -4.0625 C 4.53125 -4 4.34375 -3.765625 4.34375 -3.515625 C 4.34375 -3.359375 4.453125 -3.171875 4.71875 -3.171875 C 4.9375 -3.171875 5.25 -3.34375 5.25 -3.75 C 5.25 -4.265625 4.671875 -4.40625 4.328125 -4.40625 C 3.75 -4.40625 3.40625 -3.875 3.28125 -3.65625 C 3.03125 -4.3125 2.5 -4.40625 2.203125 -4.40625 C 1.171875 -4.40625 0.59375 -3.125 0.59375 -2.875 C 0.59375 -2.765625 0.703125 -2.765625 0.71875 -2.765625 C 0.796875 -2.765625 0.828125 -2.796875 0.84375 -2.875 C 1.1875 -3.9375 1.84375 -4.1875 2.1875 -4.1875 C 2.375 -4.1875 2.71875 -4.09375 2.71875 -3.515625 C 2.71875 -3.203125 2.546875 -2.546875 2.1875 -1.140625 C 2.03125 -0.53125 1.671875 -0.109375 1.234375 -0.109375 C 1.171875 -0.109375 0.953125 -0.109375 0.734375 -0.234375 C 0.984375 -0.296875 1.203125 -0.5 1.203125 -0.78125 C 1.203125 -1.046875 0.984375 -1.125 0.84375 -1.125 C 0.53125 -1.125 0.296875 -0.875 0.296875 -0.546875 C 0.296875 -0.09375 0.78125 0.109375 1.21875 0.109375 C 1.890625 0.109375 2.25 -0.59375 2.265625 -0.640625 C 2.390625 -0.28125 2.75 0.109375 3.34375 0.109375 C 4.375 0.109375 4.9375 -1.171875 4.9375 -1.421875 C 4.9375 -1.53125 4.859375 -1.53125 4.828125 -1.53125 C 4.734375 -1.53125 4.71875 -1.484375 4.6875 -1.421875 C 4.359375 -0.34375 3.6875 -0.109375 3.375 -0.109375 C 2.984375 -0.109375 2.828125 -0.421875 2.828125 -0.765625 C 2.828125 -0.984375 2.875 -1.203125 2.984375 -1.640625 Z M 3.328125 -3.015625 "
   style="stroke:none;" />
</symbol>
<symbol
   id="textext-62e7e373-7"
   overflow="visible">
<path
   id="path21070"
   d="M 2.03125 -0.015625 C 2.03125 -0.671875 1.78125 -1.0625 1.390625 -1.0625 C 1.0625 -1.0625 0.859375 -0.8125 0.859375 -0.53125 C 0.859375 -0.265625 1.0625 0 1.390625 0 C 1.5 0 1.640625 -0.046875 1.734375 -0.125 C 1.765625 -0.15625 1.78125 -0.15625 1.78125 -0.15625 C 1.796875 -0.15625 1.796875 -0.15625 1.796875 -0.015625 C 1.796875 0.734375 1.453125 1.328125 1.125 1.65625 C 1.015625 1.765625 1.015625 1.78125 1.015625 1.8125 C 1.015625 1.890625 1.0625 1.921875 1.109375 1.921875 C 1.21875 1.921875 2.03125 1.15625 2.03125 -0.015625 Z M 2.03125 -0.015625 "
   style="stroke:none;" />
</symbol>
<symbol
   id="textext-62e7e373-8"
   overflow="visible">
<path
   id="path21073"
   d="M 1.328125 -0.828125 C 1.859375 -1.40625 2.15625 -1.65625 2.515625 -1.96875 C 2.515625 -1.96875 3.125 -2.5 3.484375 -2.859375 C 4.4375 -3.78125 4.65625 -4.265625 4.65625 -4.3125 C 4.65625 -4.40625 4.5625 -4.40625 4.546875 -4.40625 C 4.46875 -4.40625 4.453125 -4.390625 4.390625 -4.296875 C 4.09375 -3.8125 3.890625 -3.65625 3.65625 -3.65625 C 3.40625 -3.65625 3.296875 -3.8125 3.140625 -3.984375 C 2.953125 -4.203125 2.78125 -4.40625 2.453125 -4.40625 C 1.703125 -4.40625 1.25 -3.484375 1.25 -3.265625 C 1.25 -3.21875 1.28125 -3.15625 1.359375 -3.15625 C 1.453125 -3.15625 1.46875 -3.203125 1.5 -3.265625 C 1.6875 -3.734375 2.265625 -3.734375 2.34375 -3.734375 C 2.546875 -3.734375 2.734375 -3.671875 2.96875 -3.59375 C 3.375 -3.4375 3.484375 -3.4375 3.734375 -3.4375 C 3.375 -3.015625 2.546875 -2.296875 2.359375 -2.140625 L 1.453125 -1.296875 C 0.78125 -0.625 0.421875 -0.0625 0.421875 0.015625 C 0.421875 0.109375 0.53125 0.109375 0.546875 0.109375 C 0.625 0.109375 0.640625 0.09375 0.703125 -0.015625 C 0.9375 -0.375 1.234375 -0.640625 1.5625 -0.640625 C 1.78125 -0.640625 1.890625 -0.546875 2.140625 -0.265625 C 2.296875 -0.046875 2.484375 0.109375 2.765625 0.109375 C 3.765625 0.109375 4.34375 -1.15625 4.34375 -1.421875 C 4.34375 -1.46875 4.296875 -1.53125 4.21875 -1.53125 C 4.125 -1.53125 4.109375 -1.46875 4.078125 -1.390625 C 3.84375 -0.75 3.203125 -0.5625 2.875 -0.5625 C 2.6875 -0.5625 2.5 -0.625 2.296875 -0.6875 C 1.953125 -0.8125 1.796875 -0.859375 1.59375 -0.859375 C 1.578125 -0.859375 1.421875 -0.859375 1.328125 -0.828125 Z M 1.328125 -0.828125 "
   style="stroke:none;" />
</symbol>
</g>
</defs>
<g
   id="textext-62e7e373-9">
<g
   id="g21076"
   style="fill:rgb(0%,0%,0%);fill-opacity:1;">
  <use
   id="use21078"
   y="81.963"
   x="72"
   xlink:href="#textext-62e7e373-0" />
</g>
<g
   id="g21080"
   style="fill:rgb(0%,0%,0%);fill-opacity:1;">
  <use
   id="use21082"
   y="83.457"
   x="76.718"
   xlink:href="#textext-62e7e373-1" />
</g>
<g
   id="g21084"
   style="fill:rgb(0%,0%,0%);fill-opacity:1;">
  <use
   id="use21086"
   y="84.453"
   x="81.04"
   xlink:href="#textext-62e7e373-2" />
</g>
<g
   id="g21088"
   style="fill:rgb(0%,0%,0%);fill-opacity:1;">
  <use
   id="use21090"
   y="81.963"
   x="87.461"
   xlink:href="#textext-62e7e373-3" />
</g>
<g
   id="g21092"
   style="fill:rgb(0%,0%,0%);fill-opacity:1;">
  <use
   id="use21094"
   y="81.963"
   x="97.979513"
   xlink:href="#textext-62e7e373-4" />
</g>
<g
   id="g21096"
   style="fill:rgb(0%,0%,0%);fill-opacity:1;">
  <use
   id="use21098"
   y="81.963"
   x="100.745"
   xlink:href="#textext-62e7e373-6" />
</g>
<g
   id="g21100"
   style="fill:rgb(0%,0%,0%);fill-opacity:1;">
  <use
   id="use21102"
   y="83.457"
   x="106.439"
   xlink:href="#textext-62e7e373-1" />
</g>
<g
   id="g21104"
   style="fill:rgb(0%,0%,0%);fill-opacity:1;">
  <use
   id="use21106"
   y="84.453"
   x="110.76"
   xlink:href="#textext-62e7e373-2" />
</g>
<g
   id="g21108"
   style="fill:rgb(0%,0%,0%);fill-opacity:1;">
  <use
   id="use21110"
   y="81.963"
   x="117.182"
   xlink:href="#textext-62e7e373-7" />
</g>
<g
   id="g21112"
   style="fill:rgb(0%,0%,0%);fill-opacity:1;">
  <use
   id="use21114"
   y="81.963"
   x="124.373005"
   xlink:href="#textext-62e7e373-8" />
</g>
<g
   id="g21116"
   style="fill:rgb(0%,0%,0%);fill-opacity:1;">
  <use
   id="use21118"
   y="83.457"
   x="129.01"
   xlink:href="#textext-62e7e373-1" />
</g>
<g
   id="g21120"
   style="fill:rgb(0%,0%,0%);fill-opacity:1;">
  <use
   id="use21122"
   y="84.453"
   x="133.331"
   xlink:href="#textext-62e7e373-2" />
</g>
<g
   id="g21124"
   style="fill:rgb(0%,0%,0%);fill-opacity:1;">
  <use
   id="use21126"
   y="81.963"
   x="136.986"
   xlink:href="#textext-62e7e373-5" />
</g>
</g>
</g><path
       style="fill:none;stroke:#000000;stroke-width:1.19999999999999996;stroke-linecap:butt;stroke-linejoin:miter;stroke-opacity:1;stroke-miterlimit:4;stroke-dasharray:none;marker-end:url(#Arrow1Mend)"
       d="m 307.21912,141.99203 -50.7729,11.18725"
       id="path21404"
       inkscape:connector-curvature="0" /><path
       style="fill:none;stroke:#000000;stroke-width:1.5;stroke-linecap:butt;stroke-linejoin:miter;stroke-opacity:1;marker-end:url(#Arrow1Mend);stroke-miterlimit:4;stroke-dasharray:none"
       d="m 386.44422,362.77888 0,-59.43227"
       id="path21406"
       inkscape:connector-curvature="0"
       transform="matrix(0.8,0,0,-0.8,0,432)" /><g
       ns0:text="\\definecolor{blockblue}{RGB}{0,102,204}\\color{blockblue}Element $i$"
       ns0:preamble="/home/marco/MAP/MSQS/Project_Plan/figures/preamble1.tex"
       transform="matrix(0.86675447,-1.224229,-1.224229,-0.86675447,257.36877,425.23991)"
       id="g23538"><defs
   id="defs23540">
<g
   id="g23542">
<symbol
   overflow="visible"
   id="textext-b32d263e-0">
<path
   style="stroke:none;"
   d="M 5.953125 -1.6875 L 5.671875 -1.6875 C 5.171875 -0.609375 4.75 -0.375 3.3125 -0.375 L 3.046875 -0.375 C 2.5625 -0.375 2.140625 -0.421875 2.078125 -0.484375 C 2.03125 -0.515625 2 -0.625 2 -0.796875 L 2 -3.265625 L 3.53125 -3.265625 C 4.359375 -3.265625 4.5 -3.125 4.640625 -2.296875 L 4.859375 -2.296875 L 4.859375 -4.609375 L 4.640625 -4.609375 C 4.5625 -4.203125 4.53125 -4.0625 4.421875 -3.921875 C 4.28125 -3.75 4 -3.671875 3.53125 -3.671875 L 2 -3.671875 L 2 -5.875 C 2 -6.15625 2.0625 -6.21875 2.328125 -6.21875 L 3.671875 -6.21875 C 4.8125 -6.21875 5.03125 -6.078125 5.1875 -5.171875 L 5.4375 -5.171875 L 5.40625 -6.59375 L 0.125 -6.59375 L 0.125 -6.40625 C 0.859375 -6.34375 0.984375 -6.203125 0.984375 -5.515625 L 0.984375 -1.09375 C 0.984375 -0.390625 0.84375 -0.234375 0.125 -0.1875 L 0.125 0 L 5.5 0 Z M 5.953125 -1.6875 "
   id="path23545" />
</symbol>
<symbol
   overflow="visible"
   id="textext-b32d263e-1">
<path
   style="stroke:none;"
   d="M 0.1875 -6.203125 L 0.25 -6.203125 C 0.359375 -6.21875 0.484375 -6.234375 0.5625 -6.234375 C 0.875 -6.234375 0.984375 -6.09375 0.984375 -5.625 L 0.984375 -0.875 C 0.984375 -0.328125 0.84375 -0.203125 0.203125 -0.15625 L 0.203125 0 L 2.5625 0 L 2.5625 -0.15625 C 1.9375 -0.1875 1.8125 -0.296875 1.8125 -0.84375 L 1.8125 -6.78125 L 1.78125 -6.8125 C 1.25 -6.640625 0.875 -6.546875 0.1875 -6.375 Z M 0.1875 -6.203125 "
   id="path23548" />
</symbol>
<symbol
   overflow="visible"
   id="textext-b32d263e-2">
<path
   style="stroke:none;"
   d="M 4.0625 -1.640625 C 3.59375 -0.875 3.15625 -0.59375 2.515625 -0.59375 C 1.953125 -0.59375 1.53125 -0.875 1.234375 -1.453125 C 1.0625 -1.828125 0.984375 -2.15625 0.96875 -2.765625 L 4.03125 -2.765625 C 3.953125 -3.40625 3.859375 -3.703125 3.609375 -4.015625 C 3.3125 -4.375 2.84375 -4.578125 2.328125 -4.578125 C 1.828125 -4.578125 1.359375 -4.40625 0.984375 -4.0625 C 0.515625 -3.65625 0.25 -2.953125 0.25 -2.140625 C 0.25 -0.75 0.96875 0.09375 2.109375 0.09375 C 3.0625 0.09375 3.8125 -0.484375 4.234375 -1.5625 Z M 0.984375 -3.078125 C 1.09375 -3.859375 1.4375 -4.234375 2.046875 -4.234375 C 2.65625 -4.234375 2.890625 -3.953125 3.015625 -3.078125 Z M 0.984375 -3.078125 "
   id="path23551" />
</symbol>
<symbol
   overflow="visible"
   id="textext-b32d263e-3">
<path
   style="stroke:none;"
   d="M 0.1875 -3.96875 C 0.3125 -4 0.40625 -4 0.515625 -4 C 0.765625 -4 0.859375 -3.84375 0.859375 -3.375 L 0.859375 -0.84375 C 0.859375 -0.3125 0.71875 -0.15625 0.15625 -0.15625 L 0.15625 0 L 2.375 0 L 2.375 -0.15625 C 1.84375 -0.171875 1.6875 -0.28125 1.6875 -0.671875 L 1.6875 -3.484375 C 1.6875 -3.5 1.78125 -3.59375 1.84375 -3.671875 C 2.09375 -3.890625 2.515625 -4.0625 2.875 -4.0625 C 3.3125 -4.0625 3.53125 -3.71875 3.53125 -3.015625 L 3.53125 -0.859375 C 3.53125 -0.296875 3.421875 -0.1875 2.84375 -0.15625 L 2.84375 0 L 5.078125 0 L 5.078125 -0.15625 C 4.515625 -0.15625 4.359375 -0.328125 4.359375 -0.953125 L 4.359375 -3.453125 C 4.671875 -3.890625 5 -4.0625 5.453125 -4.0625 C 6.015625 -4.0625 6.203125 -3.796875 6.203125 -2.96875 L 6.203125 -0.875 C 6.203125 -0.296875 6.125 -0.21875 5.546875 -0.15625 L 5.546875 0 L 7.71875 0 L 7.71875 -0.15625 L 7.46875 -0.171875 C 7.171875 -0.1875 7.03125 -0.375 7.03125 -0.75 L 7.03125 -2.8125 C 7.03125 -3.984375 6.65625 -4.578125 5.875 -4.578125 C 5.296875 -4.578125 4.796875 -4.328125 4.25 -3.75 C 4.078125 -4.3125 3.734375 -4.578125 3.203125 -4.578125 C 2.765625 -4.578125 2.484375 -4.453125 1.65625 -3.8125 L 1.65625 -4.5625 L 1.578125 -4.578125 C 1.078125 -4.390625 0.734375 -4.28125 0.1875 -4.140625 Z M 0.1875 -3.96875 "
   id="path23554" />
</symbol>
<symbol
   overflow="visible"
   id="textext-b32d263e-4">
<path
   style="stroke:none;"
   d="M 0.15625 -3.96875 C 0.21875 -4 0.3125 -4 0.421875 -4 C 0.703125 -4 0.796875 -3.859375 0.796875 -3.375 L 0.796875 -0.890625 C 0.796875 -0.328125 0.6875 -0.1875 0.171875 -0.15625 L 0.171875 0 L 2.296875 0 L 2.296875 -0.15625 C 1.78125 -0.1875 1.640625 -0.3125 1.640625 -0.671875 L 1.640625 -3.46875 C 2.109375 -3.921875 2.328125 -4.03125 2.65625 -4.03125 C 3.15625 -4.03125 3.390625 -3.734375 3.390625 -3.078125 L 3.390625 -0.984375 C 3.390625 -0.359375 3.265625 -0.1875 2.765625 -0.15625 L 2.765625 0 L 4.828125 0 L 4.828125 -0.15625 C 4.34375 -0.203125 4.234375 -0.3125 4.234375 -0.8125 L 4.234375 -3.09375 C 4.234375 -4.03125 3.78125 -4.578125 3.046875 -4.578125 C 2.59375 -4.578125 2.28125 -4.421875 1.609375 -3.78125 L 1.609375 -4.5625 L 1.53125 -4.578125 C 1.046875 -4.40625 0.703125 -4.296875 0.15625 -4.140625 Z M 0.15625 -3.96875 "
   id="path23557" />
</symbol>
<symbol
   overflow="visible"
   id="textext-b32d263e-5">
<path
   style="stroke:none;"
   d="M 2.546875 -4.484375 L 1.53125 -4.484375 L 1.53125 -5.640625 C 1.53125 -5.734375 1.53125 -5.765625 1.46875 -5.765625 C 1.390625 -5.6875 1.328125 -5.59375 1.265625 -5.5 C 0.890625 -4.9375 0.453125 -4.46875 0.296875 -4.421875 C 0.1875 -4.359375 0.125 -4.28125 0.125 -4.234375 C 0.125 -4.203125 0.140625 -4.1875 0.171875 -4.171875 L 0.703125 -4.171875 L 0.703125 -1.171875 C 0.703125 -0.328125 1 0.09375 1.578125 0.09375 C 2.078125 0.09375 2.453125 -0.140625 2.78125 -0.65625 L 2.65625 -0.765625 C 2.4375 -0.515625 2.265625 -0.421875 2.046875 -0.421875 C 1.6875 -0.421875 1.53125 -0.6875 1.53125 -1.3125 L 1.53125 -4.171875 L 2.546875 -4.171875 Z M 2.546875 -4.484375 "
   id="path23560" />
</symbol>
<symbol
   overflow="visible"
   id="textext-b32d263e-6">
<path
   style="stroke:none;"
   d="M 2.828125 -6.234375 C 2.828125 -6.4375 2.6875 -6.59375 2.46875 -6.59375 C 2.1875 -6.59375 1.921875 -6.328125 1.921875 -6.0625 C 1.921875 -5.875 2.0625 -5.703125 2.296875 -5.703125 C 2.53125 -5.703125 2.828125 -5.9375 2.828125 -6.234375 Z M 2.078125 -2.484375 C 2.1875 -2.765625 2.1875 -2.796875 2.296875 -3.0625 C 2.375 -3.265625 2.421875 -3.40625 2.421875 -3.59375 C 2.421875 -4.03125 2.109375 -4.40625 1.609375 -4.40625 C 0.671875 -4.40625 0.296875 -2.953125 0.296875 -2.875 C 0.296875 -2.765625 0.390625 -2.765625 0.40625 -2.765625 C 0.515625 -2.765625 0.515625 -2.796875 0.5625 -2.953125 C 0.84375 -3.890625 1.234375 -4.1875 1.578125 -4.1875 C 1.65625 -4.1875 1.828125 -4.1875 1.828125 -3.875 C 1.828125 -3.65625 1.75 -3.453125 1.71875 -3.34375 C 1.640625 -3.09375 1.1875 -1.9375 1.03125 -1.5 C 0.921875 -1.25 0.796875 -0.921875 0.796875 -0.703125 C 0.796875 -0.234375 1.140625 0.109375 1.609375 0.109375 C 2.546875 0.109375 2.921875 -1.328125 2.921875 -1.421875 C 2.921875 -1.53125 2.828125 -1.53125 2.796875 -1.53125 C 2.703125 -1.53125 2.703125 -1.5 2.65625 -1.34375 C 2.46875 -0.71875 2.140625 -0.109375 1.640625 -0.109375 C 1.46875 -0.109375 1.390625 -0.203125 1.390625 -0.4375 C 1.390625 -0.6875 1.453125 -0.828125 1.6875 -1.4375 Z M 2.078125 -2.484375 "
   id="path23563" />
</symbol>
</g>
</defs>
<g
   id="textext-b32d263e-7">
<g
   style="fill:rgb(0%,39.99939%,79.998779%);fill-opacity:1;"
   id="g23566">
  <use
   xlink:href="#textext-b32d263e-0"
   x="72"
   y="81.963"
   id="use23568" />
  <use
   xlink:href="#textext-b32d263e-1"
   x="78.087149"
   y="81.963"
   id="use23570" />
  <use
   xlink:href="#textext-b32d263e-2"
   x="80.856751"
   y="81.963"
   id="use23572" />
  <use
   xlink:href="#textext-b32d263e-3"
   x="85.280146"
   y="81.963"
   id="use23574" />
  <use
   xlink:href="#textext-b32d263e-2"
   x="93.031049"
   y="81.963"
   id="use23576" />
  <use
   xlink:href="#textext-b32d263e-4"
   x="97.454443"
   y="81.963"
   id="use23578" />
  <use
   xlink:href="#textext-b32d263e-5"
   x="102.435743"
   y="81.963"
   id="use23580" />
</g>
<g
   style="fill:rgb(0%,39.99939%,79.998779%);fill-opacity:1;"
   id="g23582">
  <use
   xlink:href="#textext-b32d263e-6"
   x="107.696"
   y="81.963"
   id="use23584" />
</g>
</g>
</g><g
       id="g5390"
       transform="matrix(1.5,0,0,-1.5,206.29155,312.32118)"
       ns0:preamble="/home/marco/MAP/MSQS/Project_Plan/figures/preamble1.tex"
       ns0:text="$z_i$"><defs
   id="defs5392">
<g
   id="g5394">
<symbol
   id="textext-f1404398-0"
   overflow="visible">
<path
   id="path5397"
   d="M 1.328125 -0.828125 C 1.859375 -1.40625 2.15625 -1.65625 2.515625 -1.96875 C 2.515625 -1.96875 3.125 -2.5 3.484375 -2.859375 C 4.4375 -3.78125 4.65625 -4.265625 4.65625 -4.3125 C 4.65625 -4.40625 4.5625 -4.40625 4.546875 -4.40625 C 4.46875 -4.40625 4.453125 -4.390625 4.390625 -4.296875 C 4.09375 -3.8125 3.890625 -3.65625 3.65625 -3.65625 C 3.40625 -3.65625 3.296875 -3.8125 3.140625 -3.984375 C 2.953125 -4.203125 2.78125 -4.40625 2.453125 -4.40625 C 1.703125 -4.40625 1.25 -3.484375 1.25 -3.265625 C 1.25 -3.21875 1.28125 -3.15625 1.359375 -3.15625 C 1.453125 -3.15625 1.46875 -3.203125 1.5 -3.265625 C 1.6875 -3.734375 2.265625 -3.734375 2.34375 -3.734375 C 2.546875 -3.734375 2.734375 -3.671875 2.96875 -3.59375 C 3.375 -3.4375 3.484375 -3.4375 3.734375 -3.4375 C 3.375 -3.015625 2.546875 -2.296875 2.359375 -2.140625 L 1.453125 -1.296875 C 0.78125 -0.625 0.421875 -0.0625 0.421875 0.015625 C 0.421875 0.109375 0.53125 0.109375 0.546875 0.109375 C 0.625 0.109375 0.640625 0.09375 0.703125 -0.015625 C 0.9375 -0.375 1.234375 -0.640625 1.5625 -0.640625 C 1.78125 -0.640625 1.890625 -0.546875 2.140625 -0.265625 C 2.296875 -0.046875 2.484375 0.109375 2.765625 0.109375 C 3.765625 0.109375 4.34375 -1.15625 4.34375 -1.421875 C 4.34375 -1.46875 4.296875 -1.53125 4.21875 -1.53125 C 4.125 -1.53125 4.109375 -1.46875 4.078125 -1.390625 C 3.84375 -0.75 3.203125 -0.5625 2.875 -0.5625 C 2.6875 -0.5625 2.5 -0.625 2.296875 -0.6875 C 1.953125 -0.8125 1.796875 -0.859375 1.59375 -0.859375 C 1.578125 -0.859375 1.421875 -0.859375 1.328125 -0.828125 Z M 1.328125 -0.828125 "
   style="stroke:none;" />
</symbol>
<symbol
   id="textext-f1404398-1"
   overflow="visible">
<path
   id="path5400"
   d="M 2.265625 -4.359375 C 2.265625 -4.46875 2.171875 -4.625 1.984375 -4.625 C 1.796875 -4.625 1.59375 -4.4375 1.59375 -4.234375 C 1.59375 -4.125 1.671875 -3.96875 1.875 -3.96875 C 2.0625 -3.96875 2.265625 -4.171875 2.265625 -4.359375 Z M 0.84375 -0.8125 C 0.8125 -0.71875 0.78125 -0.640625 0.78125 -0.515625 C 0.78125 -0.1875 1.046875 0.0625 1.4375 0.0625 C 2.125 0.0625 2.4375 -0.890625 2.4375 -1 C 2.4375 -1.09375 2.34375 -1.09375 2.328125 -1.09375 C 2.234375 -1.09375 2.21875 -1.046875 2.1875 -0.96875 C 2.03125 -0.40625 1.734375 -0.125 1.453125 -0.125 C 1.3125 -0.125 1.28125 -0.21875 1.28125 -0.375 C 1.28125 -0.53125 1.328125 -0.65625 1.390625 -0.8125 C 1.46875 -1 1.546875 -1.1875 1.609375 -1.375 C 1.671875 -1.546875 1.9375 -2.171875 1.953125 -2.265625 C 1.984375 -2.328125 2 -2.40625 2 -2.484375 C 2 -2.8125 1.71875 -3.078125 1.34375 -3.078125 C 0.640625 -3.078125 0.328125 -2.125 0.328125 -2 C 0.328125 -1.921875 0.421875 -1.921875 0.453125 -1.921875 C 0.546875 -1.921875 0.546875 -1.953125 0.578125 -2.03125 C 0.75 -2.625 1.0625 -2.875 1.3125 -2.875 C 1.421875 -2.875 1.484375 -2.828125 1.484375 -2.640625 C 1.484375 -2.46875 1.453125 -2.375 1.28125 -1.9375 Z M 0.84375 -0.8125 "
   style="stroke:none;" />
</symbol>
</g>
</defs>
<g
   id="textext-f1404398-2">
<g
   id="g5403"
   style="fill:rgb(0%,0%,0%);fill-opacity:1;">
  <use
   id="use5405"
   y="81.963"
   x="72"
   xlink:href="#textext-f1404398-0" />
</g>
<g
   id="g5407"
   style="fill:rgb(0%,0%,0%);fill-opacity:1;">
  <use
   id="use5409"
   y="83.457"
   x="76.633"
   xlink:href="#textext-f1404398-1" />
</g>
</g>
</g><g
       ns0:text="$x_i$"
       ns0:preamble="/home/marco/MAP/MSQS/Project_Plan/figures/preamble1.tex"
       transform="matrix(1.5,0,0,-1.5,127.25423,280.48054)"
       id="g6001"><defs
   id="defs6003">
<g
   id="g6005">
<symbol
   overflow="visible"
   id="textext-224760a2-0">
<path
   style="stroke:none;"
   d="M 3.328125 -3.015625 C 3.390625 -3.265625 3.625 -4.1875 4.3125 -4.1875 C 4.359375 -4.1875 4.609375 -4.1875 4.8125 -4.0625 C 4.53125 -4 4.34375 -3.765625 4.34375 -3.515625 C 4.34375 -3.359375 4.453125 -3.171875 4.71875 -3.171875 C 4.9375 -3.171875 5.25 -3.34375 5.25 -3.75 C 5.25 -4.265625 4.671875 -4.40625 4.328125 -4.40625 C 3.75 -4.40625 3.40625 -3.875 3.28125 -3.65625 C 3.03125 -4.3125 2.5 -4.40625 2.203125 -4.40625 C 1.171875 -4.40625 0.59375 -3.125 0.59375 -2.875 C 0.59375 -2.765625 0.703125 -2.765625 0.71875 -2.765625 C 0.796875 -2.765625 0.828125 -2.796875 0.84375 -2.875 C 1.1875 -3.9375 1.84375 -4.1875 2.1875 -4.1875 C 2.375 -4.1875 2.71875 -4.09375 2.71875 -3.515625 C 2.71875 -3.203125 2.546875 -2.546875 2.1875 -1.140625 C 2.03125 -0.53125 1.671875 -0.109375 1.234375 -0.109375 C 1.171875 -0.109375 0.953125 -0.109375 0.734375 -0.234375 C 0.984375 -0.296875 1.203125 -0.5 1.203125 -0.78125 C 1.203125 -1.046875 0.984375 -1.125 0.84375 -1.125 C 0.53125 -1.125 0.296875 -0.875 0.296875 -0.546875 C 0.296875 -0.09375 0.78125 0.109375 1.21875 0.109375 C 1.890625 0.109375 2.25 -0.59375 2.265625 -0.640625 C 2.390625 -0.28125 2.75 0.109375 3.34375 0.109375 C 4.375 0.109375 4.9375 -1.171875 4.9375 -1.421875 C 4.9375 -1.53125 4.859375 -1.53125 4.828125 -1.53125 C 4.734375 -1.53125 4.71875 -1.484375 4.6875 -1.421875 C 4.359375 -0.34375 3.6875 -0.109375 3.375 -0.109375 C 2.984375 -0.109375 2.828125 -0.421875 2.828125 -0.765625 C 2.828125 -0.984375 2.875 -1.203125 2.984375 -1.640625 Z M 3.328125 -3.015625 "
   id="path6008" />
</symbol>
<symbol
   overflow="visible"
   id="textext-224760a2-1">
<path
   style="stroke:none;"
   d="M 2.265625 -4.359375 C 2.265625 -4.46875 2.171875 -4.625 1.984375 -4.625 C 1.796875 -4.625 1.59375 -4.4375 1.59375 -4.234375 C 1.59375 -4.125 1.671875 -3.96875 1.875 -3.96875 C 2.0625 -3.96875 2.265625 -4.171875 2.265625 -4.359375 Z M 0.84375 -0.8125 C 0.8125 -0.71875 0.78125 -0.640625 0.78125 -0.515625 C 0.78125 -0.1875 1.046875 0.0625 1.4375 0.0625 C 2.125 0.0625 2.4375 -0.890625 2.4375 -1 C 2.4375 -1.09375 2.34375 -1.09375 2.328125 -1.09375 C 2.234375 -1.09375 2.21875 -1.046875 2.1875 -0.96875 C 2.03125 -0.40625 1.734375 -0.125 1.453125 -0.125 C 1.3125 -0.125 1.28125 -0.21875 1.28125 -0.375 C 1.28125 -0.53125 1.328125 -0.65625 1.390625 -0.8125 C 1.46875 -1 1.546875 -1.1875 1.609375 -1.375 C 1.671875 -1.546875 1.9375 -2.171875 1.953125 -2.265625 C 1.984375 -2.328125 2 -2.40625 2 -2.484375 C 2 -2.8125 1.71875 -3.078125 1.34375 -3.078125 C 0.640625 -3.078125 0.328125 -2.125 0.328125 -2 C 0.328125 -1.921875 0.421875 -1.921875 0.453125 -1.921875 C 0.546875 -1.921875 0.546875 -1.953125 0.578125 -2.03125 C 0.75 -2.625 1.0625 -2.875 1.3125 -2.875 C 1.421875 -2.875 1.484375 -2.828125 1.484375 -2.640625 C 1.484375 -2.46875 1.453125 -2.375 1.28125 -1.9375 Z M 0.84375 -0.8125 "
   id="path6011" />
</symbol>
</g>
</defs>
<g
   id="textext-224760a2-2">
<g
   style="fill:rgb(0%,0%,0%);fill-opacity:1;"
   id="g6014">
  <use
   xlink:href="#textext-224760a2-0"
   x="72"
   y="81.963"
   id="use6016" />
</g>
<g
   style="fill:rgb(0%,0%,0%);fill-opacity:1;"
   id="g6018">
  <use
   xlink:href="#textext-224760a2-1"
   x="77.694"
   y="83.457"
   id="use6020" />
</g>
</g>
</g><g
       id="g5253"
       transform="matrix(1.5,0,0,-1.5,-49.051793,274.31557)"
       ns0:preamble="/home/marco/MAP/MSQS/Project_Plan/figures/preamble1.tex"
       ns0:text="$\\alpha_{i}$"><defs
   id="defs5255">
<g
   id="g5257">
<symbol
   id="textext-ac523ecb-0"
   overflow="visible"
   style="overflow:visible">
<path
   id="path5260"
   d="m 4.75,-2.359375 c 0,-1.5625 -0.921875,-2.046875 -1.65625,-2.046875 -1.375,0 -2.6875,1.421875 -2.6875,2.828125 0,0.9375 0.59375,1.6875 1.625,1.6875 0.625,0 1.34375,-0.234375 2.09375,-0.84375 0.125,0.53125 0.453125,0.84375 0.90625,0.84375 0.53125,0 0.84375,-0.546875 0.84375,-0.703125 0,-0.078125 -0.0625,-0.109375 -0.125,-0.109375 -0.0625,0 -0.09375,0.03125 -0.125,0.109375 -0.1875,0.484375 -0.546875,0.484375 -0.5625,0.484375 -0.3125,0 -0.3125,-0.78125 -0.3125,-1.015625 0,-0.203125 0,-0.234375 0.109375,-0.34375 C 5.796875,-2.65625 6,-3.8125 6,-3.8125 6,-3.84375 5.984375,-3.921875 5.875,-3.921875 c -0.09375,0 -0.09375,0.03125 -0.140625,0.21875 -0.1875,0.625 -0.515625,1.375 -0.984375,1.96875 z m -0.65625,1.375 c -0.890625,0.765625 -1.65625,0.875 -2.046875,0.875 -0.59375,0 -0.90625,-0.453125 -0.90625,-1.09375 0,-0.484375 0.265625,-1.5625 0.578125,-2.0625 C 2.1875,-4 2.734375,-4.1875 3.078125,-4.1875 c 0.984375,0 0.984375,1.3125 0.984375,2.078125 0,0.375 0,0.953125 0.03125,1.125 z m 0,0"
   style="stroke:none"
   inkscape:connector-curvature="0" />
</symbol>
<symbol
   id="textext-ac523ecb-1"
   overflow="visible"
   style="overflow:visible">
<path
   id="path5263"
   d="m 2.265625,-4.359375 c 0,-0.109375 -0.09375,-0.265625 -0.28125,-0.265625 -0.1875,0 -0.390625,0.1875 -0.390625,0.390625 0,0.109375 0.078125,0.265625 0.28125,0.265625 0.1875,0 0.390625,-0.203125 0.390625,-0.390625 z M 0.84375,-0.8125 c -0.03125,0.09375 -0.0625,0.171875 -0.0625,0.296875 0,0.328125 0.265625,0.578125 0.65625,0.578125 0.6875,0 1,-0.953125 1,-1.0625 0,-0.09375 -0.09375,-0.09375 -0.109375,-0.09375 -0.09375,0 -0.109375,0.046875 -0.140625,0.125 -0.15625,0.5625 -0.453125,0.84375 -0.734375,0.84375 -0.140625,0 -0.171875,-0.09375 -0.171875,-0.25 0,-0.15625 0.046875,-0.28125 0.109375,-0.4375 C 1.46875,-1 1.546875,-1.1875 1.609375,-1.375 1.671875,-1.546875 1.9375,-2.171875 1.953125,-2.265625 1.984375,-2.328125 2,-2.40625 2,-2.484375 2,-2.8125 1.71875,-3.078125 1.34375,-3.078125 0.640625,-3.078125 0.328125,-2.125 0.328125,-2 c 0,0.078125 0.09375,0.078125 0.125,0.078125 0.09375,0 0.09375,-0.03125 0.125,-0.109375 C 0.75,-2.625 1.0625,-2.875 1.3125,-2.875 c 0.109375,0 0.171875,0.046875 0.171875,0.234375 0,0.171875 -0.03125,0.265625 -0.203125,0.703125 z m 0,0"
   style="stroke:none"
   inkscape:connector-curvature="0" />
</symbol>
</g>
</defs>
<g
   id="textext-ac523ecb-2">
<g
   id="g5266"
   style="fill:#000000;fill-opacity:1">
  <use
   id="use5268"
   y="81.962997"
   x="72"
   xlink:href="#textext-ac523ecb-0"
   width="720"
   height="540" />
</g>
<g
   id="g5270"
   style="fill:#000000;fill-opacity:1">
  <use
   id="use5272"
   y="83.457001"
   x="78.373001"
   xlink:href="#textext-ac523ecb-1"
   width="720"
   height="540" />
</g>
</g>
</g></g></svg>